{"glyphs":{"0":{"ha":833,"x_min":60,"x_max":774,"o":"m 774 492 q 753 288 774 381 q 690 127 733 194 q 579 22 647 60 q 417 -17 511 -17 q 254 22 322 -17 q 143 127 186 60 q 80 288 100 194 q 60 492 60 381 q 80 694 60 601 q 143 856 100 788 q 254 961 186 924 q 417 999 322 999 q 579 961 511 999 q 690 856 647 924 q 753 694 733 788 q 774 492 774 601 m 417 872 q 213 492 213 872 q 417 110 213 110 q 621 492 621 110 q 417 872 621 872 z "},"1":{"ha":833,"x_min":136,"x_max":749,"o":"m 386 119 l 386 800 l 190 711 q 136 814 153 753 l 503 989 l 526 989 l 526 119 l 744 119 q 749 60 749 88 q 744 0 749 31 l 156 0 q 152 30 153 15 q 151 60 151 44 q 156 119 151 88 l 386 119 z "},"2":{"ha":833,"x_min":86,"x_max":715,"o":"m 86 18 l 371 383 q 429 461 400 422 q 481 540 458 500 q 518 622 504 581 q 532 706 532 663 q 484 827 532 785 q 340 869 436 869 q 233 856 279 869 q 151 824 186 842 q 128 881 139 851 q 115 940 118 911 q 220 980 160 961 q 361 999 281 999 q 489 981 429 999 q 592 927 549 963 q 660 839 635 892 q 685 718 685 786 q 658 574 685 642 q 584 438 631 507 q 474 292 538 368 q 336 124 410 217 l 710 124 q 715 63 715 96 q 714 31 715 47 q 710 0 713 15 l 94 0 l 86 18 z "},"3":{"ha":833,"x_min":68,"x_max":710,"o":"m 315 106 q 415 117 368 106 q 495 153 461 128 q 549 217 529 178 q 569 314 569 257 q 513 442 569 400 q 364 483 456 483 q 308 481 336 483 q 251 472 279 479 l 240 492 l 472 857 l 115 857 q 110 917 110 885 q 111 949 110 932 q 115 981 113 965 l 678 981 l 688 964 l 435 579 q 444 581 439 581 q 456 581 450 581 q 569 558 521 581 q 648 498 617 535 q 694 416 679 461 q 710 326 710 371 q 678 173 710 238 q 594 66 647 108 q 471 3 542 24 q 319 -17 400 -17 q 189 -6 250 -17 q 68 29 128 6 q 84 89 72 60 q 111 146 96 118 q 204 117 156 128 q 315 106 253 106 z "},"4":{"ha":833,"x_min":42,"x_max":794,"o":"m 53 190 l 42 206 l 449 1003 q 509 988 478 1000 q 569 957 540 976 l 246 313 l 526 313 l 526 576 q 560 581 543 579 q 592 582 576 582 q 627 581 610 582 q 661 576 644 579 l 661 313 l 789 313 q 793 282 792 297 q 794 251 794 267 q 793 220 794 236 q 789 190 792 204 l 661 190 l 661 0 q 627 -3 643 -3 q 594 -4 611 -4 q 560 -3 578 -4 q 526 0 543 -3 l 526 190 l 53 190 z "},"5":{"ha":833,"x_min":90,"x_max":713,"o":"m 713 324 q 682 172 713 236 q 598 67 651 108 q 472 5 544 25 q 314 -15 399 -15 q 201 -6 261 -15 q 90 25 140 4 q 104 84 94 56 q 129 142 114 113 q 214 117 172 126 q 314 108 256 108 q 501 159 435 108 q 567 317 567 210 q 555 390 567 356 q 517 451 543 425 q 448 491 490 476 q 344 506 406 506 q 260 499 301 506 q 186 481 218 492 l 172 493 q 181 737 176 615 q 192 982 186 858 l 664 982 q 667 952 667 967 q 668 922 668 938 q 667 890 668 906 q 664 858 667 874 l 317 858 l 308 611 q 362 618 335 617 q 404 619 389 619 q 531 600 474 619 q 628 542 588 581 q 690 449 668 504 q 713 324 713 394 z "},"6":{"ha":833,"x_min":92,"x_max":768,"o":"m 92 385 q 123 615 92 507 q 219 808 154 724 q 383 947 283 893 q 621 1011 483 1000 q 632 947 632 978 q 631 919 632 933 q 626 894 629 906 q 472 853 539 886 q 356 769 404 821 q 277 651 307 718 q 235 507 247 583 q 324 598 265 560 q 472 636 383 636 q 581 617 528 636 q 676 560 635 599 q 743 460 718 521 q 768 317 768 400 q 740 172 768 235 q 664 68 711 110 q 556 5 617 26 q 432 -17 496 -17 q 290 6 353 -17 q 183 78 226 29 q 115 202 139 126 q 92 385 92 278 m 438 519 q 361 506 397 519 q 299 465 325 492 q 257 399 272 438 q 242 310 242 360 q 291 154 242 206 q 428 103 340 103 q 505 117 469 103 q 567 157 540 131 q 608 222 593 183 q 624 313 624 261 q 609 407 624 368 q 569 471 594 446 q 510 508 544 496 q 438 519 476 519 z "},"7":{"ha":833,"x_min":85,"x_max":756,"o":"m 333 -18 q 265 3 296 -10 q 204 40 233 17 l 560 857 l 90 857 q 86 885 88 871 q 85 915 85 900 q 86 949 85 932 q 90 981 88 965 l 750 981 l 756 971 l 333 -18 z "},"8":{"ha":833,"x_min":74,"x_max":760,"o":"m 553 529 q 626 492 589 514 q 692 436 663 469 q 741 358 722 403 q 760 256 760 314 q 731 130 760 182 q 653 45 701 78 q 542 -2 604 13 q 417 -17 481 -17 q 290 -2 351 -17 q 181 45 229 13 q 103 130 132 78 q 74 256 74 182 q 92 358 74 314 q 141 435 111 401 q 207 491 171 468 q 279 529 243 514 q 166 617 213 561 q 119 758 119 674 q 142 857 119 813 q 205 933 165 901 q 299 981 244 964 q 417 999 353 999 q 535 981 481 999 q 628 933 589 964 q 691 857 668 901 q 714 758 714 813 q 667 617 714 672 q 553 529 621 561 m 417 471 q 339 440 375 458 q 277 396 303 421 q 236 339 251 371 q 221 268 221 307 q 271 146 221 190 q 417 101 321 101 q 563 146 514 101 q 613 268 613 190 q 597 339 613 307 q 556 396 582 371 q 494 440 529 421 q 417 471 458 458 m 417 582 q 479 606 450 592 q 531 640 508 621 q 566 687 553 660 q 579 749 579 714 q 538 849 579 811 q 417 886 497 886 q 295 849 336 886 q 254 749 254 811 q 267 687 254 714 q 303 640 281 660 q 355 606 325 621 q 417 582 385 592 z "},"9":{"ha":833,"x_min":71,"x_max":747,"o":"m 747 603 q 716 372 747 481 q 620 179 685 264 q 456 41 556 94 q 218 -24 356 -12 q 207 42 207 3 q 208 67 207 53 q 213 94 210 82 q 366 134 297 101 q 485 218 435 167 q 565 337 535 269 q 603 481 594 404 q 515 389 574 428 q 367 350 456 350 q 257 369 310 350 q 163 426 204 388 q 96 526 121 465 q 71 669 71 586 q 99 814 71 751 q 175 919 128 876 q 283 983 222 961 q 407 1004 343 1004 q 549 981 486 1004 q 656 910 613 958 q 724 785 700 861 q 747 603 747 708 m 401 468 q 478 482 442 468 q 540 523 514 496 q 582 589 567 550 q 597 676 597 628 q 548 833 597 781 q 411 885 499 885 q 272 831 328 885 q 215 674 215 778 q 230 579 215 618 q 269 515 244 540 q 328 479 294 490 q 401 468 363 468 z "},"\u0000":{"ha":0,"x_min":0,"x_max":0,"o":""},"\b":{"ha":0,"x_min":0,"x_max":0,"o":""},"\u001d":{"ha":0,"x_min":0,"x_max":0,"o":""},"\t":{"ha":329,"x_min":0,"x_max":0,"o":""},"\r":{"ha":329,"x_min":0,"x_max":0,"o":""}," ":{"ha":329,"x_min":0,"x_max":0,"o":""},"!":{"ha":403,"x_min":118,"x_max":285,"o":"m 129 999 q 165 1003 147 1001 q 200 1004 182 1004 q 239 1003 219 1004 q 278 999 258 1001 l 269 300 q 204 294 238 294 q 139 300 167 294 l 129 999 m 124 0 q 119 38 121 19 q 118 76 118 57 q 119 116 118 96 q 124 156 121 136 q 162 160 143 158 q 200 161 181 161 q 240 160 219 161 q 279 156 260 158 q 283 117 282 136 q 285 78 285 97 q 283 39 285 58 q 279 0 282 19 q 240 -4 260 -3 q 201 -6 221 -6 q 163 -4 182 -6 q 124 0 143 -3 z "},"\"":{"ha":583,"x_min":89,"x_max":493,"o":"m 361 999 q 394 1003 376 1001 q 428 1004 411 1004 q 461 1003 444 1004 q 493 999 478 1001 l 493 618 q 428 614 461 614 q 361 618 392 614 l 361 999 m 89 999 q 122 1003 104 1001 q 156 1004 139 1004 q 189 1003 172 1004 q 221 999 206 1001 l 221 618 q 156 614 189 614 q 89 618 119 614 l 89 999 z "},"#":{"ha":1021,"x_min":88,"x_max":954,"o":"m 264 290 l 92 290 q 88 342 88 315 q 89 372 88 357 q 93 400 90 388 l 274 400 l 293 629 l 121 629 q 115 683 115 651 q 121 738 115 714 l 301 738 l 321 958 q 353 962 338 961 q 386 963 368 963 q 415 963 401 963 q 444 960 429 963 l 426 738 l 663 738 l 682 958 q 714 962 699 961 q 747 963 729 963 q 777 963 763 963 q 807 960 792 963 l 788 738 l 950 738 q 954 688 954 713 q 950 629 954 656 l 779 629 l 760 400 l 921 400 q 925 375 924 389 q 926 349 926 361 q 925 318 926 333 q 921 290 924 303 l 750 290 l 729 40 q 668 36 697 36 q 607 40 636 36 l 626 290 l 390 290 l 371 40 q 306 36 338 36 q 243 40 276 36 l 264 290 m 635 400 l 654 629 l 417 629 l 399 400 l 635 400 z "},"$":{"ha":833,"x_min":104,"x_max":735,"o":"m 381 -15 q 369 -17 374 -17 q 361 -17 365 -17 q 283 -14 318 -17 q 219 -6 249 -11 q 161 8 189 0 q 104 26 133 17 q 116 88 107 57 q 136 149 125 119 q 233 122 183 133 q 354 110 283 110 q 524 154 468 110 q 579 276 579 199 q 567 342 579 315 q 532 388 556 368 q 472 423 508 407 q 388 460 436 439 l 321 488 q 244 525 279 504 q 184 574 210 546 q 144 642 158 603 q 131 735 131 681 q 195 910 131 842 q 381 994 260 978 l 381 1129 q 428 1135 401 1135 q 478 1129 456 1135 l 478 1000 q 592 988 536 997 q 689 963 649 978 q 658 847 682 904 q 572 872 621 861 q 460 882 524 882 q 325 849 372 882 q 278 746 278 815 q 290 688 278 713 q 327 645 303 664 q 385 611 351 626 q 463 578 419 596 l 515 556 q 606 513 565 535 q 674 460 646 490 q 719 388 703 429 q 735 286 735 346 q 667 94 735 168 q 478 -4 600 19 l 478 -164 q 454 -168 467 -167 q 431 -169 442 -169 q 406 -168 418 -169 q 381 -164 393 -167 l 381 -15 z "},"%":{"ha":1458,"x_min":61,"x_max":1389,"o":"m 997 983 q 1031 988 1014 986 q 1065 989 1049 989 q 1102 988 1083 989 q 1138 983 1121 986 l 467 1 q 431 -3 447 -1 q 397 -4 414 -4 q 326 1 358 -4 l 997 983 m 1261 279 q 1230 422 1261 371 q 1128 472 1199 472 q 1027 422 1060 472 q 994 279 994 371 q 1026 135 994 186 q 1128 85 1057 85 q 1228 135 1196 85 q 1261 279 1261 186 m 867 279 q 883 392 867 339 q 931 486 899 446 q 1012 550 963 526 q 1128 574 1061 574 q 1243 550 1194 574 q 1324 486 1292 526 q 1373 392 1357 446 q 1389 279 1389 339 q 1373 165 1389 218 q 1324 72 1357 111 q 1243 8 1292 32 q 1128 -15 1194 -15 q 1012 8 1061 -15 q 931 72 963 32 q 883 165 899 111 q 867 279 867 218 m 456 704 q 424 847 456 796 q 322 897 393 897 q 222 847 254 897 q 189 704 189 796 q 220 560 189 611 q 322 510 251 510 q 423 560 390 510 q 456 704 456 611 m 61 704 q 77 817 61 764 q 125 911 93 871 q 206 975 157 951 q 322 999 256 999 q 438 975 389 999 q 519 911 486 951 q 567 817 551 871 q 583 704 583 764 q 567 590 583 643 q 519 497 551 536 q 438 433 486 457 q 322 410 389 410 q 206 433 256 410 q 125 497 157 457 q 77 590 93 536 q 61 704 61 643 z "},"&":{"ha":1057,"x_min":81,"x_max":1051,"o":"m 257 771 q 297 676 257 711 q 424 640 336 640 l 726 640 l 854 815 l 865 815 l 865 640 l 1046 640 q 1051 586 1051 617 q 1050 556 1051 571 q 1046 528 1049 542 l 865 528 l 865 322 q 836 174 865 238 q 753 67 807 110 q 623 4 699 25 q 456 -17 547 -17 q 314 0 382 -17 q 194 53 246 17 q 111 146 142 89 q 81 283 81 203 q 94 374 81 329 q 131 456 107 418 q 188 523 156 494 q 258 567 221 551 q 158 642 199 593 q 117 775 117 692 q 140 881 117 836 q 204 956 164 926 q 299 1001 244 986 q 415 1015 354 1015 q 496 1010 451 1015 q 589 988 540 1004 q 581 931 588 956 q 558 883 574 907 q 489 899 522 894 q 424 904 456 904 q 347 892 378 904 q 295 862 315 881 q 266 819 275 843 q 257 771 257 796 m 467 108 q 599 129 547 108 q 681 185 651 150 q 721 265 710 219 q 732 360 732 311 l 732 525 l 450 525 q 360 508 400 525 q 292 460 319 490 q 249 390 264 429 q 233 306 233 350 q 293 159 233 210 q 467 108 353 108 z "},"'":{"ha":310,"x_min":89,"x_max":221,"o":"m 89 999 q 122 1003 104 1001 q 156 1004 139 1004 q 189 1003 172 1004 q 221 999 206 1001 l 221 618 q 156 614 189 614 q 89 618 119 614 l 89 999 z "},"(":{"ha":443,"x_min":69,"x_max":374,"o":"m 238 -232 q 176 -117 206 -185 q 122 33 146 -50 q 84 215 99 117 q 69 422 69 313 q 84 631 69 532 q 122 813 99 729 q 176 963 146 896 q 238 1078 206 1029 q 266 1082 249 1081 q 303 1083 283 1083 q 340 1082 322 1083 q 374 1078 358 1081 q 329 992 357 1049 q 274 853 301 936 q 228 663 247 771 q 208 422 208 556 q 228 182 208 290 q 274 -8 247 74 q 329 -147 301 -90 q 374 -232 357 -203 q 339 -236 358 -235 q 300 -237 319 -237 q 265 -236 282 -237 q 238 -232 249 -235 z "},")":{"ha":443,"x_min":69,"x_max":374,"o":"m 69 -232 q 114 -147 86 -203 q 169 -8 142 -90 q 215 182 196 74 q 235 422 235 290 q 215 663 235 556 q 169 853 196 771 q 114 992 142 936 q 69 1078 86 1049 q 103 1082 85 1081 q 140 1083 121 1083 q 177 1082 160 1083 q 206 1078 194 1081 q 267 963 236 1029 q 321 813 297 896 q 359 631 344 729 q 374 422 374 532 q 359 215 374 313 q 321 33 344 117 q 267 -117 297 -50 q 206 -232 236 -185 q 178 -236 194 -235 q 143 -237 161 -237 q 104 -236 124 -237 q 69 -232 85 -235 z "},"*":{"ha":674,"x_min":53,"x_max":621,"o":"m 294 999 q 336 1003 315 1003 q 381 999 357 1003 l 392 818 q 363 815 376 815 q 336 814 350 814 q 309 815 322 814 q 283 818 296 815 l 294 999 m 254 800 q 222 697 246 744 l 53 764 q 81 846 58 807 l 254 800 m 233 668 q 278 641 256 657 q 321 606 300 625 l 206 465 q 169 488 186 476 q 136 517 151 500 l 233 668 m 593 846 q 621 764 615 807 l 451 697 q 419 800 428 744 l 593 846 m 538 517 q 505 488 522 500 q 468 465 488 476 l 353 606 q 396 641 374 625 q 440 668 418 657 l 538 517 z "},"+":{"ha":833,"x_min":119,"x_max":714,"o":"m 356 426 l 125 426 q 119 489 119 454 q 125 550 119 522 l 356 550 l 356 803 q 385 807 371 806 q 417 808 400 808 q 447 807 432 808 q 479 803 463 806 l 479 550 l 708 550 q 713 519 711 535 q 714 489 714 504 q 713 458 714 474 q 708 426 711 442 l 479 426 l 479 175 q 447 171 463 172 q 417 169 432 169 q 356 175 382 169 l 356 426 z "},",":{"ha":296,"x_min":28,"x_max":247,"o":"m 110 153 q 144 158 126 156 q 176 160 161 160 q 247 153 208 160 l 160 -157 q 126 -160 143 -160 q 93 -161 108 -161 q 60 -160 76 -161 q 28 -157 43 -160 l 110 153 z "},"-":{"ha":501,"x_min":65,"x_max":436,"o":"m 431 453 q 435 422 433 439 q 436 389 436 404 q 435 356 436 374 q 431 326 433 339 l 71 326 q 67 356 68 339 q 65 389 65 374 q 67 422 65 404 q 71 453 68 439 l 431 453 z "},".":{"ha":335,"x_min":83,"x_max":251,"o":"m 90 0 q 85 38 88 19 q 83 76 83 57 q 85 116 83 96 q 90 156 88 136 q 128 160 110 158 q 167 161 147 161 q 206 160 186 161 q 244 156 225 158 q 249 117 247 136 q 251 78 251 97 q 249 39 251 58 q 244 0 247 19 q 206 -4 225 -3 q 168 -6 188 -6 q 129 -4 149 -6 q 90 0 110 -3 z "},"/":{"ha":569,"x_min":49,"x_max":521,"o":"m 386 999 q 419 1003 403 1001 q 453 1004 435 1004 q 485 1003 468 1004 q 521 999 503 1001 l 182 0 q 149 -4 165 -3 q 114 -6 132 -6 q 82 -4 99 -6 q 49 0 65 -3 l 386 999 z "},":":{"ha":335,"x_min":83,"x_max":251,"o":"m 90 560 q 85 598 88 579 q 83 636 83 617 q 85 676 83 656 q 90 715 88 696 q 128 719 110 718 q 167 721 147 721 q 206 719 186 721 q 244 715 225 718 q 249 676 247 696 q 251 638 251 657 q 249 599 251 618 q 244 560 247 579 q 206 556 225 557 q 168 554 188 554 q 129 556 149 554 q 90 560 110 557 m 90 0 q 85 38 88 19 q 83 76 83 57 q 85 116 83 96 q 90 156 88 136 q 128 160 110 158 q 167 161 147 161 q 206 160 186 161 q 244 156 225 158 q 249 117 247 136 q 251 78 251 97 q 249 39 251 58 q 244 0 247 19 q 206 -4 225 -3 q 168 -6 188 -6 q 129 -4 149 -6 q 90 0 110 -3 z "},";":{"ha":361,"x_min":40,"x_max":276,"o":"m 122 153 q 156 158 139 156 q 189 160 174 160 q 260 153 221 160 l 172 -157 q 138 -160 156 -160 q 106 -161 121 -161 q 72 -160 89 -161 q 40 -157 56 -160 l 122 153 m 115 560 q 110 598 113 579 q 108 636 108 617 q 110 676 108 656 q 115 715 113 696 q 153 719 135 718 q 192 721 172 721 q 231 719 211 721 q 269 715 250 718 q 274 676 272 696 q 276 638 276 657 q 274 599 276 618 q 269 560 272 579 q 231 556 250 557 q 193 554 213 554 q 154 556 174 554 q 115 560 135 557 z "},"<":{"ha":833,"x_min":124,"x_max":717,"o":"m 710 786 q 717 722 717 747 q 715 685 717 703 q 711 654 714 668 l 256 478 l 711 308 q 715 276 714 293 q 717 243 717 260 q 715 204 717 222 q 710 169 714 186 l 132 404 q 124 481 124 439 q 132 551 124 518 l 710 786 z "},"=":{"ha":833,"x_min":118,"x_max":717,"o":"m 711 679 q 715 648 714 665 q 717 615 717 631 q 715 583 717 600 q 711 553 714 565 l 122 553 q 119 583 119 565 q 118 615 118 600 q 119 648 118 631 q 122 679 119 665 l 711 679 m 711 414 q 715 383 714 400 q 717 350 717 365 q 715 317 717 335 q 711 288 714 300 l 122 288 q 119 317 119 300 q 118 350 118 335 q 119 383 118 365 q 122 414 119 400 l 711 414 z "},">":{"ha":833,"x_min":117,"x_max":711,"o":"m 124 169 q 119 205 121 189 q 118 233 118 221 q 119 270 118 253 q 124 301 121 288 l 578 478 l 124 647 q 118 680 119 663 q 117 713 117 697 q 119 753 117 735 q 124 786 121 771 l 703 551 q 708 515 706 533 q 711 475 711 497 q 703 404 711 438 l 124 169 z "},"?":{"ha":678,"x_min":60,"x_max":624,"o":"m 253 522 q 347 553 306 536 q 418 595 389 571 q 463 651 447 619 q 478 728 478 683 q 425 839 478 799 q 274 879 372 879 q 173 870 211 879 q 94 846 135 861 q 73 901 82 872 q 60 961 64 929 q 122 980 93 972 q 177 992 150 988 q 232 998 204 996 q 292 1000 260 1000 q 540 926 456 1000 q 624 729 624 851 q 595 608 624 658 q 528 523 567 557 q 450 469 490 489 q 385 440 410 449 l 385 297 q 317 292 353 292 q 285 293 301 292 q 253 297 268 294 l 253 522 m 240 1 q 236 40 238 21 q 235 78 235 58 q 236 117 235 97 q 240 156 238 136 q 279 160 260 158 q 318 163 299 163 q 357 160 338 163 q 396 156 376 158 q 400 117 399 136 q 401 79 401 99 q 400 40 401 60 q 396 1 399 21 q 358 -3 378 -1 q 319 -4 339 -4 q 278 -3 300 -4 q 240 1 256 -1 z "},"@":{"ha":1408,"x_min":78,"x_max":1332,"o":"m 1332 546 q 1306 376 1332 460 q 1231 226 1281 293 q 1113 119 1182 160 q 956 78 1043 78 q 803 121 858 78 q 713 83 763 97 q 603 69 663 69 q 447 128 506 69 q 388 290 388 188 q 419 465 388 385 q 506 602 451 544 q 633 692 560 660 q 788 725 706 725 q 894 717 843 725 q 993 693 944 708 l 893 197 q 927 183 907 186 q 967 179 947 179 q 1069 213 1025 179 q 1145 301 1114 247 q 1192 419 1176 354 q 1208 546 1208 483 q 1104 814 1208 722 q 811 906 1000 906 q 554 855 667 906 q 365 719 442 804 q 247 526 288 635 q 207 303 207 418 q 238 117 207 194 q 324 -10 269 39 q 451 -83 378 -60 q 610 -107 525 -107 q 738 -97 678 -107 q 846 -68 797 -86 q 863 -112 854 -87 q 876 -165 871 -136 q 607 -212 775 -212 q 402 -182 499 -212 q 233 -88 306 -151 q 119 71 161 -25 q 78 297 78 167 q 122 549 78 422 q 257 780 165 676 q 490 949 349 883 q 825 1014 631 1014 q 1023 985 931 1014 q 1184 899 1115 957 q 1292 752 1253 840 q 1332 546 1332 664 m 844 606 q 811 612 826 610 q 779 614 796 614 q 678 591 725 614 q 598 528 632 568 q 544 433 564 488 q 525 317 525 379 q 556 213 525 246 q 650 179 588 179 q 708 185 682 179 q 768 206 735 190 l 844 606 z "},"A":{"ha":857,"x_min":22,"x_max":833,"o":"m 614 231 l 235 231 l 167 0 q 131 -4 149 -3 q 94 -6 113 -6 q 56 -4 75 -6 q 22 0 38 -3 l 347 999 q 386 1003 365 1001 q 429 1004 407 1004 q 469 1003 449 1004 q 510 999 490 1001 l 833 0 q 796 -4 817 -3 q 756 -6 775 -6 q 719 -4 738 -6 q 683 0 700 -3 l 614 231 m 272 354 l 576 354 l 424 864 l 272 354 z "},"B":{"ha":826,"x_min":124,"x_max":764,"o":"m 124 999 q 221 1010 158 1006 q 347 1014 283 1014 q 492 1000 426 1014 q 603 955 557 986 q 676 874 650 924 q 701 754 701 825 q 688 674 701 711 q 653 609 675 638 q 601 562 631 581 q 542 535 572 543 q 620 514 581 531 q 692 467 660 497 q 744 390 724 436 q 764 276 764 343 q 732 140 764 196 q 645 49 700 83 q 516 -1 590 14 q 357 -17 442 -17 q 242 -12 304 -17 q 124 0 179 -7 l 124 999 m 264 110 q 313 106 283 107 q 372 104 343 104 q 466 113 422 104 q 543 141 510 121 q 596 195 576 161 q 615 282 615 229 q 597 369 615 333 q 548 426 579 404 q 474 456 517 447 q 381 465 431 465 l 264 465 l 264 110 m 365 582 q 510 623 460 582 q 560 746 560 664 q 506 864 560 825 q 361 903 453 903 q 308 901 333 903 q 264 897 282 900 l 264 582 l 365 582 z "},"C":{"ha":858,"x_min":82,"x_max":799,"o":"m 760 146 q 799 31 790 86 q 679 -6 740 6 q 547 -17 618 -17 q 352 19 439 -17 q 206 120 265 54 q 114 281 146 186 q 82 493 82 375 q 114 709 82 613 q 206 874 146 806 q 351 978 265 942 q 544 1015 438 1015 q 681 1004 624 1015 q 782 978 738 993 q 770 919 779 946 q 749 861 761 892 q 708 874 728 868 q 667 883 689 879 q 617 890 644 888 q 556 892 590 892 q 320 789 404 892 q 236 493 236 686 q 260 322 236 394 q 326 203 283 250 q 430 132 369 156 q 565 108 490 108 q 671 118 624 108 q 760 146 718 128 z "},"D":{"ha":971,"x_min":124,"x_max":890,"o":"m 124 999 q 238 1009 171 1004 q 368 1014 304 1014 q 760 881 631 1014 q 890 497 890 747 q 758 110 890 236 q 363 -17 625 -17 q 233 -12 297 -17 q 124 0 169 -7 l 124 999 m 265 117 q 313 112 285 114 q 374 110 342 110 q 523 128 456 110 q 639 192 590 147 q 714 312 688 236 q 740 501 740 388 q 714 679 740 606 q 640 799 688 753 q 525 867 592 846 q 378 888 458 888 q 320 887 351 888 q 265 882 289 886 l 265 117 z "},"E":{"ha":744,"x_min":122,"x_max":686,"o":"m 122 999 l 671 999 q 675 938 675 971 q 674 906 675 922 q 671 875 674 889 l 264 875 l 264 589 l 589 589 q 593 559 592 575 q 594 528 594 543 q 593 496 594 513 q 589 465 592 479 l 264 465 l 264 124 l 682 124 q 686 63 686 96 q 685 31 686 47 q 682 0 685 14 l 122 0 l 122 999 z "},"F":{"ha":700,"x_min":122,"x_max":650,"o":"m 122 999 l 644 999 q 649 969 647 985 q 650 938 650 953 q 649 906 650 922 q 644 875 647 889 l 264 875 l 264 582 l 582 582 q 586 551 585 567 q 588 519 588 535 q 586 488 588 504 q 582 457 585 472 l 264 457 l 264 0 q 230 -4 247 -3 q 193 -6 213 -6 q 156 -4 175 -6 q 122 0 138 -3 l 122 999 z "},"G":{"ha":946,"x_min":82,"x_max":840,"o":"m 700 517 q 735 521 717 519 q 771 522 753 522 q 807 521 789 522 q 840 517 825 519 l 840 29 q 776 8 811 17 q 704 -6 742 -1 q 629 -14 667 -11 q 558 -17 592 -17 q 358 18 447 -17 q 208 119 269 53 q 115 279 147 185 q 82 493 82 374 q 115 709 82 613 q 210 874 149 806 q 358 978 272 942 q 547 1015 443 1015 q 685 1005 626 1015 q 790 976 743 994 q 778 917 788 944 q 757 860 769 890 q 673 882 718 872 q 560 892 628 892 q 426 865 486 892 q 323 788 365 839 q 257 663 281 738 q 233 493 233 589 q 258 323 233 394 q 326 203 282 251 q 431 133 371 156 q 565 110 492 110 q 643 115 610 110 q 700 126 676 119 l 700 517 z "},"H":{"ha":953,"x_min":122,"x_max":831,"o":"m 122 999 q 157 1003 139 1001 q 193 1004 175 1004 q 229 1003 211 1004 q 264 999 247 1001 l 264 588 l 689 588 l 689 999 q 722 1003 704 1001 q 758 1004 740 1004 q 795 1003 776 1004 q 831 999 814 1001 l 831 0 q 797 -4 815 -3 q 760 -6 779 -6 q 723 -4 742 -6 q 689 0 704 -3 l 689 463 l 264 463 l 264 0 q 230 -4 247 -3 q 193 -6 213 -6 q 156 -4 175 -6 q 122 0 138 -3 l 122 999 z "},"I":{"ha":386,"x_min":122,"x_max":264,"o":"m 122 999 q 157 1003 139 1001 q 193 1004 175 1004 q 229 1003 211 1004 q 264 999 247 1001 l 264 0 q 230 -4 247 -3 q 193 -6 213 -6 q 156 -4 175 -6 q 122 0 138 -3 l 122 999 z "},"J":{"ha":550,"x_min":39,"x_max":435,"o":"m 293 875 l 118 875 q 114 906 115 889 q 113 938 113 922 q 114 969 113 953 q 118 999 115 985 l 435 999 l 435 278 q 417 138 435 194 q 364 47 399 81 q 279 -2 329 13 q 167 -17 229 -17 q 100 -12 133 -17 q 39 0 67 -7 q 44 58 39 28 q 61 121 50 89 q 99 112 78 117 q 144 107 121 107 q 195 111 169 107 q 243 129 221 115 q 279 171 265 143 q 293 246 293 199 l 293 875 z "},"K":{"ha":835,"x_min":122,"x_max":821,"o":"m 306 507 l 626 999 q 665 1003 646 1001 q 699 1004 683 1004 q 738 1003 717 1004 q 781 999 758 1001 l 464 519 l 821 0 q 777 -4 799 -3 q 736 -6 756 -6 q 700 -4 719 -6 q 660 0 681 -3 l 306 507 m 122 999 q 157 1003 139 1001 q 193 1004 175 1004 q 229 1003 211 1004 q 264 999 247 1001 l 264 0 q 229 -4 247 -3 q 193 -6 211 -6 q 156 -4 174 -6 q 122 0 138 -3 l 122 999 z "},"L":{"ha":688,"x_min":122,"x_max":658,"o":"m 122 999 q 155 1003 138 1001 q 192 1004 172 1004 q 228 1003 210 1004 q 263 999 246 1001 l 263 125 l 654 125 q 658 93 657 110 q 658 63 658 76 q 654 0 658 29 l 122 0 l 122 999 z "},"M":{"ha":1133,"x_min":106,"x_max":1028,"o":"m 150 999 q 188 1003 167 1001 q 229 1004 210 1004 q 272 1003 249 1004 q 310 999 294 1001 l 568 374 l 828 999 q 863 1003 842 1001 q 903 1004 883 1004 q 943 1003 921 1004 q 981 999 965 1001 l 1028 0 q 994 -4 1011 -3 q 958 -6 976 -6 q 923 -4 940 -6 q 890 0 906 -3 l 858 776 l 614 207 q 557 203 586 203 q 504 207 531 203 l 268 781 l 236 0 q 204 -4 221 -3 q 172 -6 188 -6 q 138 -4 154 -6 q 106 0 121 -3 l 150 999 z "},"N":{"ha":944,"x_min":122,"x_max":822,"o":"m 122 999 q 155 1003 138 1001 q 188 1004 172 1004 q 220 1003 203 1004 q 253 999 238 1001 l 688 249 l 688 999 q 722 1003 704 1001 q 758 1004 740 1004 q 790 1003 774 1004 q 822 999 807 1001 l 822 0 q 790 -4 807 -3 q 757 -6 772 -6 q 724 -4 742 -6 q 692 0 707 -3 l 256 746 l 256 0 q 223 -4 240 -3 q 189 -6 206 -6 q 153 -4 171 -6 q 122 0 136 -3 l 122 999 z "},"O":{"ha":1013,"x_min":85,"x_max":928,"o":"m 507 -17 q 319 22 399 -17 q 188 128 240 60 q 110 292 136 197 q 85 499 85 386 q 110 706 85 611 q 188 869 136 800 q 319 976 240 938 q 507 1015 399 1015 q 694 976 615 1015 q 826 869 774 938 q 903 706 878 800 q 928 499 928 611 q 903 292 928 386 q 826 128 878 197 q 694 22 774 60 q 507 -17 615 -17 m 507 106 q 627 133 576 106 q 711 211 678 160 q 761 335 744 263 q 778 499 778 407 q 761 662 778 589 q 711 785 744 735 q 627 863 678 836 q 507 890 576 890 q 387 863 438 890 q 303 785 336 836 q 253 662 269 735 q 236 499 236 589 q 253 335 236 407 q 303 211 269 263 q 387 133 336 160 q 507 106 438 106 z "},"P":{"ha":786,"x_min":122,"x_max":733,"o":"m 122 1000 q 172 1006 143 1003 q 231 1010 200 1008 q 294 1014 263 1013 q 354 1015 325 1015 q 499 1000 431 1015 q 620 947 568 985 q 703 848 672 910 q 733 693 733 786 q 701 531 733 596 q 615 428 668 467 q 493 373 561 389 q 354 357 425 357 q 308 358 328 357 q 264 361 288 358 l 264 0 q 193 -4 231 -4 q 158 -3 176 -4 q 122 0 139 -3 l 122 1000 m 264 485 q 303 481 286 482 q 351 479 319 479 q 437 488 394 479 q 513 521 479 497 q 566 585 546 544 q 586 692 586 626 q 569 788 586 749 q 521 850 551 826 q 447 883 490 874 q 354 893 404 893 q 264 889 303 893 l 264 485 z "},"Q":{"ha":1006,"x_min":81,"x_max":938,"o":"m 938 -90 q 931 -153 936 -122 q 914 -214 926 -185 l 594 -154 q 603 -90 597 -115 q 619 -35 608 -65 l 938 -90 m 503 -17 q 315 22 394 -17 q 184 128 236 60 q 106 292 132 197 q 81 499 81 386 q 106 706 81 611 q 184 869 132 800 q 315 976 236 938 q 503 1015 394 1015 q 690 976 611 1015 q 822 869 769 938 q 899 706 874 800 q 924 499 924 611 q 899 292 924 386 q 822 128 874 197 q 690 22 769 60 q 503 -17 611 -17 m 503 106 q 623 133 572 106 q 707 211 674 160 q 757 335 740 263 q 774 499 774 407 q 757 662 774 589 q 707 785 740 735 q 623 863 674 836 q 503 890 572 890 q 383 863 433 890 q 299 785 332 836 q 249 662 265 735 q 232 499 232 589 q 249 335 232 407 q 299 211 265 263 q 383 133 332 160 q 503 106 433 106 z "},"R":{"ha":829,"x_min":125,"x_max":803,"o":"m 125 1000 q 181 1006 156 1003 q 230 1010 206 1008 q 281 1014 254 1013 q 339 1015 307 1015 q 479 1001 410 1015 q 603 953 549 988 q 691 859 657 918 q 725 710 725 800 q 707 611 725 656 q 661 532 689 567 q 598 472 633 497 q 529 429 563 446 l 513 421 l 803 0 q 718 -4 765 -4 q 643 0 681 -4 l 324 463 l 324 468 l 335 471 q 414 497 372 481 q 491 541 456 514 q 550 606 526 568 q 574 699 574 644 q 515 847 574 799 q 356 896 456 896 q 312 894 332 896 q 267 890 292 893 l 267 0 q 233 -3 251 -1 q 197 -4 214 -4 q 161 -3 181 -4 q 125 0 142 -3 l 125 1000 z "},"S":{"ha":757,"x_min":64,"x_max":696,"o":"m 97 151 q 193 122 143 135 q 315 110 243 110 q 485 156 429 110 q 542 282 542 203 q 530 349 542 321 q 494 397 518 376 q 435 433 471 417 q 353 469 400 450 l 274 501 q 200 538 233 518 q 142 588 167 558 q 104 655 118 617 q 90 746 90 693 q 176 944 90 872 q 418 1015 263 1015 q 544 1004 485 1015 q 650 976 604 993 q 619 861 643 918 q 533 886 582 875 q 421 897 483 897 q 286 862 333 897 q 239 756 239 826 q 251 703 239 726 q 282 663 263 681 q 328 632 301 646 q 383 607 354 618 l 461 576 q 560 530 517 554 q 633 473 603 506 q 680 396 664 440 q 696 292 696 351 q 597 66 696 149 q 321 -17 499 -17 q 243 -14 278 -17 q 178 -6 208 -11 q 121 8 149 0 q 64 26 93 17 q 76 89 67 57 q 97 151 86 121 z "},"T":{"ha":731,"x_min":29,"x_max":701,"o":"m 294 875 l 35 875 q 31 906 32 889 q 29 938 29 922 q 31 969 29 953 q 35 999 32 985 l 696 999 q 700 969 699 985 q 701 939 701 954 q 700 906 701 924 q 696 875 699 889 l 436 875 l 436 0 q 367 -4 404 -4 q 294 0 328 -4 l 294 875 z "},"U":{"ha":936,"x_min":113,"x_max":824,"o":"m 113 999 q 185 1003 146 1003 q 254 999 222 1003 l 254 432 q 265 285 254 346 q 301 185 276 224 q 367 129 326 147 q 468 111 408 111 q 568 129 528 111 q 633 185 608 147 q 669 285 658 224 q 681 432 681 346 l 681 999 q 751 1003 715 1003 q 824 999 790 1003 l 824 407 q 805 228 824 307 q 744 94 786 149 q 633 12 701 40 q 468 -17 565 -17 q 303 12 371 -17 q 192 94 235 40 q 131 228 150 149 q 113 407 113 307 l 113 999 z "},"V":{"ha":874,"x_min":31,"x_max":843,"o":"m 31 999 q 67 1003 46 1001 q 108 1004 89 1004 q 148 1003 126 1004 q 188 999 169 1001 l 440 144 l 692 999 q 768 1003 729 1003 q 806 1002 786 1003 q 843 999 826 1001 l 518 0 q 478 -4 500 -3 q 436 -6 456 -6 q 395 -4 417 -6 q 354 0 374 -3 l 31 999 z "},"W":{"ha":1279,"x_min":38,"x_max":1242,"o":"m 38 999 q 76 1003 53 1001 q 118 1004 99 1004 q 158 1003 138 1004 q 194 999 178 1001 l 365 167 l 571 999 q 608 1003 588 1001 q 646 1004 628 1004 q 683 1003 663 1004 q 719 999 704 1001 l 926 158 l 1100 999 q 1133 1003 1115 1001 q 1167 1004 1150 1004 q 1206 1003 1186 1004 q 1242 999 1226 1001 l 1001 0 q 963 -4 985 -3 q 922 -6 940 -6 q 879 -4 903 -6 q 836 0 856 -3 l 639 782 l 439 0 q 397 -4 419 -3 q 354 -6 374 -6 q 316 -4 338 -6 q 278 0 294 -3 l 38 999 z "},"X":{"ha":846,"x_min":29,"x_max":815,"o":"m 417 522 l 179 0 q 106 -4 139 -4 q 29 0 71 -4 l 276 522 l 68 997 q 107 1001 89 1000 q 144 1001 125 1001 q 218 997 182 1001 l 417 522 m 428 522 l 626 997 q 656 1000 642 999 q 685 1001 669 1001 l 722 1001 q 749 1001 738 1001 q 775 997 760 1000 l 567 526 l 815 0 q 739 -4 774 -4 q 665 0 708 -4 l 428 522 z "},"Y":{"ha":822,"x_min":25,"x_max":797,"o":"m 342 365 l 25 999 q 64 1003 43 1001 q 106 1004 85 1004 q 145 1003 124 1004 q 183 999 167 1001 l 417 503 l 647 999 q 683 1003 665 1001 q 721 1004 701 1004 q 760 1003 740 1004 q 797 999 779 1001 l 485 365 l 485 0 q 449 -4 467 -3 q 413 -6 431 -6 q 376 -4 394 -6 q 342 0 357 -3 l 342 365 z "},"Z":{"ha":786,"x_min":33,"x_max":754,"o":"m 33 13 l 536 875 l 96 875 q 92 904 93 888 q 90 936 90 921 q 92 968 90 951 q 96 999 93 985 l 744 999 l 754 986 l 250 124 l 718 124 q 722 94 721 111 q 724 61 724 76 q 722 29 724 46 q 718 0 721 13 l 42 0 l 33 13 z "},"[":{"ha":443,"x_min":69,"x_max":374,"o":"m 69 1056 l 368 1056 q 372 1027 371 1040 q 374 999 374 1014 q 372 969 374 983 q 368 943 371 956 l 206 943 l 206 -121 l 368 -121 q 372 -148 371 -135 q 374 -176 374 -161 q 372 -206 374 -192 q 368 -233 371 -219 l 69 -233 l 69 1056 z "},"\\":{"ha":572,"x_min":44,"x_max":518,"o":"m 518 0 q 485 -4 501 -3 q 453 -6 468 -6 q 417 -4 435 -6 q 383 0 400 -3 l 44 999 q 78 1003 60 1001 q 113 1004 96 1004 q 147 1003 129 1004 q 181 999 165 1001 l 518 0 z "},"]":{"ha":443,"x_min":69,"x_max":374,"o":"m 75 -233 q 69 -176 69 -207 q 75 -121 69 -144 l 238 -121 l 238 942 l 75 942 q 71 964 72 953 q 69 986 69 975 q 75 1056 69 1024 l 374 1056 l 374 -233 l 75 -233 z "},"^":{"ha":764,"x_min":85,"x_max":676,"o":"m 310 999 q 345 1003 326 1001 q 379 1004 364 1004 q 416 1003 397 1004 q 454 999 435 1001 l 676 511 q 641 508 657 508 q 610 507 625 507 q 578 507 594 507 q 547 510 563 507 l 378 882 l 215 510 q 183 507 200 507 q 151 507 167 507 q 121 508 138 507 q 85 511 104 508 l 310 999 z "},"_":{"ha":701,"x_min":1,"x_max":700,"o":"m 694 -21 q 700 -72 700 -44 q 694 -122 700 -99 l 8 -122 q 3 -96 4 -108 q 1 -69 1 -83 q 3 -46 1 -58 q 8 -21 4 -33 l 694 -21 z "},"`":{"ha":694,"x_min":179,"x_max":515,"o":"m 179 1001 q 221 1006 200 1004 q 267 1007 242 1007 q 312 1006 289 1007 q 356 1001 335 1004 l 515 825 q 450 819 483 819 q 410 821 429 819 q 376 825 392 822 l 179 1001 z "},"a":{"ha":718,"x_min":67,"x_max":622,"o":"m 488 335 q 435 340 467 338 q 381 343 403 343 q 249 311 294 343 q 204 214 204 279 q 219 149 204 172 q 258 113 235 125 q 308 97 281 100 q 361 94 336 94 q 427 98 393 94 q 488 108 461 101 l 488 335 m 488 469 q 446 583 488 551 q 325 615 404 615 q 234 608 276 615 q 151 588 192 600 q 125 697 125 633 q 229 721 172 713 q 339 729 286 729 q 550 666 478 729 q 622 464 622 603 l 622 18 q 504 -5 574 7 q 363 -17 435 -17 q 240 -4 294 -17 q 147 36 185 8 q 88 107 108 64 q 67 211 67 150 q 91 316 67 271 q 157 391 115 361 q 253 435 199 421 q 367 450 307 450 q 440 448 411 450 q 488 443 468 446 l 488 469 z "},"b":{"ha":819,"x_min":110,"x_max":746,"o":"m 110 1018 q 144 1022 125 1021 q 178 1024 163 1024 q 213 1022 193 1024 q 247 1018 232 1021 l 247 626 q 325 699 272 668 q 453 729 378 729 q 571 708 517 729 q 664 644 625 688 q 724 533 703 600 q 746 374 746 465 q 642 87 746 190 q 344 -17 539 -17 q 219 -5 283 -17 q 110 22 154 7 l 110 1018 m 247 115 q 301 103 272 107 q 360 100 329 100 q 455 116 411 100 q 531 165 499 132 q 581 248 563 197 q 600 368 600 299 q 560 547 600 483 q 426 611 519 611 q 363 601 394 611 q 306 567 332 590 q 263 506 279 544 q 247 414 247 468 l 247 115 z "},"c":{"ha":664,"x_min":69,"x_max":615,"o":"m 586 124 q 606 75 597 104 q 615 15 614 46 q 428 -17 533 -17 q 160 84 250 -17 q 69 356 69 185 q 92 503 69 435 q 158 621 114 571 q 267 700 201 671 q 418 729 332 729 q 521 722 476 729 q 606 700 565 715 q 599 645 606 676 q 582 590 593 614 q 426 614 514 614 q 267 543 319 614 q 214 356 214 472 q 274 160 214 222 q 438 99 333 99 q 515 104 479 99 q 586 124 550 110 z "},"d":{"ha":814,"x_min":72,"x_max":704,"o":"m 568 1018 q 603 1022 583 1021 q 636 1024 622 1024 q 670 1022 651 1024 q 704 1018 689 1021 l 704 19 q 586 -6 651 4 q 440 -17 521 -17 q 298 2 365 -17 q 181 64 231 21 q 101 175 131 107 q 72 343 72 243 q 98 500 72 429 q 171 622 124 571 q 284 700 218 672 q 431 728 350 728 q 503 722 467 728 q 568 708 540 717 l 568 1018 m 568 592 q 508 608 540 603 q 439 614 476 614 q 340 593 382 614 q 272 536 299 572 q 231 451 244 500 q 218 343 218 401 q 281 154 219 211 q 447 97 342 97 q 514 101 483 97 q 568 111 544 104 l 568 592 z "},"e":{"ha":772,"x_min":68,"x_max":703,"o":"m 214 322 q 274 151 217 206 q 444 97 332 97 q 632 132 543 97 q 650 81 643 111 q 658 22 657 51 q 558 -7 613 3 q 436 -17 503 -17 q 269 10 339 -17 q 155 87 200 38 q 89 203 110 136 q 68 351 68 271 q 88 499 68 431 q 150 619 108 568 q 255 699 192 669 q 404 729 318 729 q 533 704 478 729 q 626 635 589 679 q 683 531 664 592 q 703 400 703 471 q 701 359 703 381 q 699 322 700 338 l 214 322 m 567 425 q 556 499 567 464 q 526 561 546 535 q 474 603 506 588 q 400 619 443 619 q 270 568 315 619 q 215 425 225 517 l 567 425 z "},"f":{"ha":514,"x_min":38,"x_max":529,"o":"m 160 604 l 43 604 q 38 658 38 626 q 43 713 38 689 l 160 713 l 160 763 q 226 963 160 894 q 418 1032 292 1032 q 479 1028 453 1032 q 529 1018 506 1025 q 522 958 526 983 q 508 907 517 933 q 476 913 494 910 q 431 917 457 917 q 376 910 400 917 q 334 887 351 904 q 307 838 317 869 q 297 758 297 807 l 297 713 l 479 713 q 483 656 483 685 q 479 604 483 629 l 297 604 l 297 0 q 263 -4 282 -3 q 229 -6 244 -6 q 194 -4 214 -6 q 160 0 175 -3 l 160 604 z "},"g":{"ha":768,"x_min":51,"x_max":754,"o":"m 493 92 q 672 39 617 89 q 728 -99 728 -11 q 699 -201 728 -156 q 618 -278 669 -246 q 497 -328 567 -311 q 344 -346 426 -346 q 126 -301 201 -346 q 51 -161 51 -257 q 82 -59 51 -104 q 161 13 113 -14 q 115 58 133 31 q 96 125 96 85 q 119 214 96 176 q 181 281 142 251 q 107 363 135 313 q 79 478 79 414 q 99 576 79 531 q 155 656 118 622 q 246 710 192 690 q 369 729 300 729 q 483 711 432 729 q 569 665 533 693 q 644 702 597 688 q 749 717 692 717 q 754 658 754 690 q 753 626 754 643 q 749 593 751 610 l 624 593 q 647 542 639 569 q 656 478 656 514 q 635 375 656 421 q 576 297 614 329 q 485 247 538 264 q 369 229 432 229 q 267 242 313 229 q 228 208 247 231 q 210 158 210 185 q 228 115 210 133 q 308 94 246 96 l 493 92 m 306 -18 q 212 -51 243 -17 q 181 -135 181 -86 q 193 -185 181 -165 q 228 -216 206 -204 q 283 -233 251 -228 q 351 -237 314 -237 q 525 -201 463 -237 q 588 -108 588 -164 q 561 -44 588 -67 q 464 -21 535 -22 l 306 -18 m 369 329 q 481 371 444 329 q 517 478 517 413 q 481 587 517 544 q 369 629 444 629 q 259 587 294 629 q 224 478 224 544 q 259 371 224 413 q 369 329 294 329 z "},"h":{"ha":803,"x_min":110,"x_max":706,"o":"m 110 1018 q 144 1022 125 1021 q 178 1024 163 1024 q 213 1022 193 1024 q 247 1018 232 1021 l 247 604 q 278 646 260 624 q 324 687 297 668 q 387 717 351 706 q 465 729 422 729 q 647 659 588 729 q 706 451 706 589 l 706 0 q 672 -4 690 -3 q 638 -6 653 -6 q 603 -4 622 -6 q 569 0 585 -3 l 569 414 q 537 559 569 513 q 438 606 504 606 q 365 592 400 606 q 304 551 331 579 q 263 476 278 522 q 247 365 247 431 l 247 0 q 213 -4 232 -3 q 178 -6 193 -6 q 144 -4 164 -6 q 110 0 125 -3 l 110 1018 z "},"i":{"ha":400,"x_min":57,"x_max":288,"o":"m 153 604 l 63 604 q 58 630 60 615 q 57 658 57 644 q 58 687 57 672 q 63 713 60 701 l 288 713 l 288 0 q 253 -4 272 -3 q 219 -6 235 -6 q 187 -4 206 -6 q 153 0 168 -3 l 153 604 m 122 869 q 119 906 119 886 q 118 940 118 925 q 119 975 118 956 q 122 1010 119 994 q 161 1014 140 1013 q 197 1015 182 1015 q 233 1014 213 1015 q 271 1010 254 1013 q 274 975 274 994 q 275 940 275 956 q 274 906 275 925 q 271 869 274 886 q 234 865 254 867 q 199 864 214 864 q 161 865 182 864 q 122 869 140 867 z "},"j":{"ha":403,"x_min":-56,"x_max":292,"o":"m 157 604 l 67 604 q 63 630 64 615 q 61 658 61 644 q 63 687 61 672 q 67 713 64 701 l 292 713 l 292 -40 q 275 -144 292 -103 q 228 -212 258 -186 q 158 -249 199 -237 q 71 -260 118 -260 q -56 -242 -4 -260 q -49 -187 -54 -215 q -33 -137 -43 -160 q 44 -149 0 -149 q 82 -146 63 -149 q 118 -131 101 -143 q 146 -96 135 -119 q 157 -31 157 -72 l 157 604 m 124 871 q 119 908 121 890 q 118 940 118 925 q 119 973 118 956 q 124 1008 121 990 q 163 1013 142 1011 q 199 1015 183 1015 q 234 1013 214 1015 q 271 1008 254 1011 q 275 973 274 990 q 276 940 276 956 q 275 908 276 925 q 271 871 274 890 q 234 866 254 868 q 199 864 214 864 q 163 866 183 864 q 124 871 142 868 z "},"k":{"ha":714,"x_min":106,"x_max":697,"o":"m 106 1018 q 140 1022 121 1021 q 174 1024 158 1024 q 208 1022 189 1024 q 243 1018 228 1021 l 243 0 q 208 -4 228 -3 q 174 -6 189 -6 q 140 -4 158 -6 q 106 0 121 -3 l 106 1018 m 281 369 l 507 713 q 543 717 525 715 q 581 718 561 718 q 620 717 601 718 q 658 713 639 715 l 432 379 l 697 0 q 660 -4 678 -3 q 622 -6 642 -6 q 583 -4 603 -6 q 544 0 564 -3 l 281 369 z "},"l":{"ha":414,"x_min":108,"x_max":400,"o":"m 108 1018 q 142 1022 124 1021 q 176 1024 161 1024 q 210 1022 192 1024 q 244 1018 229 1021 l 244 215 q 251 154 244 176 q 270 120 258 132 q 298 105 282 108 q 332 101 314 101 q 360 103 344 101 q 388 107 376 104 q 400 1 400 58 q 353 -8 381 -6 q 301 -10 325 -10 q 226 0 261 -10 q 165 32 192 10 q 124 92 139 54 q 108 185 108 129 l 108 1018 z "},"m":{"ha":1186,"x_min":111,"x_max":1090,"o":"m 111 713 q 141 717 126 715 q 171 718 156 718 q 199 717 186 718 q 228 713 213 715 q 236 658 232 692 q 240 600 240 624 q 272 648 253 625 q 316 689 290 671 q 375 718 342 707 q 449 729 408 729 q 577 695 532 729 q 646 600 622 661 q 680 647 660 624 q 725 689 700 671 q 782 718 750 707 q 854 729 814 729 q 1034 660 978 729 q 1090 454 1090 590 l 1090 0 q 1056 -4 1075 -3 q 1021 -6 1036 -6 q 987 -4 1006 -6 q 953 0 968 -3 l 953 414 q 924 558 953 510 q 828 606 894 606 q 713 554 757 606 q 669 403 669 503 l 669 0 q 635 -4 654 -3 q 601 -6 617 -6 q 567 -4 586 -6 q 533 0 549 -3 l 533 424 q 506 563 533 517 q 417 610 478 610 q 351 594 382 610 q 298 549 321 579 q 262 472 275 518 q 249 364 249 425 l 249 0 q 215 -4 233 -3 q 181 -6 196 -6 q 146 -4 165 -6 q 111 0 126 -3 l 111 713 z "},"n":{"ha":803,"x_min":111,"x_max":707,"o":"m 111 713 q 141 717 126 715 q 171 718 156 718 q 199 717 186 718 q 228 713 213 715 q 236 656 232 692 q 240 597 240 621 q 276 644 254 621 q 325 687 297 668 q 389 717 353 706 q 468 729 425 729 q 649 659 590 729 q 707 451 707 589 l 707 0 q 672 -4 692 -3 q 638 -6 653 -6 q 603 -4 622 -6 q 569 0 585 -3 l 569 414 q 539 559 569 513 q 442 606 508 606 q 368 592 403 606 q 307 549 333 578 q 265 473 281 519 q 249 361 249 426 l 249 0 q 215 -4 233 -3 q 181 -6 196 -6 q 146 -4 165 -6 q 111 0 126 -3 l 111 713 z "},"o":{"ha":801,"x_min":68,"x_max":732,"o":"m 400 -17 q 254 12 317 -17 q 150 90 192 40 q 88 208 108 140 q 68 356 68 276 q 88 503 68 435 q 150 621 108 571 q 254 700 192 671 q 400 729 317 729 q 546 700 483 729 q 650 621 608 671 q 712 503 692 571 q 732 356 732 435 q 712 208 732 276 q 650 90 692 140 q 546 12 608 40 q 400 -17 483 -17 m 400 93 q 542 163 496 93 q 588 356 588 232 q 542 548 588 479 q 400 617 496 617 q 259 548 304 617 q 214 356 214 479 q 259 163 214 232 q 400 93 304 93 z "},"p":{"ha":819,"x_min":110,"x_max":746,"o":"m 110 713 q 138 717 124 715 q 168 718 153 718 q 197 717 182 718 q 226 713 213 715 q 230 695 228 710 q 234 664 232 681 q 238 632 236 647 q 240 613 240 617 q 274 656 254 635 q 320 693 293 676 q 381 719 347 710 q 457 729 415 729 q 573 708 519 729 q 665 644 626 688 q 724 533 703 600 q 746 374 746 465 q 647 87 746 190 q 365 -17 547 -17 q 303 -12 335 -17 q 247 -1 271 -8 l 247 -328 q 212 -332 231 -331 q 178 -333 193 -333 q 144 -332 163 -333 q 110 -328 125 -331 l 110 713 m 247 117 q 301 103 274 107 q 374 99 329 99 q 465 115 424 99 q 537 164 507 131 q 584 248 567 197 q 601 368 601 299 q 560 544 601 479 q 426 610 519 610 q 360 597 392 610 q 303 560 328 585 q 263 497 278 535 q 247 406 247 458 l 247 117 z "},"q":{"ha":813,"x_min":72,"x_max":703,"o":"m 567 0 q 505 -11 538 -7 q 432 -15 472 -15 q 294 2 360 -15 q 180 61 229 19 q 101 170 131 103 q 72 338 72 238 q 99 496 72 424 q 176 620 126 568 q 298 701 226 672 q 458 729 369 729 q 592 721 536 729 q 703 697 647 713 l 703 -328 q 669 -332 688 -331 q 635 -333 650 -333 q 601 -332 619 -333 q 567 -328 582 -331 l 567 0 m 567 603 q 534 609 547 607 q 509 612 521 611 q 485 613 497 613 q 458 614 474 614 q 351 593 397 614 q 276 535 306 572 q 231 446 246 497 q 215 332 215 394 q 232 225 215 269 q 278 152 249 181 q 349 111 308 124 q 438 99 389 99 q 506 104 474 99 q 567 117 539 110 l 567 603 z "},"r":{"ha":517,"x_min":111,"x_max":489,"o":"m 111 713 q 140 717 126 715 q 169 718 154 718 q 200 717 185 718 q 228 713 215 715 q 236 658 232 692 q 240 600 240 624 q 317 682 269 647 q 440 717 365 717 q 463 716 451 717 q 483 714 475 715 q 488 688 486 701 q 489 658 489 674 q 487 624 489 642 q 482 589 485 606 q 459 592 471 592 q 440 592 447 592 q 369 581 403 592 q 308 544 335 571 q 265 472 281 518 q 249 354 249 426 l 249 0 q 215 -4 233 -3 q 181 -6 196 -6 q 147 -4 165 -6 q 111 0 128 -3 l 111 713 z "},"s":{"ha":632,"x_min":67,"x_max":568,"o":"m 99 129 q 181 105 136 114 q 271 96 226 96 q 332 103 303 96 q 383 124 361 110 q 417 158 404 138 q 431 203 431 178 q 420 249 431 231 q 392 279 410 267 q 352 301 375 292 q 303 318 329 310 l 254 336 q 125 411 165 369 q 85 524 85 453 q 152 674 85 618 q 350 729 219 729 q 456 719 404 729 q 547 694 508 708 q 537 639 544 667 q 518 588 529 611 q 445 609 488 599 q 354 619 403 619 q 263 601 303 619 q 224 538 224 583 q 233 497 224 514 q 260 469 243 481 q 298 449 276 457 q 344 432 319 440 l 406 411 q 469 385 439 400 q 520 347 499 369 q 555 291 542 324 q 568 213 568 258 q 547 119 568 161 q 488 47 526 76 q 396 0 450 17 q 276 -17 342 -17 q 160 -8 210 -17 q 67 17 110 1 q 78 73 69 44 q 99 129 88 101 z "},"t":{"ha":497,"x_min":24,"x_max":474,"o":"m 138 603 l 29 603 l 24 622 l 263 889 l 274 889 l 274 713 l 454 713 q 460 660 460 689 q 458 631 460 644 q 454 603 457 617 l 274 603 l 274 278 q 278 185 274 219 q 295 131 283 150 q 327 106 307 113 q 378 100 347 100 q 422 103 401 100 q 460 111 443 107 q 472 54 469 83 q 474 3 474 25 q 415 -8 446 -4 q 350 -11 385 -11 q 194 38 250 -11 q 138 199 138 86 l 138 603 z "},"u":{"ha":797,"x_min":103,"x_max":692,"o":"m 103 713 q 138 717 118 715 q 171 718 157 718 q 206 717 186 718 q 240 713 225 715 l 240 322 q 253 212 240 256 q 290 143 265 168 q 351 108 315 118 q 435 99 388 99 q 556 114 506 99 l 556 713 q 590 717 571 715 q 624 718 608 718 q 658 717 639 718 q 692 713 676 715 l 692 22 q 576 -4 643 8 q 436 -17 508 -17 q 308 -5 368 -17 q 201 43 247 7 q 129 144 156 79 q 103 317 103 210 l 103 713 z "},"v":{"ha":738,"x_min":24,"x_max":714,"o":"m 24 713 q 64 717 43 715 q 101 718 85 718 q 141 717 119 718 q 178 713 163 715 l 372 125 l 568 713 q 603 717 583 715 q 640 718 622 718 q 675 717 656 718 q 714 713 694 715 l 436 0 q 400 -4 418 -3 q 367 -6 382 -6 q 334 -4 351 -6 q 300 0 317 -3 l 24 713 z "},"w":{"ha":1076,"x_min":31,"x_max":1046,"o":"m 31 713 q 69 717 50 715 q 104 718 89 718 q 144 717 124 718 q 179 713 164 715 l 318 131 l 475 713 q 508 717 490 715 q 546 718 526 718 q 584 716 568 717 q 615 713 600 715 l 771 140 l 910 713 q 940 717 925 715 q 974 718 956 718 q 1008 717 989 718 q 1046 713 1026 715 l 833 0 q 797 -4 815 -3 q 763 -6 778 -6 q 729 -4 747 -6 q 693 0 711 -3 l 540 539 l 381 0 q 342 -4 361 -3 q 308 -6 324 -6 q 274 -4 293 -6 q 240 0 256 -3 l 31 713 z "},"x":{"ha":707,"x_min":25,"x_max":682,"o":"m 218 369 l 50 713 q 122 718 82 718 q 160 717 142 718 q 200 713 179 715 l 347 368 l 169 0 q 134 -4 151 -3 q 100 -6 117 -6 q 63 -4 81 -6 q 25 0 44 -3 l 218 369 m 358 368 l 507 713 q 546 717 526 715 q 585 718 565 718 q 654 713 622 718 l 489 374 l 682 0 q 644 -4 663 -3 q 607 -6 626 -6 q 538 0 569 -6 l 358 368 z "},"y":{"ha":735,"x_min":18,"x_max":713,"o":"m 354 -1 q 331 -2 343 -1 q 308 -3 319 -3 q 279 -2 294 -3 q 254 0 264 -1 l 18 713 q 56 716 36 715 q 92 717 75 717 q 132 716 110 717 q 169 713 154 715 l 367 50 l 571 713 q 639 717 600 717 q 674 716 654 717 q 713 713 693 715 l 436 -144 q 396 -240 417 -201 q 349 -303 375 -279 q 290 -336 322 -326 q 214 -346 257 -346 q 151 -341 182 -346 q 96 -329 119 -336 q 101 -272 96 -297 q 118 -222 107 -247 q 152 -231 131 -226 q 199 -236 174 -236 q 233 -233 217 -236 q 263 -219 249 -229 q 288 -189 276 -208 q 311 -136 300 -169 l 354 -1 z "},"z":{"ha":663,"x_min":40,"x_max":626,"o":"m 40 19 l 415 603 l 85 603 q 81 658 81 628 q 85 713 81 688 l 619 713 l 626 694 l 249 110 l 603 110 q 607 53 607 82 q 603 0 607 25 l 47 0 l 40 19 z "},"{":{"ha":575,"x_min":69,"x_max":504,"o":"m 211 54 q 208 190 211 135 q 192 285 206 246 q 149 353 178 325 q 69 407 121 381 l 69 425 q 134 466 107 444 q 178 515 161 488 q 202 578 194 543 q 210 661 210 614 q 216 835 210 760 q 249 960 222 910 q 331 1037 276 1011 q 479 1063 385 1063 l 499 1063 q 503 1035 501 1049 q 504 1007 504 1022 q 503 978 504 992 q 499 953 501 965 q 415 942 446 953 q 369 905 385 931 q 348 839 353 879 q 343 740 343 799 l 343 732 q 338 603 343 656 q 318 515 332 550 q 281 456 304 479 q 225 417 258 433 q 281 376 258 399 q 318 317 304 353 q 338 229 332 282 q 343 100 343 176 l 343 90 q 348 -7 343 33 q 369 -72 353 -47 q 415 -109 385 -97 q 499 -121 446 -121 q 503 -147 501 -133 q 504 -175 504 -160 q 503 -203 504 -189 q 499 -231 501 -217 q 360 -214 415 -231 q 272 -162 306 -197 q 225 -74 239 -128 q 211 54 211 -19 z "},"|":{"ha":463,"x_min":164,"x_max":299,"o":"m 164 1078 q 197 1082 179 1081 q 232 1083 214 1083 q 266 1082 249 1083 q 299 1078 283 1081 l 299 -233 q 267 -237 283 -236 q 232 -239 250 -239 q 197 -237 214 -239 q 164 -233 179 -236 l 164 1078 z "},"}":{"ha":575,"x_min":69,"x_max":504,"o":"m 363 54 q 349 -74 363 -19 q 301 -162 335 -128 q 213 -214 268 -197 q 75 -231 158 -231 q 71 -203 72 -217 q 69 -175 69 -189 q 71 -147 69 -160 q 75 -121 72 -133 q 158 -109 126 -121 q 205 -72 189 -97 q 226 -7 221 -47 q 231 90 231 33 l 231 100 q 236 229 231 176 q 256 317 242 282 q 292 376 269 353 q 349 417 315 399 q 292 456 315 433 q 256 515 269 479 q 236 603 242 550 q 231 732 231 656 l 231 740 q 226 839 231 799 q 205 905 221 879 q 158 942 189 931 q 75 953 126 953 q 71 978 72 965 q 69 1007 69 992 q 71 1035 69 1022 q 75 1063 72 1049 l 94 1063 q 243 1037 189 1063 q 324 960 297 1011 q 358 835 351 910 q 364 661 364 760 q 372 578 364 614 q 396 515 379 543 q 440 466 413 488 q 504 425 467 444 l 504 407 q 424 353 453 381 q 382 285 396 325 q 365 190 368 246 q 363 54 363 135 z "},"~":{"ha":663,"x_min":26,"x_max":638,"o":"m 26 568 q 104 626 54 601 q 210 650 154 650 q 272 641 242 650 q 334 622 303 632 q 397 603 365 611 q 460 594 428 594 q 516 604 488 594 q 579 646 544 614 q 615 601 601 625 q 638 550 628 576 q 563 498 606 518 q 461 478 519 478 q 398 486 429 478 q 335 505 367 494 q 273 524 304 515 q 213 533 242 533 q 149 522 179 533 q 86 479 119 511 q 26 568 42 518 z "}," ":{"ha":329,"x_min":0,"x_max":0,"o":""},"¡":{"ha":403,"x_min":118,"x_max":285,"o":"m 274 -283 q 237 -287 254 -286 q 201 -289 219 -289 q 163 -287 182 -289 q 125 -283 144 -286 l 133 415 q 167 419 150 418 q 199 421 183 421 q 232 419 215 421 q 264 415 249 418 l 274 -283 m 279 715 q 283 676 282 696 q 285 638 285 657 q 283 599 285 618 q 279 560 282 579 q 240 556 260 557 q 201 554 221 554 q 163 556 182 554 q 124 560 143 557 q 119 598 121 579 q 118 636 118 617 q 119 676 118 656 q 124 715 121 696 q 162 719 143 718 q 200 721 181 721 q 240 719 219 721 q 279 715 260 718 z "},"¢":{"ha":833,"x_min":156,"x_max":700,"o":"m 451 -12 q 230 100 304 3 q 156 356 156 197 q 174 492 156 428 q 230 604 193 556 q 322 685 267 653 q 451 725 378 717 l 451 883 q 499 890 476 890 q 549 883 521 890 l 549 726 q 624 717 589 724 q 690 699 658 710 q 683 642 690 671 q 667 590 676 613 q 594 608 632 601 q 513 614 557 614 q 350 544 404 614 q 296 356 296 474 q 357 159 296 221 q 522 97 418 97 q 599 103 564 97 q 671 122 633 108 q 690 74 682 103 q 700 14 699 44 q 627 -5 664 3 q 549 -15 590 -12 l 549 -164 q 500 -169 526 -169 q 475 -168 488 -169 q 451 -164 463 -167 l 451 -12 z "},"£":{"ha":833,"x_min":125,"x_max":736,"o":"m 138 17 l 164 42 q 210 100 190 67 q 241 169 229 133 q 258 240 253 206 q 264 301 264 274 q 260 362 264 332 q 250 424 257 392 l 129 424 q 125 478 125 449 q 129 532 125 504 l 228 532 q 215 613 221 572 q 208 697 208 654 q 227 812 208 757 q 284 908 246 867 q 381 975 322 950 q 522 1000 440 1000 q 645 989 596 1000 q 731 963 694 978 q 721 907 728 935 q 699 847 714 879 q 621 872 660 864 q 531 881 582 881 q 448 865 482 881 q 393 824 414 850 q 363 762 372 797 q 353 688 353 726 q 359 607 353 644 q 374 532 365 569 l 633 532 q 638 475 638 504 q 633 424 638 449 l 393 424 q 402 373 399 399 q 406 321 406 347 q 393 212 406 263 q 354 125 381 161 l 732 125 q 735 93 735 110 q 736 63 736 76 q 732 0 736 29 l 143 0 l 138 17 z "},"¤":{"ha":833,"x_min":60,"x_max":774,"o":"m 117 483 q 131 572 117 531 q 169 650 144 614 l 60 761 q 96 811 75 792 q 144 843 117 831 l 254 732 q 330 768 289 756 q 417 781 371 781 q 503 768 463 781 q 581 732 544 756 l 692 843 q 738 808 717 828 q 774 763 760 788 l 664 653 q 705 574 690 617 q 719 483 719 531 q 705 394 719 436 q 667 317 690 353 l 772 211 q 693 129 742 158 l 583 238 q 417 188 510 188 q 249 238 322 188 l 142 131 q 92 166 111 144 q 60 214 72 188 l 165 319 q 129 396 142 354 q 117 483 117 438 m 240 483 q 253 411 240 444 q 290 353 267 378 q 347 313 314 328 q 417 299 379 299 q 488 313 456 299 q 544 353 521 328 q 582 411 568 378 q 596 483 596 444 q 582 556 596 522 q 544 614 568 589 q 488 653 521 639 q 417 668 456 668 q 347 653 379 668 q 290 614 314 639 q 253 556 267 589 q 240 483 240 522 z "},"¥":{"ha":833,"x_min":38,"x_max":797,"o":"m 349 218 l 93 218 q 88 265 88 235 q 89 290 88 278 q 93 314 90 303 l 349 314 l 349 436 l 93 436 q 88 483 88 453 q 89 508 88 496 q 93 532 90 521 l 293 532 l 38 982 q 77 986 56 985 q 118 988 99 988 q 158 986 138 988 q 196 982 179 985 l 424 563 l 647 982 q 684 986 665 985 q 722 988 703 988 q 761 986 742 988 q 797 982 781 985 l 546 532 l 757 532 q 761 488 761 513 q 757 436 761 457 l 490 436 l 490 314 l 757 314 q 761 269 761 294 q 757 218 761 239 l 490 218 l 490 0 q 456 -4 474 -3 q 419 -6 438 -6 q 383 -4 401 -6 q 349 0 365 -3 l 349 218 z "},"¦":{"ha":463,"x_min":164,"x_max":299,"o":"m 164 1078 q 197 1082 179 1081 q 232 1083 214 1083 q 266 1082 249 1083 q 299 1078 283 1081 l 299 615 q 232 610 271 610 q 197 611 214 610 q 164 615 179 613 l 164 1078 m 164 229 q 197 233 179 232 q 232 235 214 235 q 266 233 249 235 q 299 229 283 232 l 299 -233 q 267 -237 283 -236 q 232 -239 250 -239 q 197 -237 214 -239 q 164 -233 179 -236 l 164 229 z "},"§":{"ha":781,"x_min":92,"x_max":688,"o":"m 96 19 q 131 128 106 81 q 217 101 168 113 q 321 89 265 89 q 465 114 414 89 q 517 186 517 139 q 484 245 517 226 q 403 279 451 264 q 249 331 310 308 q 154 378 189 354 q 106 431 119 401 q 92 501 92 460 q 115 590 92 547 q 171 669 138 633 q 138 720 150 690 q 125 789 125 750 q 147 875 125 836 q 206 941 168 914 q 299 983 244 968 q 419 997 353 997 q 540 987 489 997 q 642 960 590 976 q 632 904 642 932 q 608 851 622 876 q 530 878 572 867 q 432 889 488 889 q 308 866 351 889 q 264 796 264 843 q 293 734 264 751 q 371 701 322 717 l 543 649 q 688 485 688 604 q 665 388 688 431 q 608 307 642 344 q 643 258 631 286 q 656 189 656 229 q 632 102 656 140 q 565 37 608 64 q 462 -4 522 10 q 328 -18 401 -18 q 204 -8 263 -18 q 96 19 146 1 m 471 375 q 487 369 478 372 q 508 363 496 367 q 542 403 524 376 q 560 465 560 429 q 540 516 560 494 q 475 551 519 538 l 376 582 q 317 599 346 592 q 268 617 289 606 q 235 576 251 601 q 218 519 218 551 q 240 463 218 485 q 310 426 263 442 l 471 375 z "},"¨":{"ha":694,"x_min":129,"x_max":564,"o":"m 135 839 q 131 874 132 857 q 129 908 129 890 q 131 942 129 925 q 135 978 132 960 q 170 982 151 981 q 206 983 189 983 q 240 982 221 983 q 276 978 258 981 q 282 908 282 946 q 281 874 282 892 q 276 839 279 857 q 206 835 240 835 q 171 835 190 835 q 135 839 151 836 m 418 839 q 413 908 413 871 q 414 942 413 925 q 418 978 415 960 q 453 982 435 981 q 488 983 472 983 q 523 982 504 983 q 560 978 542 981 q 564 908 564 942 q 560 839 564 874 q 489 835 524 835 q 454 835 474 835 q 418 839 435 836 z "},"©":{"ha":1175,"x_min":72,"x_max":1103,"o":"m 728 331 q 746 288 739 311 q 757 238 753 265 q 607 208 692 208 q 493 230 543 208 q 408 290 443 251 q 356 382 374 329 q 338 497 338 435 q 356 614 338 560 q 409 708 375 668 q 492 770 443 747 q 604 793 542 793 q 684 788 654 793 q 747 771 714 782 q 741 722 746 746 q 725 675 736 697 q 670 688 694 685 q 615 692 646 692 q 495 640 536 692 q 454 497 454 588 q 498 356 454 404 q 618 308 542 308 q 674 313 647 308 q 728 331 700 318 m 588 72 q 761 106 685 72 q 891 197 838 139 q 973 332 944 254 q 1001 499 1001 410 q 973 665 1001 588 q 891 801 944 743 q 761 892 838 858 q 588 925 685 925 q 414 892 490 925 q 284 801 338 858 q 202 665 231 743 q 174 499 174 588 q 202 332 174 410 q 284 197 231 254 q 414 106 338 139 q 588 72 490 72 m 588 -18 q 377 22 472 -18 q 215 130 282 61 q 110 293 147 199 q 72 499 72 388 q 110 703 72 608 q 215 867 147 799 q 377 976 282 936 q 588 1015 472 1015 q 798 976 703 1015 q 960 868 893 938 q 1065 704 1028 799 q 1103 499 1103 610 q 1065 293 1103 388 q 960 130 1028 199 q 798 22 893 61 q 588 -18 703 -18 z "},"ª":{"ha":694,"x_min":86,"x_max":542,"o":"m 426 683 q 389 688 411 686 q 347 689 367 689 q 237 665 276 689 q 197 593 197 642 q 210 547 197 564 q 243 520 224 529 q 286 508 263 511 q 331 506 310 506 q 426 514 382 506 l 426 683 m 426 792 q 393 876 426 853 q 294 899 360 899 q 224 893 258 899 q 157 878 189 888 q 140 922 146 897 q 133 971 133 947 q 218 989 171 982 q 310 996 265 996 q 483 946 424 996 q 542 788 542 896 l 542 440 q 444 422 503 431 q 328 413 386 413 q 148 454 210 413 q 86 592 86 496 q 106 676 86 640 q 160 734 126 711 q 238 768 193 757 q 332 779 282 779 q 383 778 360 779 q 426 774 407 776 l 426 792 z "},"«":{"ha":858,"x_min":68,"x_max":796,"o":"m 418 371 l 649 678 q 683 682 665 681 q 718 683 700 683 q 757 682 738 683 q 796 678 776 681 l 569 372 l 796 63 q 758 58 776 60 q 719 57 739 57 q 649 63 681 57 l 418 371 m 68 371 l 299 678 q 333 682 315 681 q 368 683 350 683 q 407 682 388 683 q 446 678 426 681 l 219 372 l 446 63 q 408 58 426 60 q 369 57 389 57 q 299 63 331 57 l 68 371 z "},"¬":{"ha":833,"x_min":121,"x_max":706,"o":"m 706 536 l 706 149 q 676 144 693 146 q 643 143 658 143 q 610 144 628 143 q 578 149 592 146 l 578 408 l 126 408 q 122 438 124 421 q 121 471 121 456 q 122 504 121 486 q 126 536 124 522 l 706 536 z "},"­":{"ha":501,"x_min":65,"x_max":436,"o":"m 431 453 q 435 422 433 439 q 436 389 436 404 q 435 356 436 374 q 431 326 433 339 l 71 326 q 67 356 68 339 q 65 389 65 374 q 67 422 65 404 q 71 453 68 439 l 431 453 z "},"®":{"ha":1175,"x_min":71,"x_max":1101,"o":"m 415 775 q 485 782 451 779 q 560 785 519 785 q 651 775 610 785 q 723 746 693 765 q 770 694 753 726 q 788 619 788 663 q 757 519 788 557 q 690 463 726 481 l 836 242 q 801 238 817 239 q 769 238 785 238 q 715 242 740 238 l 557 489 l 585 501 q 648 542 618 517 q 678 608 678 568 q 649 671 678 649 q 572 693 619 693 q 549 692 561 693 q 521 689 536 692 l 521 240 q 469 236 500 236 q 415 240 440 236 l 415 775 m 586 72 q 760 106 683 72 q 890 196 836 139 q 972 331 943 253 q 1000 499 1000 408 q 972 665 1000 588 q 890 800 943 743 q 760 890 836 857 q 586 924 683 924 q 413 890 490 924 q 283 800 336 857 q 202 665 231 743 q 174 499 174 588 q 202 331 174 408 q 283 196 231 253 q 413 106 336 139 q 586 72 490 72 m 586 -18 q 376 22 471 -18 q 213 130 281 61 q 108 293 146 199 q 71 499 71 388 q 108 703 71 608 q 213 867 146 799 q 376 976 281 936 q 586 1015 471 1015 q 797 976 701 1015 q 959 868 892 938 q 1064 704 1026 799 q 1101 499 1101 610 q 1064 293 1101 388 q 959 130 1026 199 q 797 22 892 61 q 586 -18 701 -18 z "},"¯":{"ha":694,"x_min":154,"x_max":540,"o":"m 535 964 q 539 939 538 953 q 540 913 540 925 q 539 886 540 900 q 535 861 538 872 l 160 861 q 156 886 157 872 q 154 913 154 900 q 156 938 154 924 q 160 964 157 953 l 535 964 z "},"°":{"ha":514,"x_min":56,"x_max":463,"o":"m 56 806 q 72 885 56 849 q 115 949 88 922 q 180 992 143 976 q 258 1008 217 1008 q 338 992 300 1008 q 403 949 375 976 q 447 885 431 922 q 463 806 463 849 q 447 727 463 764 q 403 663 431 690 q 338 620 375 636 q 258 604 300 604 q 180 620 217 604 q 115 663 143 636 q 72 727 88 690 q 56 806 56 764 m 156 806 q 185 728 156 758 q 258 697 214 697 q 333 728 303 697 q 364 806 364 758 q 333 884 364 853 q 258 915 303 915 q 185 884 214 915 q 156 806 156 853 z "},"±":{"ha":833,"x_min":118,"x_max":717,"o":"m 356 426 l 125 426 q 119 489 119 454 q 125 550 119 522 l 356 550 l 356 803 q 385 807 371 806 q 417 808 400 808 q 447 807 432 808 q 479 803 463 806 l 479 550 l 708 550 q 713 519 711 535 q 714 489 714 504 q 713 458 714 474 q 708 426 711 442 l 479 426 l 479 175 q 447 171 463 172 q 417 169 432 169 q 356 175 382 169 l 356 426 m 711 128 q 715 97 714 114 q 717 64 717 79 q 715 31 717 49 q 711 1 714 14 l 122 1 q 119 31 119 14 q 118 64 118 49 q 119 97 118 79 q 122 128 119 114 l 711 128 z "},"²":{"ha":625,"x_min":92,"x_max":531,"o":"m 315 525 l 528 525 q 530 501 529 514 q 531 475 531 489 q 530 449 531 461 q 528 425 529 436 l 99 425 l 92 442 q 186 540 136 489 q 278 638 236 590 q 347 729 319 686 q 374 807 374 772 q 340 867 374 851 q 258 883 307 883 q 190 876 217 883 q 140 860 164 869 q 126 903 133 878 q 114 958 118 929 q 194 981 157 974 q 278 989 232 989 q 436 944 376 989 q 496 817 496 900 q 464 698 496 754 q 369 579 432 642 l 315 525 z "},"³":{"ha":625,"x_min":108,"x_max":528,"o":"m 501 982 l 513 961 l 376 764 q 442 744 414 760 q 490 706 471 728 q 518 658 508 685 q 528 607 528 632 q 508 523 528 560 q 455 460 489 486 q 374 422 421 435 q 272 408 326 408 q 227 410 247 408 q 188 414 207 411 q 151 421 169 417 q 108 432 132 425 q 119 482 111 457 q 136 526 126 507 q 204 509 172 515 q 268 503 236 503 q 366 527 325 503 q 407 604 407 551 q 371 669 407 649 q 289 690 335 690 q 263 690 275 690 q 235 685 250 689 l 219 701 l 340 886 l 146 886 q 142 933 142 911 q 146 982 142 957 l 501 982 z "},"´":{"ha":694,"x_min":181,"x_max":515,"o":"m 318 825 q 285 821 303 822 q 244 819 267 819 q 213 821 229 819 q 181 825 197 822 l 340 1001 q 383 1006 361 1004 q 429 1007 406 1007 q 475 1006 454 1007 q 515 1001 496 1004 l 318 825 z "},"µ":{"ha":838,"x_min":111,"x_max":732,"o":"m 111 713 q 145 717 126 715 q 179 718 164 718 q 213 717 194 718 q 247 713 232 715 l 247 340 q 288 159 247 218 q 418 100 329 100 q 485 112 453 100 q 542 147 517 124 q 581 208 567 171 q 596 299 596 246 l 596 713 q 630 717 611 715 q 664 718 649 718 q 698 717 679 718 q 732 713 717 715 l 732 0 q 708 -4 721 -3 q 681 -6 694 -6 q 652 -4 667 -6 q 624 0 638 -3 q 614 43 619 17 q 606 89 608 69 q 523 13 572 43 q 396 -17 474 -17 q 246 46 301 -17 l 246 -328 q 212 -332 231 -331 q 178 -333 193 -333 q 144 -332 163 -333 q 111 -328 126 -331 l 111 713 z "},"¶":{"ha":793,"x_min":69,"x_max":707,"o":"m 396 435 l 379 435 q 258 450 314 435 q 160 499 201 465 q 94 583 118 532 q 69 706 69 635 q 94 845 69 788 q 172 939 119 903 q 306 991 225 975 q 499 1007 388 1007 l 499 -8 q 396 0 429 -8 l 396 435 m 604 1007 q 707 999 674 1007 l 707 0 q 604 -8 674 -8 l 604 1007 z "},"·":{"ha":335,"x_min":86,"x_max":249,"o":"m 92 307 q 88 344 89 326 q 86 382 86 363 q 88 420 86 401 q 92 458 89 439 q 129 463 111 461 q 167 464 147 464 q 205 463 186 464 q 243 458 224 461 q 247 421 246 439 q 249 383 249 403 q 247 345 249 364 q 243 307 246 326 q 206 303 224 304 q 168 301 188 301 q 130 303 149 301 q 92 307 111 304 z "},"¸":{"ha":694,"x_min":196,"x_max":503,"o":"m 332 -81 q 364 -78 346 -78 q 467 -111 431 -78 q 503 -197 503 -144 q 448 -300 503 -265 q 301 -335 393 -335 q 253 -333 282 -335 q 196 -319 224 -331 q 201 -278 197 -300 q 215 -239 204 -256 q 301 -253 257 -253 q 372 -240 346 -253 q 397 -197 397 -226 q 372 -159 397 -169 q 307 -149 347 -149 q 267 -151 288 -149 q 229 -158 247 -154 l 221 -151 l 289 33 l 378 33 l 332 -81 z "},"¹":{"ha":625,"x_min":110,"x_max":536,"o":"m 156 789 q 127 829 138 807 q 110 878 117 851 l 378 988 l 401 988 l 401 524 l 531 524 q 536 475 536 500 q 531 425 536 449 l 151 425 q 146 449 147 438 q 144 475 144 460 q 146 499 144 488 q 151 524 147 511 l 285 524 l 285 842 l 156 789 z "},"º":{"ha":694,"x_min":90,"x_max":604,"o":"m 482 706 q 449 847 482 796 q 347 899 417 899 q 246 847 279 899 q 213 706 213 796 q 246 563 213 615 q 347 511 279 511 q 449 563 417 511 q 482 706 482 615 m 90 706 q 106 818 90 765 q 155 911 122 871 q 235 975 188 951 q 347 999 283 999 q 460 975 411 999 q 540 911 508 951 q 588 818 572 871 q 604 706 604 765 q 588 592 604 646 q 540 498 572 539 q 460 433 508 457 q 347 410 411 410 q 235 433 283 410 q 155 498 188 457 q 106 592 122 539 q 90 706 90 646 z "},"»":{"ha":857,"x_min":60,"x_max":788,"o":"m 788 369 l 556 63 q 522 58 539 60 q 486 56 506 56 q 447 58 467 56 q 408 63 428 60 l 636 368 l 408 678 q 447 682 428 681 q 485 683 465 683 q 521 682 503 683 q 556 678 539 681 l 788 369 m 439 369 l 207 63 q 174 58 190 60 q 138 56 157 56 q 99 58 118 56 q 60 63 79 60 l 288 368 l 60 678 q 98 682 79 681 q 136 683 117 683 q 172 682 154 683 q 207 678 190 681 l 439 369 z "},"¼":{"ha":1458,"x_min":90,"x_max":1353,"o":"m 1021 983 q 1055 988 1038 986 q 1089 989 1072 989 q 1126 988 1107 989 q 1161 983 1144 986 l 490 1 q 454 -3 471 -1 q 421 -4 438 -4 q 350 1 382 -4 l 1021 983 m 136 789 q 108 829 118 807 q 90 878 97 851 l 358 988 l 382 988 l 382 524 l 511 524 q 517 475 517 500 q 511 425 517 449 l 132 425 q 126 449 128 438 q 125 475 125 460 q 126 499 125 488 q 132 524 128 511 l 265 524 l 265 842 l 136 789 m 1035 207 l 1171 207 l 1171 317 q 1225 321 1196 321 q 1281 317 1253 321 l 1281 207 l 1347 207 q 1351 183 1350 196 q 1353 156 1353 171 q 1347 108 1353 125 l 1281 108 l 1281 1 q 1228 -3 1253 -3 q 1171 1 1197 -3 l 1171 108 l 882 108 l 871 126 l 1099 578 q 1200 544 1154 571 l 1035 207 z "},"½":{"ha":1458,"x_min":86,"x_max":1356,"o":"m 997 983 q 1031 988 1014 986 q 1065 989 1049 989 q 1102 988 1083 989 q 1138 983 1121 986 l 467 1 q 431 -3 447 -1 q 397 -4 414 -4 q 326 1 358 -4 l 997 983 m 132 789 q 103 829 114 807 q 86 878 93 851 l 354 988 l 378 988 l 378 524 l 507 524 q 513 475 513 500 q 507 425 513 449 l 128 425 q 122 449 124 438 q 121 475 121 460 q 122 499 121 488 q 128 524 124 511 l 261 524 l 261 842 l 132 789 m 1140 101 l 1353 101 q 1355 78 1354 90 q 1356 51 1356 65 q 1355 25 1356 38 q 1353 1 1354 13 l 924 1 l 917 18 q 1011 116 961 65 q 1103 215 1061 167 q 1172 306 1144 263 q 1199 383 1199 349 q 1165 444 1199 428 q 1083 460 1132 460 q 1015 453 1042 460 q 965 436 989 446 q 951 480 958 454 q 939 535 943 506 q 1019 558 982 550 q 1103 565 1057 565 q 1261 521 1201 565 q 1321 393 1321 476 q 1289 274 1321 331 q 1194 156 1257 218 l 1140 101 z "},"¾":{"ha":1458,"x_min":118,"x_max":1365,"o":"m 1029 983 q 1063 988 1046 986 q 1097 989 1081 989 q 1134 988 1115 989 q 1169 983 1153 986 l 499 1 q 463 -3 479 -1 q 429 -4 446 -4 q 358 1 390 -4 l 1029 983 m 1047 218 l 1183 218 l 1183 328 q 1238 332 1208 332 q 1293 328 1265 332 l 1293 218 l 1360 218 q 1364 194 1363 207 q 1365 167 1365 182 q 1360 119 1365 136 l 1293 119 l 1293 13 q 1240 8 1265 8 q 1183 13 1210 8 l 1183 119 l 894 119 l 883 138 l 1111 589 q 1213 556 1167 582 l 1047 218 m 511 982 l 522 961 l 386 764 q 452 744 424 760 q 499 706 481 728 q 528 658 518 685 q 538 607 538 632 q 518 523 538 560 q 465 460 499 486 q 383 422 431 435 q 282 408 336 408 q 237 410 257 408 q 198 414 217 411 q 160 421 179 417 q 118 432 142 425 q 128 482 121 457 q 146 526 136 507 q 214 509 182 515 q 278 503 246 503 q 376 527 335 503 q 417 604 417 551 q 381 669 417 649 q 299 690 344 690 q 272 690 285 690 q 244 685 260 689 l 229 701 l 350 886 l 156 886 q 151 933 151 911 q 156 982 151 957 l 511 982 z "},"¿":{"ha":678,"x_min":85,"x_max":649,"o":"m 456 193 q 361 162 403 179 q 290 120 319 144 q 246 63 261 96 q 231 -12 231 31 q 283 -124 231 -83 q 435 -164 336 -164 q 535 -155 497 -164 q 614 -131 574 -146 q 635 -185 626 -157 q 649 -246 644 -214 q 587 -265 615 -257 q 531 -276 558 -272 q 476 -283 504 -281 q 417 -285 449 -285 q 169 -210 253 -285 q 85 -14 85 -136 q 113 108 85 57 q 180 192 142 158 q 258 247 218 226 q 324 275 299 267 l 324 418 q 392 424 356 424 q 424 422 407 424 q 456 418 440 421 l 456 193 m 468 714 q 472 676 471 694 q 474 638 474 657 q 472 599 474 618 q 468 560 471 579 q 429 555 449 557 q 390 553 410 553 q 351 555 371 553 q 313 560 332 557 q 308 598 310 579 q 307 636 307 617 q 308 675 307 656 q 313 714 310 694 q 350 718 331 717 q 389 719 369 719 q 431 718 408 719 q 468 714 453 717 z "},"À":{"ha":857,"x_min":22,"x_max":833,"o":"m 614 231 l 235 231 l 167 0 q 131 -4 149 -3 q 94 -6 113 -6 q 56 -4 75 -6 q 22 0 38 -3 l 347 999 q 386 1003 365 1001 q 429 1004 407 1004 q 469 1003 449 1004 q 510 999 490 1001 l 833 0 q 796 -4 817 -3 q 756 -6 775 -6 q 719 -4 738 -6 q 683 0 700 -3 l 614 231 m 272 354 l 576 354 l 424 864 l 272 354 m 186 1232 q 230 1237 206 1235 q 279 1239 254 1239 q 330 1237 304 1239 q 378 1232 356 1235 l 524 1082 q 453 1076 492 1076 q 414 1078 433 1076 q 376 1082 394 1079 l 186 1232 z "},"Á":{"ha":857,"x_min":22,"x_max":833,"o":"m 614 231 l 235 231 l 167 0 q 131 -4 149 -3 q 94 -6 113 -6 q 56 -4 75 -6 q 22 0 38 -3 l 347 999 q 386 1003 365 1001 q 429 1004 407 1004 q 469 1003 449 1004 q 510 999 490 1001 l 833 0 q 796 -4 817 -3 q 756 -6 775 -6 q 719 -4 738 -6 q 683 0 700 -3 l 614 231 m 272 354 l 576 354 l 424 864 l 272 354 m 461 1082 q 424 1078 443 1079 q 385 1076 404 1076 q 349 1078 365 1076 q 313 1082 332 1079 l 460 1232 q 507 1237 482 1235 q 557 1239 532 1239 q 607 1237 583 1239 q 650 1232 631 1235 l 461 1082 z "},"Â":{"ha":857,"x_min":22,"x_max":833,"o":"m 614 231 l 235 231 l 167 0 q 131 -4 149 -3 q 94 -6 113 -6 q 56 -4 75 -6 q 22 0 38 -3 l 347 999 q 386 1003 365 1001 q 429 1004 407 1004 q 469 1003 449 1004 q 510 999 490 1001 l 833 0 q 796 -4 817 -3 q 756 -6 775 -6 q 719 -4 738 -6 q 683 0 700 -3 l 614 231 m 272 354 l 576 354 l 424 864 l 272 354 m 668 1082 q 640 1078 656 1079 q 611 1076 625 1076 l 581 1076 q 547 1078 565 1076 q 517 1082 528 1079 l 426 1167 l 336 1082 q 304 1078 324 1079 q 271 1076 285 1076 l 239 1076 q 210 1078 225 1076 q 182 1082 196 1079 l 346 1232 q 382 1236 361 1235 q 426 1238 403 1238 q 470 1236 450 1238 q 508 1232 490 1235 l 668 1082 z "},"Ã":{"ha":857,"x_min":22,"x_max":833,"o":"m 614 231 l 235 231 l 167 0 q 131 -4 149 -3 q 94 -6 113 -6 q 56 -4 75 -6 q 22 0 38 -3 l 347 999 q 386 1003 365 1001 q 429 1004 407 1004 q 469 1003 449 1004 q 510 999 490 1001 l 833 0 q 796 -4 817 -3 q 756 -6 775 -6 q 719 -4 738 -6 q 683 0 700 -3 l 614 231 m 272 354 l 576 354 l 424 864 l 272 354 m 178 1193 q 236 1241 200 1218 q 318 1264 272 1264 q 376 1253 347 1264 q 433 1229 406 1242 q 488 1206 461 1217 q 543 1194 515 1194 q 590 1205 569 1194 q 638 1242 610 1215 q 683 1160 669 1203 q 624 1115 660 1136 q 544 1093 589 1093 q 485 1103 514 1093 q 428 1127 456 1114 q 373 1151 400 1140 q 319 1161 346 1161 q 270 1149 290 1161 q 224 1114 250 1138 q 196 1152 208 1133 q 178 1193 183 1171 z "},"Ä":{"ha":857,"x_min":22,"x_max":833,"o":"m 614 231 l 235 231 l 167 0 q 131 -4 149 -3 q 94 -6 113 -6 q 56 -4 75 -6 q 22 0 38 -3 l 347 999 q 386 1003 365 1001 q 429 1004 407 1004 q 469 1003 449 1004 q 510 999 490 1001 l 833 0 q 796 -4 817 -3 q 756 -6 775 -6 q 719 -4 738 -6 q 683 0 700 -3 l 614 231 m 272 354 l 576 354 l 424 864 l 272 354 m 204 1096 q 200 1165 200 1131 q 204 1236 200 1200 q 242 1240 224 1239 q 276 1242 260 1242 q 314 1240 294 1242 q 350 1236 333 1239 q 356 1167 356 1204 q 350 1096 356 1128 q 315 1092 333 1093 q 278 1090 296 1090 q 242 1092 261 1090 q 204 1096 224 1093 m 503 1096 q 498 1131 500 1114 q 496 1165 496 1147 q 503 1236 496 1197 q 538 1240 519 1239 q 575 1242 557 1242 q 610 1240 592 1242 q 649 1236 629 1239 q 653 1167 653 1200 q 649 1096 653 1131 q 611 1092 629 1093 q 575 1090 593 1090 q 539 1092 558 1090 q 503 1096 519 1093 z "},"Å":{"ha":857,"x_min":22,"x_max":833,"o":"m 263 1138 q 308 1254 263 1208 q 428 1300 354 1300 q 547 1254 500 1300 q 593 1138 593 1208 q 570 1052 593 1089 q 508 996 547 1015 l 833 0 q 796 -4 817 -3 q 756 -6 775 -6 q 719 -4 738 -6 q 683 0 700 -3 l 613 231 l 236 231 l 167 0 q 131 -4 149 -3 q 94 -6 113 -6 q 56 -4 75 -6 q 22 0 38 -3 l 347 996 q 285 1052 308 1015 q 263 1138 263 1089 m 576 354 l 424 858 l 272 354 l 576 354 m 428 1047 q 483 1072 464 1047 q 503 1138 503 1097 q 483 1203 503 1178 q 428 1228 464 1228 q 372 1203 392 1228 q 351 1138 351 1178 q 372 1072 351 1097 q 428 1047 392 1047 z "},"Æ":{"ha":1281,"x_min":-7,"x_max":1222,"o":"m 151 0 q 112 -4 132 -3 q 72 -6 92 -6 q 30 -4 50 -6 q -7 0 10 -3 l 579 999 l 1206 999 q 1210 968 1208 983 q 1211 938 1211 953 q 1210 905 1211 922 q 1206 874 1208 888 l 799 874 l 799 572 l 1125 572 q 1129 511 1129 544 q 1128 479 1129 496 q 1125 449 1128 463 l 799 449 l 799 124 l 1217 124 q 1221 94 1219 110 q 1222 63 1222 78 q 1221 31 1222 47 q 1217 0 1219 14 l 657 0 l 657 233 l 283 233 l 151 0 m 657 885 l 650 885 l 350 356 l 657 356 l 657 885 z "},"Ç":{"ha":858,"x_min":81,"x_max":799,"o":"m 760 146 q 783 88 774 117 q 799 29 793 60 q 561 -15 689 -15 l 538 -15 l 514 -75 q 527 -73 521 -74 q 540 -72 533 -72 q 652 -108 617 -72 q 688 -196 688 -144 q 633 -299 688 -264 q 485 -335 579 -335 q 433 -332 464 -335 q 374 -318 403 -329 q 378 -275 375 -297 q 394 -235 382 -253 q 482 -250 443 -250 q 579 -196 579 -250 q 556 -159 579 -169 q 490 -149 532 -149 q 451 -151 471 -149 q 411 -160 432 -153 l 400 -147 q 427 -78 414 -112 q 453 -8 440 -44 q 297 47 365 6 q 180 151 228 88 q 106 301 132 215 q 81 492 81 388 q 113 708 81 611 q 205 873 144 804 q 351 978 265 942 q 544 1015 438 1015 q 681 1004 624 1015 q 781 976 738 993 q 769 918 778 944 q 747 861 761 892 q 707 874 726 868 q 665 883 688 879 q 616 890 643 888 q 554 892 589 892 q 319 788 404 892 q 233 492 233 685 q 257 322 233 394 q 324 202 281 250 q 429 131 368 154 q 564 107 490 107 q 671 117 624 107 q 760 146 718 126 z "},"È":{"ha":744,"x_min":122,"x_max":686,"o":"m 122 999 l 671 999 q 675 938 675 971 q 674 906 675 922 q 671 875 674 889 l 264 875 l 264 589 l 589 589 q 593 559 592 575 q 594 528 594 543 q 593 496 594 513 q 589 465 592 479 l 264 465 l 264 124 l 682 124 q 686 63 686 96 q 685 31 686 47 q 682 0 685 14 l 122 0 l 122 999 m 178 1232 q 222 1237 197 1235 q 271 1239 246 1239 q 322 1237 296 1239 q 369 1232 347 1235 l 515 1082 q 444 1076 483 1076 q 406 1078 425 1076 q 368 1082 386 1079 l 178 1232 z "},"É":{"ha":744,"x_min":122,"x_max":686,"o":"m 122 999 l 671 999 q 675 938 675 971 q 674 906 675 922 q 671 875 674 889 l 264 875 l 264 589 l 589 589 q 593 559 592 575 q 594 528 594 543 q 593 496 594 513 q 589 465 592 479 l 264 465 l 264 124 l 682 124 q 686 63 686 96 q 685 31 686 47 q 682 0 685 14 l 122 0 l 122 999 m 417 1082 q 379 1078 399 1079 q 340 1076 360 1076 q 304 1078 321 1076 q 268 1082 288 1079 l 415 1232 q 463 1237 438 1235 q 513 1239 488 1239 q 563 1237 539 1239 q 606 1232 586 1235 l 417 1082 z "},"Ê":{"ha":744,"x_min":122,"x_max":686,"o":"m 122 999 l 671 999 q 675 938 675 971 q 674 906 675 922 q 671 875 674 889 l 264 875 l 264 589 l 589 589 q 593 559 592 575 q 594 528 594 543 q 593 496 594 513 q 589 465 592 479 l 264 465 l 264 124 l 682 124 q 686 63 686 96 q 685 31 686 47 q 682 0 685 14 l 122 0 l 122 999 m 638 1082 q 610 1078 625 1079 q 581 1076 594 1076 l 550 1076 q 516 1078 535 1076 q 486 1082 497 1079 l 396 1167 l 306 1082 q 274 1078 293 1079 q 240 1076 254 1076 l 208 1076 q 180 1078 194 1076 q 151 1082 165 1079 l 315 1232 q 351 1236 331 1235 q 396 1238 372 1238 q 440 1236 419 1238 q 478 1232 460 1235 l 638 1082 z "},"Ë":{"ha":744,"x_min":122,"x_max":686,"o":"m 122 999 l 671 999 q 675 938 675 971 q 674 906 675 922 q 671 875 674 889 l 264 875 l 264 589 l 589 589 q 593 559 592 575 q 594 528 594 543 q 593 496 594 513 q 589 465 592 479 l 264 465 l 264 124 l 682 124 q 686 63 686 96 q 685 31 686 47 q 682 0 685 14 l 122 0 l 122 999 m 171 1096 q 167 1165 167 1131 q 171 1236 167 1200 q 208 1240 190 1239 q 243 1242 226 1242 q 281 1240 261 1242 q 317 1236 300 1239 q 322 1167 322 1204 q 317 1096 322 1128 q 281 1092 300 1093 q 244 1090 263 1090 q 209 1092 228 1090 q 171 1096 190 1093 m 469 1096 q 465 1131 467 1114 q 463 1165 463 1147 q 469 1236 463 1197 q 505 1240 486 1239 q 542 1242 524 1242 q 577 1240 558 1242 q 615 1236 596 1239 q 619 1167 619 1200 q 615 1096 619 1131 q 578 1092 596 1093 q 542 1090 560 1090 q 506 1092 525 1090 q 469 1096 486 1093 z "},"Ì":{"ha":386,"x_min":-29,"x_max":308,"o":"m 122 999 q 157 1003 139 1001 q 193 1004 175 1004 q 229 1003 211 1004 q 264 999 247 1001 l 264 0 q 230 -4 247 -3 q 193 -6 213 -6 q 156 -4 175 -6 q 122 0 138 -3 l 122 999 m -29 1232 q 15 1237 -10 1235 q 64 1239 39 1239 q 115 1237 89 1239 q 163 1232 140 1235 l 308 1082 q 238 1076 276 1076 q 199 1078 218 1076 q 161 1082 179 1079 l -29 1232 z "},"Í":{"ha":386,"x_min":88,"x_max":425,"o":"m 122 999 q 157 1003 139 1001 q 193 1004 175 1004 q 229 1003 211 1004 q 264 999 247 1001 l 264 0 q 230 -4 247 -3 q 193 -6 213 -6 q 156 -4 175 -6 q 122 0 138 -3 l 122 999 m 236 1082 q 199 1078 218 1079 q 160 1076 179 1076 q 124 1078 140 1076 q 88 1082 107 1079 l 235 1232 q 282 1237 257 1235 q 332 1239 307 1239 q 382 1237 358 1239 q 425 1232 406 1235 l 236 1082 z "},"Î":{"ha":386,"x_min":-50,"x_max":436,"o":"m 122 999 q 157 1003 139 1001 q 193 1004 175 1004 q 229 1003 211 1004 q 264 999 247 1001 l 264 0 q 230 -4 247 -3 q 193 -6 213 -6 q 156 -4 175 -6 q 122 0 138 -3 l 122 999 m 436 1082 q 408 1078 424 1079 q 379 1076 393 1076 l 349 1076 q 315 1078 333 1076 q 285 1082 296 1079 l 194 1167 l 104 1082 q 72 1078 92 1079 q 39 1076 53 1076 l 7 1076 q -22 1078 -7 1076 q -50 1082 -36 1079 l 114 1232 q 150 1236 129 1235 q 194 1238 171 1238 q 238 1236 218 1238 q 276 1232 258 1235 l 436 1082 z "},"Ï":{"ha":386,"x_min":-32,"x_max":421,"o":"m 122 999 q 157 1003 139 1001 q 193 1004 175 1004 q 229 1003 211 1004 q 264 999 247 1001 l 264 0 q 230 -4 247 -3 q 193 -6 213 -6 q 156 -4 175 -6 q 122 0 138 -3 l 122 999 m -28 1096 q -32 1165 -32 1131 q -28 1236 -32 1200 q 10 1240 -8 1239 q 44 1242 28 1242 q 82 1240 63 1242 q 118 1236 101 1239 q 124 1167 124 1204 q 118 1096 124 1128 q 83 1092 101 1093 q 46 1090 64 1090 q 10 1092 29 1090 q -28 1096 -8 1093 m 271 1096 q 266 1131 268 1114 q 264 1165 264 1147 q 271 1236 264 1197 q 306 1240 288 1239 q 343 1242 325 1242 q 378 1240 360 1242 q 417 1236 397 1239 q 421 1167 421 1200 q 417 1096 421 1131 q 379 1092 397 1093 q 343 1090 361 1090 q 307 1092 326 1090 q 271 1096 288 1093 z "},"Ð":{"ha":983,"x_min":17,"x_max":903,"o":"m 136 460 l 22 460 q 18 485 19 471 q 17 511 17 499 q 18 538 17 524 q 22 564 19 553 l 136 564 l 136 999 q 250 1009 183 1004 q 381 1014 317 1014 q 773 881 643 1014 q 903 497 903 747 q 770 110 903 236 q 375 -17 638 -17 q 246 -12 310 -17 q 136 0 182 -7 l 136 460 m 278 564 l 503 564 q 507 538 506 553 q 508 511 508 524 q 507 485 508 500 q 503 460 506 471 l 278 460 l 278 117 q 326 112 297 114 q 386 110 354 110 q 535 128 468 110 q 651 192 603 147 q 726 312 700 236 q 753 501 753 388 q 726 679 753 606 q 652 799 700 753 q 538 867 604 846 q 390 888 471 888 q 333 887 364 888 q 278 882 301 886 l 278 564 z "},"Ñ":{"ha":944,"x_min":122,"x_max":822,"o":"m 122 999 q 155 1003 138 1001 q 188 1004 172 1004 q 220 1003 203 1004 q 253 999 238 1001 l 688 249 l 688 999 q 722 1003 704 1001 q 758 1004 740 1004 q 790 1003 774 1004 q 822 999 807 1001 l 822 0 q 790 -4 807 -3 q 757 -6 772 -6 q 724 -4 742 -6 q 692 0 707 -3 l 256 746 l 256 0 q 223 -4 240 -3 q 189 -6 206 -6 q 153 -4 171 -6 q 122 0 136 -3 l 122 999 m 225 1193 q 283 1241 247 1218 q 365 1264 319 1264 q 424 1253 394 1264 q 481 1229 453 1242 q 535 1206 508 1217 q 590 1194 563 1194 q 637 1205 617 1194 q 685 1242 657 1215 q 731 1160 717 1203 q 672 1115 707 1136 q 592 1093 636 1093 q 532 1103 561 1093 q 475 1127 503 1114 q 420 1151 447 1140 q 367 1161 393 1161 q 317 1149 338 1161 q 271 1114 297 1138 q 243 1152 256 1133 q 225 1193 231 1171 z "},"Ò":{"ha":1013,"x_min":85,"x_max":928,"o":"m 507 -17 q 319 22 399 -17 q 188 128 240 60 q 110 292 136 197 q 85 499 85 386 q 110 706 85 611 q 188 869 136 800 q 319 976 240 938 q 507 1015 399 1015 q 694 976 615 1015 q 826 869 774 938 q 903 706 878 800 q 928 499 928 611 q 903 292 928 386 q 826 128 878 197 q 694 22 774 60 q 507 -17 615 -17 m 507 106 q 627 133 576 106 q 711 211 678 160 q 761 335 744 263 q 778 499 778 407 q 761 662 778 589 q 711 785 744 735 q 627 863 678 836 q 507 890 576 890 q 387 863 438 890 q 303 785 336 836 q 253 662 269 735 q 236 499 236 589 q 253 335 236 407 q 303 211 269 263 q 387 133 336 160 q 507 106 438 106 m 261 1232 q 305 1237 281 1235 q 354 1239 329 1239 q 405 1237 379 1239 q 453 1232 431 1235 l 599 1082 q 528 1076 567 1076 q 489 1078 508 1076 q 451 1082 469 1079 l 261 1232 z "},"Ó":{"ha":1013,"x_min":85,"x_max":928,"o":"m 507 -17 q 319 22 399 -17 q 188 128 240 60 q 110 292 136 197 q 85 499 85 386 q 110 706 85 611 q 188 869 136 800 q 319 976 240 938 q 507 1015 399 1015 q 694 976 615 1015 q 826 869 774 938 q 903 706 878 800 q 928 499 928 611 q 903 292 928 386 q 826 128 878 197 q 694 22 774 60 q 507 -17 615 -17 m 507 106 q 627 133 576 106 q 711 211 678 160 q 761 335 744 263 q 778 499 778 407 q 761 662 778 589 q 711 785 744 735 q 627 863 678 836 q 507 890 576 890 q 387 863 438 890 q 303 785 336 836 q 253 662 269 735 q 236 499 236 589 q 253 335 236 407 q 303 211 269 263 q 387 133 336 160 q 507 106 438 106 m 542 1082 q 504 1078 524 1079 q 465 1076 485 1076 q 429 1078 446 1076 q 393 1082 413 1079 l 540 1232 q 588 1237 563 1235 q 638 1239 613 1239 q 688 1237 664 1239 q 731 1232 711 1235 l 542 1082 z "},"Ô":{"ha":1013,"x_min":85,"x_max":928,"o":"m 507 -17 q 319 22 399 -17 q 188 128 240 60 q 110 292 136 197 q 85 499 85 386 q 110 706 85 611 q 188 869 136 800 q 319 976 240 938 q 507 1015 399 1015 q 694 976 615 1015 q 826 869 774 938 q 903 706 878 800 q 928 499 928 611 q 903 292 928 386 q 826 128 878 197 q 694 22 774 60 q 507 -17 615 -17 m 507 106 q 627 133 576 106 q 711 211 678 160 q 761 335 744 263 q 778 499 778 407 q 761 662 778 589 q 711 785 744 735 q 627 863 678 836 q 507 890 576 890 q 387 863 438 890 q 303 785 336 836 q 253 662 269 735 q 236 499 236 589 q 253 335 236 407 q 303 211 269 263 q 387 133 336 160 q 507 106 438 106 m 747 1082 q 719 1078 735 1079 q 690 1076 704 1076 l 660 1076 q 626 1078 644 1076 q 596 1082 607 1079 l 506 1167 l 415 1082 q 383 1078 403 1079 q 350 1076 364 1076 l 318 1076 q 290 1078 304 1076 q 261 1082 275 1079 l 425 1232 q 461 1236 440 1235 q 506 1238 482 1238 q 549 1236 529 1238 q 588 1232 569 1235 l 747 1082 z "},"Õ":{"ha":1013,"x_min":85,"x_max":928,"o":"m 507 -17 q 319 22 399 -17 q 188 128 240 60 q 110 292 136 197 q 85 499 85 386 q 110 706 85 611 q 188 869 136 800 q 319 976 240 938 q 507 1015 399 1015 q 694 976 615 1015 q 826 869 774 938 q 903 706 878 800 q 928 499 928 611 q 903 292 928 386 q 826 128 878 197 q 694 22 774 60 q 507 -17 615 -17 m 507 106 q 627 133 576 106 q 711 211 678 160 q 761 335 744 263 q 778 499 778 407 q 761 662 778 589 q 711 785 744 735 q 627 863 678 836 q 507 890 576 890 q 387 863 438 890 q 303 785 336 836 q 253 662 269 735 q 236 499 236 589 q 253 335 236 407 q 303 211 269 263 q 387 133 336 160 q 507 106 438 106 m 261 1193 q 319 1241 283 1218 q 401 1264 356 1264 q 460 1253 431 1264 q 517 1229 489 1242 q 572 1206 544 1217 q 626 1194 599 1194 q 673 1205 653 1194 q 721 1242 693 1215 q 767 1160 753 1203 q 708 1115 743 1136 q 628 1093 672 1093 q 568 1103 597 1093 q 511 1127 539 1114 q 456 1151 483 1140 q 403 1161 429 1161 q 353 1149 374 1161 q 307 1114 333 1138 q 279 1152 292 1133 q 261 1193 267 1171 z "},"Ö":{"ha":1013,"x_min":85,"x_max":928,"o":"m 507 -17 q 319 22 399 -17 q 188 128 240 60 q 110 292 136 197 q 85 499 85 386 q 110 706 85 611 q 188 869 136 800 q 319 976 240 938 q 507 1015 399 1015 q 694 976 615 1015 q 826 869 774 938 q 903 706 878 800 q 928 499 928 611 q 903 292 928 386 q 826 128 878 197 q 694 22 774 60 q 507 -17 615 -17 m 507 106 q 627 133 576 106 q 711 211 678 160 q 761 335 744 263 q 778 499 778 407 q 761 662 778 589 q 711 785 744 735 q 627 863 678 836 q 507 890 576 890 q 387 863 438 890 q 303 785 336 836 q 253 662 269 735 q 236 499 236 589 q 253 335 236 407 q 303 211 269 263 q 387 133 336 160 q 507 106 438 106 m 283 1096 q 279 1165 279 1131 q 283 1236 279 1200 q 321 1240 303 1239 q 356 1242 339 1242 q 393 1240 374 1242 q 429 1236 413 1239 q 435 1167 435 1204 q 429 1096 435 1128 q 394 1092 413 1093 q 357 1090 375 1090 q 322 1092 340 1090 q 283 1096 303 1093 m 582 1096 q 577 1131 579 1114 q 575 1165 575 1147 q 582 1236 575 1197 q 617 1240 599 1239 q 654 1242 636 1242 q 690 1240 671 1242 q 728 1236 708 1239 q 732 1167 732 1200 q 728 1096 732 1131 q 690 1092 708 1093 q 654 1090 672 1090 q 618 1092 638 1090 q 582 1096 599 1093 z "},"×":{"ha":833,"x_min":160,"x_max":672,"o":"m 329 492 q 244 576 286 533 q 161 660 203 618 q 201 707 178 685 q 249 749 224 729 l 417 579 q 500 663 458 622 q 585 747 542 704 q 672 660 635 710 q 504 492 589 575 q 672 324 589 408 q 631 276 654 299 q 585 238 608 253 l 418 404 l 247 236 q 160 324 196 271 l 329 492 z "},"Ø":{"ha":1006,"x_min":78,"x_max":924,"o":"m 503 -17 q 355 6 419 -17 q 240 69 290 28 l 190 0 q 135 -4 167 -4 q 78 0 103 -4 l 178 138 q 105 297 129 206 q 81 499 81 389 q 106 706 81 611 q 184 869 132 800 q 315 976 236 938 q 503 1015 394 1015 q 646 994 582 1015 q 758 933 710 974 l 806 999 q 830 1003 817 1001 q 860 1004 843 1004 q 892 1003 878 1004 q 918 999 906 1001 l 822 867 q 899 704 874 797 q 924 499 924 611 q 899 292 924 386 q 822 128 874 197 q 690 22 769 60 q 503 -17 611 -17 m 503 106 q 623 133 572 106 q 707 211 674 160 q 757 335 740 263 q 774 499 774 407 q 731 742 774 643 l 321 181 q 503 106 389 106 m 232 499 q 269 264 232 357 l 676 822 q 503 890 611 890 q 383 863 433 890 q 299 785 332 836 q 249 662 265 735 q 232 499 232 589 z "},"Ù":{"ha":936,"x_min":113,"x_max":824,"o":"m 113 999 q 185 1003 146 1003 q 254 999 222 1003 l 254 432 q 265 285 254 346 q 301 185 276 224 q 367 129 326 147 q 468 111 408 111 q 568 129 528 111 q 633 185 608 147 q 669 285 658 224 q 681 432 681 346 l 681 999 q 751 1003 715 1003 q 824 999 790 1003 l 824 407 q 805 228 824 307 q 744 94 786 149 q 633 12 701 40 q 468 -17 565 -17 q 303 12 371 -17 q 192 94 235 40 q 131 228 150 149 q 113 407 113 307 l 113 999 m 236 1232 q 280 1237 256 1235 q 329 1239 304 1239 q 380 1237 354 1239 q 428 1232 406 1235 l 574 1082 q 503 1076 542 1076 q 464 1078 483 1076 q 426 1082 444 1079 l 236 1232 z "},"Ú":{"ha":936,"x_min":113,"x_max":824,"o":"m 113 999 q 185 1003 146 1003 q 254 999 222 1003 l 254 432 q 265 285 254 346 q 301 185 276 224 q 367 129 326 147 q 468 111 408 111 q 568 129 528 111 q 633 185 608 147 q 669 285 658 224 q 681 432 681 346 l 681 999 q 751 1003 715 1003 q 824 999 790 1003 l 824 407 q 805 228 824 307 q 744 94 786 149 q 633 12 701 40 q 468 -17 565 -17 q 303 12 371 -17 q 192 94 235 40 q 131 228 150 149 q 113 407 113 307 l 113 999 m 519 1082 q 482 1078 501 1079 q 443 1076 463 1076 q 407 1078 424 1076 q 371 1082 390 1079 l 518 1232 q 565 1237 540 1235 q 615 1239 590 1239 q 665 1237 642 1239 q 708 1232 689 1235 l 519 1082 z "},"Û":{"ha":936,"x_min":113,"x_max":824,"o":"m 113 999 q 185 1003 146 1003 q 254 999 222 1003 l 254 432 q 265 285 254 346 q 301 185 276 224 q 367 129 326 147 q 468 111 408 111 q 568 129 528 111 q 633 185 608 147 q 669 285 658 224 q 681 432 681 346 l 681 999 q 751 1003 715 1003 q 824 999 790 1003 l 824 407 q 805 228 824 307 q 744 94 786 149 q 633 12 701 40 q 468 -17 565 -17 q 303 12 371 -17 q 192 94 235 40 q 131 228 150 149 q 113 407 113 307 l 113 999 m 710 1082 q 682 1078 697 1079 q 653 1076 667 1076 l 622 1076 q 588 1078 607 1076 q 558 1082 569 1079 l 468 1167 l 378 1082 q 346 1078 365 1079 q 313 1076 326 1076 l 281 1076 q 252 1078 267 1076 q 224 1082 238 1079 l 388 1232 q 424 1236 403 1235 q 468 1238 444 1238 q 512 1236 492 1238 q 550 1232 532 1235 l 710 1082 z "},"Ü":{"ha":936,"x_min":113,"x_max":824,"o":"m 113 999 q 185 1003 146 1003 q 254 999 222 1003 l 254 432 q 265 285 254 346 q 301 185 276 224 q 367 129 326 147 q 468 111 408 111 q 568 129 528 111 q 633 185 608 147 q 669 285 658 224 q 681 432 681 346 l 681 999 q 751 1003 715 1003 q 824 999 790 1003 l 824 407 q 805 228 824 307 q 744 94 786 149 q 633 12 701 40 q 468 -17 565 -17 q 303 12 371 -17 q 192 94 235 40 q 131 228 150 149 q 113 407 113 307 l 113 999 m 246 1096 q 242 1165 242 1131 q 246 1236 242 1200 q 283 1240 265 1239 q 318 1242 301 1242 q 356 1240 336 1242 q 392 1236 375 1239 q 397 1167 397 1204 q 392 1096 397 1128 q 356 1092 375 1093 q 319 1090 338 1090 q 284 1092 303 1090 q 246 1096 265 1093 m 544 1096 q 540 1131 542 1114 q 538 1165 538 1147 q 544 1236 538 1197 q 580 1240 561 1239 q 617 1242 599 1242 q 652 1240 633 1242 q 690 1236 671 1239 q 694 1167 694 1200 q 690 1096 694 1131 q 653 1092 671 1093 q 617 1090 635 1090 q 581 1092 600 1090 q 544 1096 561 1093 z "},"Ý":{"ha":822,"x_min":25,"x_max":797,"o":"m 342 365 l 25 999 q 64 1003 43 1001 q 106 1004 85 1004 q 145 1003 124 1004 q 183 999 167 1001 l 417 503 l 647 999 q 683 1003 665 1001 q 721 1004 701 1004 q 760 1003 740 1004 q 797 999 779 1001 l 485 365 l 485 0 q 449 -4 467 -3 q 413 -6 431 -6 q 376 -4 394 -6 q 342 0 357 -3 l 342 365 m 465 1082 q 428 1078 447 1079 q 389 1076 408 1076 q 353 1078 369 1076 q 317 1082 336 1079 l 464 1232 q 511 1237 486 1235 q 561 1239 536 1239 q 611 1237 588 1239 q 654 1232 635 1235 l 465 1082 z "},"Þ":{"ha":807,"x_min":121,"x_max":733,"o":"m 263 843 q 306 847 286 846 q 350 847 326 847 q 491 831 422 847 q 614 776 560 815 q 701 673 668 738 q 733 511 733 608 q 701 351 733 415 q 614 248 668 286 q 491 194 560 210 q 350 178 422 178 q 306 178 326 178 q 263 181 286 179 l 263 0 q 227 -3 246 -3 q 192 -4 208 -4 q 155 -3 174 -4 q 121 0 136 -3 l 121 999 q 192 1003 154 1003 q 227 1002 208 1003 q 263 999 246 1001 l 263 843 m 350 300 q 435 308 393 300 q 511 340 478 317 q 565 406 544 364 q 586 513 586 447 q 565 619 586 578 q 511 684 544 661 q 435 715 478 707 q 350 724 393 724 q 306 722 322 724 q 263 718 290 721 l 263 306 q 305 301 289 303 q 350 300 321 300 z "},"ß":{"ha":794,"x_min":110,"x_max":740,"o":"m 110 685 q 124 829 110 765 q 170 938 138 893 q 256 1007 203 983 q 388 1031 310 1031 q 504 1013 456 1031 q 584 964 553 994 q 630 892 615 933 q 644 806 644 851 q 625 701 644 743 q 582 625 606 658 q 539 563 558 592 q 519 496 519 533 q 536 447 519 467 q 577 410 553 426 q 630 375 601 393 q 683 333 658 357 q 724 274 707 308 q 740 188 740 239 q 679 40 740 97 q 497 -17 618 -17 q 405 -8 444 -17 q 329 17 365 1 q 341 72 332 44 q 361 126 350 100 q 424 103 393 111 q 486 96 454 96 q 567 116 533 96 q 601 192 601 136 q 585 247 601 225 q 545 285 569 268 q 492 318 521 301 q 440 356 464 335 q 399 408 415 378 q 383 486 383 439 q 403 570 383 535 q 445 639 422 606 q 488 710 468 672 q 507 800 507 747 q 476 886 507 854 q 385 918 444 918 q 273 862 301 918 q 244 682 244 806 l 244 0 q 211 -4 229 -3 q 178 -6 193 -6 q 144 -4 163 -6 q 110 0 125 -3 l 110 685 z "},"à":{"ha":718,"x_min":67,"x_max":622,"o":"m 488 335 q 435 340 467 338 q 381 343 403 343 q 249 311 294 343 q 204 214 204 279 q 219 149 204 172 q 258 113 235 125 q 308 97 281 100 q 361 94 336 94 q 427 98 393 94 q 488 108 461 101 l 488 335 m 488 469 q 446 583 488 551 q 325 615 404 615 q 234 608 276 615 q 151 588 192 600 q 125 697 125 633 q 229 721 172 713 q 339 729 286 729 q 550 666 478 729 q 622 464 622 603 l 622 18 q 504 -5 574 7 q 363 -17 435 -17 q 240 -4 294 -17 q 147 36 185 8 q 88 107 108 64 q 67 211 67 150 q 91 316 67 271 q 157 391 115 361 q 253 435 199 421 q 367 450 307 450 q 440 448 411 450 q 488 443 468 446 l 488 469 m 129 1001 q 171 1006 150 1004 q 217 1007 192 1007 q 262 1006 239 1007 q 306 1001 285 1004 l 465 825 q 400 819 433 819 q 360 821 379 819 q 326 825 342 822 l 129 1001 z "},"á":{"ha":718,"x_min":67,"x_max":622,"o":"m 488 335 q 435 340 467 338 q 381 343 403 343 q 249 311 294 343 q 204 214 204 279 q 219 149 204 172 q 258 113 235 125 q 308 97 281 100 q 361 94 336 94 q 427 98 393 94 q 488 108 461 101 l 488 335 m 488 469 q 446 583 488 551 q 325 615 404 615 q 234 608 276 615 q 151 588 192 600 q 125 697 125 633 q 229 721 172 713 q 339 729 286 729 q 550 666 478 729 q 622 464 622 603 l 622 18 q 504 -5 574 7 q 363 -17 435 -17 q 240 -4 294 -17 q 147 36 185 8 q 88 107 108 64 q 67 211 67 150 q 91 316 67 271 q 157 391 115 361 q 253 435 199 421 q 367 450 307 450 q 440 448 411 450 q 488 443 468 446 l 488 469 m 358 825 q 325 821 343 822 q 285 819 307 819 q 253 821 269 819 q 221 825 238 822 l 381 1001 q 424 1006 401 1004 q 469 1007 446 1007 q 515 1006 494 1007 q 556 1001 536 1004 l 358 825 z "},"â":{"ha":718,"x_min":67,"x_max":622,"o":"m 488 335 q 435 340 467 338 q 381 343 403 343 q 249 311 294 343 q 204 214 204 279 q 219 149 204 172 q 258 113 235 125 q 308 97 281 100 q 361 94 336 94 q 427 98 393 94 q 488 108 461 101 l 488 335 m 488 469 q 446 583 488 551 q 325 615 404 615 q 234 608 276 615 q 151 588 192 600 q 125 697 125 633 q 229 721 172 713 q 339 729 286 729 q 550 666 478 729 q 622 464 622 603 l 622 18 q 504 -5 574 7 q 363 -17 435 -17 q 240 -4 294 -17 q 147 36 185 8 q 88 107 108 64 q 67 211 67 150 q 91 316 67 271 q 157 391 115 361 q 253 435 199 421 q 367 450 307 450 q 440 448 411 450 q 488 443 468 446 l 488 469 m 579 825 q 551 821 567 822 q 517 819 535 819 q 477 821 499 819 q 438 825 456 822 l 347 936 l 257 825 q 222 821 242 822 q 183 819 201 819 q 115 825 143 819 l 267 1001 q 308 1006 285 1004 q 351 1007 331 1007 q 388 1006 367 1007 q 429 1000 410 1004 l 579 825 z "},"ã":{"ha":718,"x_min":67,"x_max":622,"o":"m 488 335 q 435 340 467 338 q 381 343 403 343 q 249 311 294 343 q 204 214 204 279 q 219 149 204 172 q 258 113 235 125 q 308 97 281 100 q 361 94 336 94 q 427 98 393 94 q 488 108 461 101 l 488 335 m 488 469 q 446 583 488 551 q 325 615 404 615 q 234 608 276 615 q 151 588 192 600 q 125 697 125 633 q 229 721 172 713 q 339 729 286 729 q 550 666 478 729 q 622 464 622 603 l 622 18 q 504 -5 574 7 q 363 -17 435 -17 q 240 -4 294 -17 q 147 36 185 8 q 88 107 108 64 q 67 211 67 150 q 91 316 67 271 q 157 391 115 361 q 253 435 199 421 q 367 450 307 450 q 440 448 411 450 q 488 443 468 446 l 488 469 m 118 928 q 172 976 139 956 q 251 996 206 996 q 307 986 281 996 q 358 965 333 976 q 407 944 382 954 q 460 935 432 935 q 503 943 483 935 q 553 978 524 951 q 597 893 583 940 q 541 847 575 867 q 463 828 507 828 q 407 838 433 828 q 356 858 381 847 q 306 879 331 869 q 256 889 282 889 q 208 879 228 889 q 161 846 189 869 q 135 885 146 865 q 118 928 124 906 z "},"ä":{"ha":718,"x_min":67,"x_max":622,"o":"m 488 335 q 435 340 467 338 q 381 343 403 343 q 249 311 294 343 q 204 214 204 279 q 219 149 204 172 q 258 113 235 125 q 308 97 281 100 q 361 94 336 94 q 427 98 393 94 q 488 108 461 101 l 488 335 m 488 469 q 446 583 488 551 q 325 615 404 615 q 234 608 276 615 q 151 588 192 600 q 125 697 125 633 q 229 721 172 713 q 339 729 286 729 q 550 666 478 729 q 622 464 622 603 l 622 18 q 504 -5 574 7 q 363 -17 435 -17 q 240 -4 294 -17 q 147 36 185 8 q 88 107 108 64 q 67 211 67 150 q 91 316 67 271 q 157 391 115 361 q 253 435 199 421 q 367 450 307 450 q 440 448 411 450 q 488 443 468 446 l 488 469 m 151 839 q 147 874 149 857 q 146 908 146 890 q 147 942 146 925 q 151 978 149 960 q 187 982 168 981 q 222 983 206 983 q 256 982 238 983 q 293 978 275 981 q 299 908 299 946 q 297 874 299 892 q 293 839 296 857 q 222 835 257 835 q 188 835 207 835 q 151 839 168 836 m 435 839 q 429 908 429 871 q 431 942 429 925 q 435 978 432 960 q 470 982 451 981 q 504 983 489 983 q 540 982 521 983 q 576 978 558 981 q 581 908 581 942 q 576 839 581 874 q 506 835 540 835 q 471 835 490 835 q 435 839 451 836 z "},"å":{"ha":718,"x_min":67,"x_max":622,"o":"m 488 335 q 435 340 467 338 q 381 343 403 343 q 249 311 294 343 q 204 214 204 279 q 219 149 204 172 q 258 113 235 125 q 308 97 281 100 q 361 94 336 94 q 427 98 393 94 q 488 108 461 101 l 488 335 m 488 469 q 446 583 488 551 q 325 615 404 615 q 234 608 276 615 q 151 588 192 600 q 125 697 125 633 q 229 721 172 713 q 339 729 286 729 q 550 666 478 729 q 622 464 622 603 l 622 18 q 504 -5 574 7 q 363 -17 435 -17 q 240 -4 294 -17 q 147 36 185 8 q 88 107 108 64 q 67 211 67 150 q 91 316 67 271 q 157 391 115 361 q 253 435 199 421 q 367 450 307 450 q 440 448 411 450 q 488 443 468 446 l 488 469 m 217 963 q 258 1070 217 1029 q 367 1111 300 1111 q 475 1070 433 1111 q 517 963 517 1029 q 475 855 517 896 q 367 814 433 814 q 258 855 300 814 q 217 963 217 896 m 367 885 q 418 906 400 885 q 436 963 436 926 q 418 1019 436 999 q 367 1040 400 1040 q 316 1019 333 1040 q 299 963 299 999 q 316 906 299 926 q 367 885 333 885 z "},"æ":{"ha":1165,"x_min":61,"x_max":1096,"o":"m 481 469 q 440 583 481 551 q 321 615 400 615 q 230 608 274 615 q 147 588 186 600 q 121 697 121 633 q 224 721 168 713 q 335 729 281 729 q 474 702 418 729 q 568 618 531 675 q 665 699 607 668 q 801 729 724 729 q 928 704 874 729 q 1021 635 983 679 q 1077 531 1058 592 q 1096 400 1096 471 q 1094 360 1096 382 q 1090 324 1093 339 l 614 324 q 671 149 614 201 q 844 97 728 97 q 938 106 894 97 q 1026 132 982 115 q 1043 81 1036 111 q 1051 22 1050 51 q 832 -17 957 -17 q 697 -1 760 -17 q 589 51 635 15 q 478 3 544 24 q 336 -17 413 -17 q 226 -4 276 -17 q 139 36 175 8 q 82 107 103 64 q 61 211 61 150 q 85 315 61 271 q 151 389 110 360 q 247 433 193 418 q 363 447 301 447 q 428 445 399 447 q 481 440 457 443 l 481 469 m 478 331 q 431 335 457 333 q 381 338 404 338 q 247 308 293 338 q 200 210 200 278 q 215 146 200 169 q 253 110 231 122 q 301 95 275 99 q 349 92 326 92 q 439 101 393 92 q 518 135 485 111 q 490 213 499 168 q 479 304 481 258 l 478 331 m 963 426 q 953 501 963 465 q 923 563 943 536 q 872 604 903 589 q 800 619 842 619 q 669 569 714 619 q 615 426 625 518 l 963 426 z "},"ç":{"ha":664,"x_min":71,"x_max":615,"o":"m 586 122 q 606 74 597 103 q 615 14 614 44 q 523 -9 571 -1 q 417 -17 475 -17 l 392 -79 q 417 -78 399 -78 q 526 -111 489 -78 q 563 -196 563 -144 q 508 -300 563 -265 q 361 -335 453 -335 q 313 -332 342 -335 q 256 -318 283 -329 q 260 -277 257 -299 q 275 -237 264 -256 q 361 -253 321 -253 q 431 -238 404 -253 q 457 -197 457 -224 q 432 -158 457 -169 q 365 -147 407 -147 q 326 -150 346 -147 q 289 -157 307 -153 q 281 -150 286 -156 q 333 -8 307 -76 q 136 112 201 17 q 71 356 71 207 q 92 503 71 435 q 158 621 114 571 q 266 700 201 671 q 417 729 331 729 q 519 722 474 729 q 606 699 565 714 q 599 644 606 675 q 582 590 593 614 q 510 608 547 601 q 428 614 472 614 q 265 544 319 614 q 211 356 211 474 q 273 160 211 222 q 438 97 335 97 q 514 103 479 97 q 586 122 549 108 z "},"è":{"ha":772,"x_min":68,"x_max":703,"o":"m 214 322 q 274 151 217 206 q 444 97 332 97 q 632 132 543 97 q 650 81 643 111 q 658 22 657 51 q 558 -7 613 3 q 436 -17 503 -17 q 269 10 339 -17 q 155 87 200 38 q 89 203 110 136 q 68 351 68 271 q 88 499 68 431 q 150 619 108 568 q 255 699 192 669 q 404 729 318 729 q 533 704 478 729 q 626 635 589 679 q 683 531 664 592 q 703 400 703 471 q 701 359 703 381 q 699 322 700 338 l 214 322 m 567 425 q 556 499 567 464 q 526 561 546 535 q 474 603 506 588 q 400 619 443 619 q 270 568 315 619 q 215 425 225 517 l 567 425 m 185 1001 q 226 1006 206 1004 q 272 1007 247 1007 q 317 1006 294 1007 q 361 1001 340 1004 l 521 825 q 456 819 489 819 q 416 821 435 819 q 382 825 397 822 l 185 1001 z "},"é":{"ha":772,"x_min":68,"x_max":703,"o":"m 214 322 q 274 151 217 206 q 444 97 332 97 q 632 132 543 97 q 650 81 643 111 q 658 22 657 51 q 558 -7 613 3 q 436 -17 503 -17 q 269 10 339 -17 q 155 87 200 38 q 89 203 110 136 q 68 351 68 271 q 88 499 68 431 q 150 619 108 568 q 255 699 192 669 q 404 729 318 729 q 533 704 478 729 q 626 635 589 679 q 683 531 664 592 q 703 400 703 471 q 701 359 703 381 q 699 322 700 338 l 214 322 m 567 425 q 556 499 567 464 q 526 561 546 535 q 474 603 506 588 q 400 619 443 619 q 270 568 315 619 q 215 425 225 517 l 567 425 m 418 825 q 385 821 403 822 q 344 819 367 819 q 313 821 329 819 q 281 825 297 822 l 440 1001 q 483 1006 461 1004 q 529 1007 506 1007 q 575 1006 554 1007 q 615 1001 596 1004 l 418 825 z "},"ê":{"ha":772,"x_min":68,"x_max":703,"o":"m 214 322 q 274 151 217 206 q 444 97 332 97 q 632 132 543 97 q 650 81 643 111 q 658 22 657 51 q 558 -7 613 3 q 436 -17 503 -17 q 269 10 339 -17 q 155 87 200 38 q 89 203 110 136 q 68 351 68 271 q 88 499 68 431 q 150 619 108 568 q 255 699 192 669 q 404 729 318 729 q 533 704 478 729 q 626 635 589 679 q 683 531 664 592 q 703 400 703 471 q 701 359 703 381 q 699 322 700 338 l 214 322 m 567 425 q 556 499 567 464 q 526 561 546 535 q 474 603 506 588 q 400 619 443 619 q 270 568 315 619 q 215 425 225 517 l 567 425 m 629 825 q 601 821 617 822 q 567 819 585 819 q 527 821 549 819 q 488 825 506 822 l 397 936 l 307 825 q 272 821 292 822 q 233 819 251 819 q 165 825 193 819 l 317 1001 q 358 1006 335 1004 q 401 1007 381 1007 q 438 1006 417 1007 q 479 1000 460 1004 l 629 825 z "},"ë":{"ha":772,"x_min":68,"x_max":703,"o":"m 214 322 q 274 151 217 206 q 444 97 332 97 q 632 132 543 97 q 650 81 643 111 q 658 22 657 51 q 558 -7 613 3 q 436 -17 503 -17 q 269 10 339 -17 q 155 87 200 38 q 89 203 110 136 q 68 351 68 271 q 88 499 68 431 q 150 619 108 568 q 255 699 192 669 q 404 729 318 729 q 533 704 478 729 q 626 635 589 679 q 683 531 664 592 q 703 400 703 471 q 701 359 703 381 q 699 322 700 338 l 214 322 m 567 425 q 556 499 567 464 q 526 561 546 535 q 474 603 506 588 q 400 619 443 619 q 270 568 315 619 q 215 425 225 517 l 567 425 m 179 839 q 175 874 176 857 q 174 908 174 890 q 175 942 174 925 q 179 978 176 960 q 215 982 196 981 q 250 983 233 983 q 284 982 265 983 q 321 978 303 981 q 326 908 326 946 q 325 874 326 892 q 321 839 324 857 q 250 835 285 835 q 215 835 235 835 q 179 839 196 836 m 463 839 q 457 908 457 871 q 458 942 457 925 q 463 978 460 960 q 498 982 479 981 q 532 983 517 983 q 567 982 549 983 q 604 978 586 981 q 608 908 608 942 q 604 839 608 874 q 533 835 568 835 q 499 835 518 835 q 463 839 479 836 z "},"ì":{"ha":400,"x_min":-19,"x_max":317,"o":"m 153 604 l 63 604 q 58 630 60 615 q 57 658 57 644 q 58 687 57 672 q 63 713 60 701 l 288 713 l 288 0 q 253 -4 272 -3 q 219 -6 235 -6 q 187 -4 206 -6 q 153 0 168 -3 l 153 604 m -19 1001 q 22 1006 1 1004 q 68 1007 43 1007 q 113 1006 90 1007 q 157 1001 136 1004 l 317 825 q 251 819 285 819 q 212 821 231 819 q 178 825 193 822 l -19 1001 z "},"í":{"ha":400,"x_min":57,"x_max":404,"o":"m 153 604 l 63 604 q 58 630 60 615 q 57 658 57 644 q 58 687 57 672 q 63 713 60 701 l 288 713 l 288 0 q 253 -4 272 -3 q 219 -6 235 -6 q 187 -4 206 -6 q 153 0 168 -3 l 153 604 m 207 825 q 174 821 192 822 q 133 819 156 819 q 102 821 118 819 q 69 825 86 822 l 229 1001 q 272 1006 250 1004 q 318 1007 294 1007 q 364 1006 343 1007 q 404 1001 385 1004 l 207 825 z "},"î":{"ha":400,"x_min":-32,"x_max":432,"o":"m 153 604 l 63 604 q 58 630 60 615 q 57 658 57 644 q 58 687 57 672 q 63 713 60 701 l 288 713 l 288 0 q 253 -4 272 -3 q 219 -6 235 -6 q 187 -4 206 -6 q 153 0 168 -3 l 153 604 m 432 825 q 403 821 419 822 q 369 819 388 819 q 330 821 351 819 q 290 825 308 822 l 200 936 l 110 825 q 74 821 94 822 q 36 819 54 819 q -32 825 -4 819 l 119 1001 q 160 1006 138 1004 q 204 1007 183 1007 q 241 1006 219 1007 q 282 1000 263 1004 l 432 825 z "},"ï":{"ha":400,"x_min":-17,"x_max":418,"o":"m 153 604 l 63 604 q 58 630 60 615 q 57 658 57 644 q 58 687 57 672 q 63 713 60 701 l 288 713 l 288 0 q 253 -4 272 -3 q 219 -6 235 -6 q 187 -4 206 -6 q 153 0 168 -3 l 153 604 m -11 839 q -15 874 -14 857 q -17 908 -17 890 q -15 942 -17 925 q -11 978 -14 960 q 24 982 6 981 q 60 983 43 983 q 94 982 75 983 q 131 978 113 981 q 136 908 136 946 q 135 874 136 892 q 131 839 133 857 q 60 835 94 835 q 25 835 44 835 q -11 839 6 836 m 272 839 q 267 908 267 871 q 268 942 267 925 q 272 978 269 960 q 308 982 289 981 q 342 983 326 983 q 377 982 358 983 q 414 978 396 981 q 418 908 418 942 q 414 839 418 874 q 343 835 378 835 q 308 835 328 835 q 272 839 289 836 z "},"ð":{"ha":807,"x_min":71,"x_max":735,"o":"m 347 871 q 281 894 315 886 q 207 907 246 901 q 200 956 200 926 q 203 989 200 971 q 213 1022 207 1007 q 349 999 286 1018 q 465 947 413 979 l 588 1025 q 617 990 604 1011 q 640 950 631 969 q 592 920 617 935 q 543 890 568 906 q 686 672 638 803 q 735 385 735 540 q 715 219 735 293 q 653 92 694 144 q 550 12 613 40 q 403 -17 488 -17 q 256 9 318 -17 q 152 81 193 35 q 91 191 111 128 q 71 329 71 254 q 91 466 71 403 q 150 576 111 529 q 247 650 189 624 q 382 676 306 676 q 485 659 435 676 q 567 610 535 642 q 509 733 539 683 q 435 819 479 783 l 299 735 q 269 770 282 750 q 250 810 257 790 l 347 871 m 403 90 q 544 153 500 90 q 589 329 589 217 q 544 506 589 447 q 403 565 500 565 q 263 506 311 565 q 215 329 215 447 q 260 153 215 217 q 403 90 306 90 z "},"ñ":{"ha":803,"x_min":111,"x_max":707,"o":"m 111 713 q 141 717 126 715 q 171 718 156 718 q 199 717 186 718 q 228 713 213 715 q 236 656 232 692 q 240 597 240 621 q 276 644 254 621 q 325 687 297 668 q 389 717 353 706 q 468 729 425 729 q 649 659 590 729 q 707 451 707 589 l 707 0 q 672 -4 692 -3 q 638 -6 653 -6 q 603 -4 622 -6 q 569 0 585 -3 l 569 414 q 539 559 569 513 q 442 606 508 606 q 368 592 403 606 q 307 549 333 578 q 265 473 281 519 q 249 361 249 426 l 249 0 q 215 -4 233 -3 q 181 -6 196 -6 q 146 -4 165 -6 q 111 0 126 -3 l 111 713 m 164 928 q 218 976 185 956 q 297 996 251 996 q 353 986 326 996 q 403 965 379 976 q 453 944 428 954 q 506 935 478 935 q 549 943 529 935 q 599 978 569 951 q 643 893 629 940 q 587 847 621 867 q 508 828 553 828 q 453 838 479 828 q 401 858 426 847 q 352 879 376 869 q 301 889 328 889 q 254 879 274 889 q 207 846 235 869 q 181 885 192 865 q 164 928 169 906 z "},"ò":{"ha":801,"x_min":68,"x_max":732,"o":"m 400 -17 q 254 12 317 -17 q 150 90 192 40 q 88 208 108 140 q 68 356 68 276 q 88 503 68 435 q 150 621 108 571 q 254 700 192 671 q 400 729 317 729 q 546 700 483 729 q 650 621 608 671 q 712 503 692 571 q 732 356 732 435 q 712 208 732 276 q 650 90 692 140 q 546 12 608 40 q 400 -17 483 -17 m 400 93 q 542 163 496 93 q 588 356 588 232 q 542 548 588 479 q 400 617 496 617 q 259 548 304 617 q 214 356 214 479 q 259 163 214 232 q 400 93 304 93 m 176 1001 q 218 1006 197 1004 q 264 1007 239 1007 q 309 1006 286 1007 q 353 1001 332 1004 l 513 825 q 447 819 481 819 q 408 821 426 819 q 374 825 389 822 l 176 1001 z "},"ó":{"ha":801,"x_min":68,"x_max":732,"o":"m 400 -17 q 254 12 317 -17 q 150 90 192 40 q 88 208 108 140 q 68 356 68 276 q 88 503 68 435 q 150 621 108 571 q 254 700 192 671 q 400 729 317 729 q 546 700 483 729 q 650 621 608 671 q 712 503 692 571 q 732 356 732 435 q 712 208 732 276 q 650 90 692 140 q 546 12 608 40 q 400 -17 483 -17 m 400 93 q 542 163 496 93 q 588 356 588 232 q 542 548 588 479 q 400 617 496 617 q 259 548 304 617 q 214 356 214 479 q 259 163 214 232 q 400 93 304 93 m 408 825 q 375 821 393 822 q 335 819 357 819 q 303 821 319 819 q 271 825 288 822 l 431 1001 q 474 1006 451 1004 q 519 1007 496 1007 q 565 1006 544 1007 q 606 1001 586 1004 l 408 825 z "},"ô":{"ha":801,"x_min":68,"x_max":732,"o":"m 400 -17 q 254 12 317 -17 q 150 90 192 40 q 88 208 108 140 q 68 356 68 276 q 88 503 68 435 q 150 621 108 571 q 254 700 192 671 q 400 729 317 729 q 546 700 483 729 q 650 621 608 671 q 712 503 692 571 q 732 356 732 435 q 712 208 732 276 q 650 90 692 140 q 546 12 608 40 q 400 -17 483 -17 m 400 93 q 542 163 496 93 q 588 356 588 232 q 542 548 588 479 q 400 617 496 617 q 259 548 304 617 q 214 356 214 479 q 259 163 214 232 q 400 93 304 93 m 631 825 q 602 821 618 822 q 568 819 586 819 q 528 821 550 819 q 489 825 507 822 l 399 936 l 308 825 q 273 821 293 822 q 235 819 253 819 q 167 825 194 819 l 318 1001 q 359 1006 336 1004 q 403 1007 382 1007 q 440 1006 418 1007 q 481 1000 461 1004 l 631 825 z "},"õ":{"ha":801,"x_min":68,"x_max":732,"o":"m 400 -17 q 254 12 317 -17 q 150 90 192 40 q 88 208 108 140 q 68 356 68 276 q 88 503 68 435 q 150 621 108 571 q 254 700 192 671 q 400 729 317 729 q 546 700 483 729 q 650 621 608 671 q 712 503 692 571 q 732 356 732 435 q 712 208 732 276 q 650 90 692 140 q 546 12 608 40 q 400 -17 483 -17 m 400 93 q 542 163 496 93 q 588 356 588 232 q 542 548 588 479 q 400 617 496 617 q 259 548 304 617 q 214 356 214 479 q 259 163 214 232 q 400 93 304 93 m 160 928 q 214 976 181 956 q 293 996 247 996 q 349 986 322 996 q 399 965 375 976 q 449 944 424 954 q 501 935 474 935 q 545 943 525 935 q 594 978 565 951 q 639 893 625 940 q 583 847 617 867 q 504 828 549 828 q 449 838 475 828 q 397 858 422 847 q 348 879 372 869 q 297 889 324 889 q 250 879 269 889 q 203 846 231 869 q 176 885 188 865 q 160 928 165 906 z "},"ö":{"ha":801,"x_min":68,"x_max":732,"o":"m 400 -17 q 254 12 317 -17 q 150 90 192 40 q 88 208 108 140 q 68 356 68 276 q 88 503 68 435 q 150 621 108 571 q 254 700 192 671 q 400 729 317 729 q 546 700 483 729 q 650 621 608 671 q 712 503 692 571 q 732 356 732 435 q 712 208 732 276 q 650 90 692 140 q 546 12 608 40 q 400 -17 483 -17 m 400 93 q 542 163 496 93 q 588 356 588 232 q 542 548 588 479 q 400 617 496 617 q 259 548 304 617 q 214 356 214 479 q 259 163 214 232 q 400 93 304 93 m 186 839 q 182 874 183 857 q 181 908 181 890 q 182 942 181 925 q 186 978 183 960 q 222 982 203 981 q 257 983 240 983 q 291 982 272 983 q 328 978 310 981 q 333 908 333 946 q 332 874 333 892 q 328 839 331 857 q 257 835 292 835 q 222 835 242 835 q 186 839 203 836 m 469 839 q 464 908 464 871 q 465 942 464 925 q 469 978 467 960 q 505 982 486 981 q 539 983 524 983 q 574 982 556 983 q 611 978 593 981 q 615 908 615 942 q 611 839 615 874 q 540 835 575 835 q 506 835 525 835 q 469 839 486 836 z "},"÷":{"ha":833,"x_min":118,"x_max":717,"o":"m 317 743 q 344 811 317 783 q 413 839 372 839 q 480 811 451 839 q 508 743 508 783 q 480 676 508 703 q 413 649 451 649 q 344 676 372 649 q 317 743 317 703 m 317 242 q 344 309 317 281 q 413 338 372 338 q 480 309 451 338 q 508 242 508 281 q 480 174 508 201 q 413 146 451 146 q 344 174 372 146 q 317 242 317 201 m 711 553 q 715 522 714 539 q 717 489 717 504 q 715 456 717 474 q 711 426 714 439 l 122 426 q 119 456 119 439 q 118 489 118 474 q 119 522 118 504 q 122 553 119 539 l 711 553 z "},"ø":{"ha":801,"x_min":71,"x_max":740,"o":"m 400 -17 q 211 36 288 -17 l 185 1 q 135 -4 163 -4 q 82 0 103 -4 l 153 90 q 91 208 111 140 q 71 356 71 276 q 91 503 71 435 q 152 621 111 571 q 255 700 193 671 q 400 729 317 729 q 513 712 463 729 q 603 664 564 694 l 638 707 q 689 713 658 713 q 740 708 719 713 l 658 606 q 712 492 694 556 q 729 356 729 429 q 709 208 729 276 q 648 90 689 140 q 545 12 607 40 q 400 -17 483 -17 m 213 356 q 239 199 213 260 l 526 567 q 400 617 479 617 q 258 548 304 617 q 213 356 213 479 m 400 93 q 542 163 496 93 q 589 356 589 232 q 584 429 589 396 q 569 492 579 463 l 286 131 q 400 93 329 93 z "},"ù":{"ha":797,"x_min":103,"x_max":692,"o":"m 103 713 q 138 717 118 715 q 171 718 157 718 q 206 717 186 718 q 240 713 225 715 l 240 322 q 253 212 240 256 q 290 143 265 168 q 351 108 315 118 q 435 99 388 99 q 556 114 506 99 l 556 713 q 590 717 571 715 q 624 718 608 718 q 658 717 639 718 q 692 713 676 715 l 692 22 q 576 -4 643 8 q 436 -17 508 -17 q 308 -5 368 -17 q 201 43 247 7 q 129 144 156 79 q 103 317 103 210 l 103 713 m 179 1001 q 221 1006 200 1004 q 267 1007 242 1007 q 312 1006 289 1007 q 356 1001 335 1004 l 515 825 q 450 819 483 819 q 410 821 429 819 q 376 825 392 822 l 179 1001 z "},"ú":{"ha":797,"x_min":103,"x_max":692,"o":"m 103 713 q 138 717 118 715 q 171 718 157 718 q 206 717 186 718 q 240 713 225 715 l 240 322 q 253 212 240 256 q 290 143 265 168 q 351 108 315 118 q 435 99 388 99 q 556 114 506 99 l 556 713 q 590 717 571 715 q 624 718 608 718 q 658 717 639 718 q 692 713 676 715 l 692 22 q 576 -4 643 8 q 436 -17 508 -17 q 308 -5 368 -17 q 201 43 247 7 q 129 144 156 79 q 103 317 103 210 l 103 713 m 435 825 q 401 821 419 822 q 361 819 383 819 q 330 821 346 819 q 297 825 314 822 l 457 1001 q 500 1006 478 1004 q 546 1007 522 1007 q 592 1006 571 1007 q 632 1001 613 1004 l 435 825 z "},"û":{"ha":797,"x_min":103,"x_max":692,"o":"m 103 713 q 138 717 118 715 q 171 718 157 718 q 206 717 186 718 q 240 713 225 715 l 240 322 q 253 212 240 256 q 290 143 265 168 q 351 108 315 118 q 435 99 388 99 q 556 114 506 99 l 556 713 q 590 717 571 715 q 624 718 608 718 q 658 717 639 718 q 692 713 676 715 l 692 22 q 576 -4 643 8 q 436 -17 508 -17 q 308 -5 368 -17 q 201 43 247 7 q 129 144 156 79 q 103 317 103 210 l 103 713 m 629 825 q 601 821 617 822 q 567 819 585 819 q 527 821 549 819 q 488 825 506 822 l 397 936 l 307 825 q 272 821 292 822 q 233 819 251 819 q 165 825 193 819 l 317 1001 q 358 1006 335 1004 q 401 1007 381 1007 q 438 1006 417 1007 q 479 1000 460 1004 l 629 825 z "},"ü":{"ha":797,"x_min":103,"x_max":692,"o":"m 103 713 q 138 717 118 715 q 171 718 157 718 q 206 717 186 718 q 240 713 225 715 l 240 322 q 253 212 240 256 q 290 143 265 168 q 351 108 315 118 q 435 99 388 99 q 556 114 506 99 l 556 713 q 590 717 571 715 q 624 718 608 718 q 658 717 639 718 q 692 713 676 715 l 692 22 q 576 -4 643 8 q 436 -17 508 -17 q 308 -5 368 -17 q 201 43 247 7 q 129 144 156 79 q 103 317 103 210 l 103 713 m 193 839 q 189 874 190 857 q 188 908 188 890 q 189 942 188 925 q 193 978 190 960 q 228 982 210 981 q 264 983 247 983 q 298 982 279 983 q 335 978 317 981 q 340 908 340 946 q 339 874 340 892 q 335 839 338 857 q 264 835 299 835 q 229 835 249 835 q 193 839 210 836 m 476 839 q 471 908 471 871 q 472 942 471 925 q 476 978 474 960 q 512 982 493 981 q 546 983 531 983 q 581 982 563 983 q 618 978 600 981 q 622 908 622 942 q 618 839 622 874 q 547 835 582 835 q 513 835 532 835 q 476 839 493 836 z "},"ý":{"ha":735,"x_min":18,"x_max":713,"o":"m 354 -1 q 331 -2 343 -1 q 308 -3 319 -3 q 279 -2 294 -3 q 254 0 264 -1 l 18 713 q 56 716 36 715 q 92 717 75 717 q 132 716 110 717 q 169 713 154 715 l 367 50 l 571 713 q 639 717 600 717 q 674 716 654 717 q 713 713 693 715 l 436 -144 q 396 -240 417 -201 q 349 -303 375 -279 q 290 -336 322 -326 q 214 -346 257 -346 q 151 -341 182 -346 q 96 -329 119 -336 q 101 -272 96 -297 q 118 -222 107 -247 q 152 -231 131 -226 q 199 -236 174 -236 q 233 -233 217 -236 q 263 -219 249 -229 q 288 -189 276 -208 q 311 -136 300 -169 l 354 -1 m 382 825 q 349 821 367 822 q 308 819 331 819 q 277 821 293 819 q 244 825 261 822 l 404 1001 q 447 1006 425 1004 q 493 1007 469 1007 q 539 1006 518 1007 q 579 1001 560 1004 l 382 825 z "},"þ":{"ha":819,"x_min":108,"x_max":746,"o":"m 108 1018 q 144 1022 125 1021 q 178 1022 163 1022 q 212 1022 193 1022 q 246 1018 231 1021 l 246 622 q 326 697 274 664 q 457 729 378 729 q 573 708 519 729 q 665 642 626 686 q 724 532 703 599 q 746 374 746 465 q 647 87 746 190 q 364 -17 547 -17 q 303 -12 335 -17 q 246 0 271 -7 l 246 -328 q 211 -331 231 -331 q 178 -332 192 -332 q 144 -331 163 -332 q 108 -328 125 -331 l 108 1018 m 246 117 q 301 102 272 107 q 372 97 329 97 q 464 113 422 97 q 535 163 506 129 q 583 247 565 196 q 600 368 600 299 q 560 543 600 478 q 426 608 519 608 q 359 597 392 608 q 301 560 326 585 q 261 497 276 535 q 246 406 246 458 l 246 117 z "},"ÿ":{"ha":735,"x_min":18,"x_max":713,"o":"m 354 -1 q 331 -2 343 -1 q 308 -3 319 -3 q 279 -2 294 -3 q 254 0 264 -1 l 18 713 q 56 716 36 715 q 92 717 75 717 q 132 716 110 717 q 169 713 154 715 l 367 50 l 571 713 q 639 717 600 717 q 674 716 654 717 q 713 713 693 715 l 436 -144 q 396 -240 417 -201 q 349 -303 375 -279 q 290 -336 322 -326 q 214 -346 257 -346 q 151 -341 182 -346 q 96 -329 119 -336 q 101 -272 96 -297 q 118 -222 107 -247 q 152 -231 131 -226 q 199 -236 174 -236 q 233 -233 217 -236 q 263 -219 249 -229 q 288 -189 276 -208 q 311 -136 300 -169 l 354 -1 m 154 839 q 150 874 151 857 q 149 908 149 890 q 150 942 149 925 q 154 978 151 960 q 190 982 171 981 q 225 983 208 983 q 259 982 240 983 q 296 978 278 981 q 301 908 301 946 q 300 874 301 892 q 296 839 299 857 q 225 835 260 835 q 190 835 210 835 q 154 839 171 836 m 438 839 q 432 908 432 871 q 433 942 432 925 q 438 978 435 960 q 473 982 454 981 q 507 983 492 983 q 542 982 524 983 q 579 978 561 981 q 583 908 583 942 q 579 839 583 874 q 508 835 543 835 q 474 835 493 835 q 438 839 454 836 z "},"Ā":{"ha":857,"x_min":22,"x_max":833,"o":"m 614 231 l 235 231 l 167 0 q 131 -4 149 -3 q 94 -6 113 -6 q 56 -4 75 -6 q 22 0 38 -3 l 347 999 q 386 1003 365 1001 q 429 1004 407 1004 q 469 1003 449 1004 q 510 999 490 1001 l 833 0 q 796 -4 817 -3 q 756 -6 775 -6 q 719 -4 738 -6 q 683 0 700 -3 l 614 231 m 272 354 l 576 354 l 424 864 l 272 354 m 649 1207 q 652 1181 651 1196 q 653 1154 653 1167 q 652 1128 653 1142 q 649 1103 651 1114 l 206 1103 q 201 1128 203 1114 q 200 1154 200 1142 q 201 1181 200 1167 q 206 1207 203 1196 l 649 1207 z "},"ā":{"ha":718,"x_min":67,"x_max":622,"o":"m 488 335 q 435 340 467 338 q 381 343 403 343 q 249 311 294 343 q 204 214 204 279 q 219 149 204 172 q 258 113 235 125 q 308 97 281 100 q 361 94 336 94 q 427 98 393 94 q 488 108 461 101 l 488 335 m 488 469 q 446 583 488 551 q 325 615 404 615 q 234 608 276 615 q 151 588 192 600 q 125 697 125 633 q 229 721 172 713 q 339 729 286 729 q 550 666 478 729 q 622 464 622 603 l 622 18 q 504 -5 574 7 q 363 -17 435 -17 q 240 -4 294 -17 q 147 36 185 8 q 88 107 108 64 q 67 211 67 150 q 91 316 67 271 q 157 391 115 361 q 253 435 199 421 q 367 450 307 450 q 440 448 411 450 q 488 443 468 446 l 488 469 m 549 964 q 553 939 551 953 q 554 913 554 925 q 553 886 554 900 q 549 861 551 872 l 174 861 q 169 886 171 872 q 168 913 168 900 q 169 938 168 924 q 174 964 171 953 l 549 964 z "},"Ă":{"ha":857,"x_min":22,"x_max":833,"o":"m 614 231 l 235 231 l 167 0 q 131 -4 149 -3 q 94 -6 113 -6 q 56 -4 75 -6 q 22 0 38 -3 l 347 999 q 386 1003 365 1001 q 429 1004 407 1004 q 469 1003 449 1004 q 510 999 490 1001 l 833 0 q 796 -4 817 -3 q 756 -6 775 -6 q 719 -4 738 -6 q 683 0 700 -3 l 614 231 m 272 354 l 576 354 l 424 864 l 272 354 m 426 1074 q 356 1079 394 1074 q 284 1103 318 1085 q 225 1153 250 1121 q 194 1238 200 1185 q 224 1242 210 1240 q 254 1244 239 1244 q 286 1242 271 1244 q 317 1238 301 1240 q 344 1185 321 1207 q 426 1163 368 1163 q 508 1185 485 1163 q 536 1238 532 1207 q 600 1244 571 1244 q 629 1242 615 1244 q 660 1238 643 1240 q 628 1153 654 1185 q 569 1103 603 1121 q 497 1079 535 1085 q 426 1074 458 1074 z "},"ă":{"ha":718,"x_min":67,"x_max":622,"o":"m 488 335 q 435 340 467 338 q 381 343 403 343 q 249 311 294 343 q 204 214 204 279 q 219 149 204 172 q 258 113 235 125 q 308 97 281 100 q 361 94 336 94 q 427 98 393 94 q 488 108 461 101 l 488 335 m 488 469 q 446 583 488 551 q 325 615 404 615 q 234 608 276 615 q 151 588 192 600 q 125 697 125 633 q 229 721 172 713 q 339 729 286 729 q 550 666 478 729 q 622 464 622 603 l 622 18 q 504 -5 574 7 q 363 -17 435 -17 q 240 -4 294 -17 q 147 36 185 8 q 88 107 108 64 q 67 211 67 150 q 91 316 67 271 q 157 391 115 361 q 253 435 199 421 q 367 450 307 450 q 440 448 411 450 q 488 443 468 446 l 488 469 m 363 814 q 294 822 331 814 q 224 850 257 829 q 165 907 190 871 q 133 1000 140 943 q 165 1006 149 1004 q 197 1007 182 1007 q 227 1005 213 1007 q 257 1000 242 1003 q 265 967 258 983 q 283 938 271 951 q 315 917 296 925 q 363 908 333 908 q 410 917 392 908 q 442 938 429 925 q 460 967 454 951 q 468 1000 465 983 q 500 1005 485 1003 q 531 1007 515 1007 q 562 1006 546 1007 q 592 1000 578 1004 q 560 907 585 943 q 501 850 535 871 q 431 822 468 829 q 363 814 394 814 z "},"Ą":{"ha":857,"x_min":22,"x_max":863,"o":"m 613 231 l 236 231 l 167 0 q 131 -4 149 -3 q 94 -6 113 -6 q 56 -4 75 -6 q 22 0 38 -3 l 347 999 q 386 1003 365 1001 q 429 1004 407 1004 q 469 1003 449 1004 q 510 999 490 1001 l 833 0 q 785 -22 810 -4 q 739 -63 760 -39 q 704 -117 718 -87 q 690 -172 690 -146 q 710 -223 690 -204 q 769 -242 731 -242 q 799 -239 781 -242 q 842 -229 818 -236 q 857 -273 853 -247 q 863 -319 861 -299 q 813 -331 842 -326 q 742 -336 783 -336 q 676 -328 708 -336 q 619 -304 644 -321 q 578 -261 594 -287 q 563 -196 563 -235 q 596 -92 563 -144 q 683 0 629 -40 l 613 231 m 576 354 l 424 851 l 272 354 l 576 354 z "},"ą":{"ha":718,"x_min":67,"x_max":624,"o":"m 488 469 q 446 583 488 551 q 325 615 404 615 q 234 608 276 615 q 151 588 192 600 q 125 697 125 633 q 229 721 172 713 q 339 729 286 729 q 550 666 478 729 q 622 464 622 603 l 622 18 l 597 6 q 492 -78 525 -31 q 458 -169 458 -125 q 477 -224 458 -203 q 535 -244 496 -244 q 564 -242 547 -244 q 603 -233 581 -240 q 617 -275 613 -250 q 624 -321 622 -300 q 573 -332 604 -328 q 508 -336 542 -336 q 443 -328 475 -336 q 387 -304 411 -321 q 347 -261 363 -287 q 332 -197 332 -235 q 359 -103 332 -153 q 433 -12 386 -53 q 363 -17 397 -17 q 240 -4 294 -17 q 147 36 185 8 q 88 107 108 64 q 67 211 67 150 q 91 316 67 271 q 157 391 115 361 q 253 435 199 421 q 367 450 307 450 q 440 448 411 450 q 488 443 468 446 l 488 469 m 488 335 q 435 340 467 338 q 381 343 403 343 q 249 311 294 343 q 204 214 204 279 q 219 149 204 172 q 258 113 235 125 q 308 97 281 100 q 361 94 336 94 q 427 98 393 94 q 488 108 461 101 l 488 335 z "},"Ć":{"ha":858,"x_min":82,"x_max":799,"o":"m 760 146 q 799 31 790 86 q 679 -6 740 6 q 547 -17 618 -17 q 352 19 439 -17 q 206 120 265 54 q 114 281 146 186 q 82 493 82 375 q 114 709 82 613 q 206 874 146 806 q 351 978 265 942 q 544 1015 438 1015 q 681 1004 624 1015 q 782 978 738 993 q 770 919 779 946 q 749 861 761 892 q 708 874 728 868 q 667 883 689 879 q 617 890 644 888 q 556 892 590 892 q 320 789 404 892 q 236 493 236 686 q 260 322 236 394 q 326 203 283 250 q 430 132 369 156 q 565 108 490 108 q 671 118 624 108 q 760 146 718 128 m 568 1082 q 531 1078 550 1079 q 492 1076 511 1076 q 456 1078 472 1076 q 419 1082 439 1079 l 567 1232 q 614 1237 589 1235 q 664 1239 639 1239 q 714 1237 690 1239 q 757 1232 738 1235 l 568 1082 z "},"ć":{"ha":664,"x_min":69,"x_max":625,"o":"m 586 124 q 606 75 597 104 q 615 15 614 46 q 428 -17 533 -17 q 160 84 250 -17 q 69 356 69 185 q 92 503 69 435 q 158 621 114 571 q 267 700 201 671 q 418 729 332 729 q 521 722 476 729 q 606 700 565 715 q 599 645 606 676 q 582 590 593 614 q 426 614 514 614 q 267 543 319 614 q 214 356 214 472 q 274 160 214 222 q 438 99 333 99 q 515 104 479 99 q 586 124 550 110 m 428 825 q 394 821 413 822 q 354 819 376 819 q 323 821 339 819 q 290 825 307 822 l 450 1001 q 493 1006 471 1004 q 539 1007 515 1007 q 585 1006 564 1007 q 625 1001 606 1004 l 428 825 z "},"Ĉ":{"ha":858,"x_min":82,"x_max":799,"o":"m 760 146 q 799 31 790 86 q 679 -6 740 6 q 547 -17 618 -17 q 352 19 439 -17 q 206 120 265 54 q 114 281 146 186 q 82 493 82 375 q 114 709 82 613 q 206 874 146 806 q 351 978 265 942 q 544 1015 438 1015 q 681 1004 624 1015 q 782 978 738 993 q 770 919 779 946 q 749 861 761 892 q 708 874 728 868 q 667 883 689 879 q 617 890 644 888 q 556 892 590 892 q 320 789 404 892 q 236 493 236 686 q 260 322 236 394 q 326 203 283 250 q 430 132 369 156 q 565 108 490 108 q 671 118 624 108 q 760 146 718 128 m 768 1082 q 740 1078 756 1079 q 711 1076 725 1076 l 681 1076 q 647 1078 665 1076 q 617 1082 628 1079 l 526 1167 l 436 1082 q 404 1078 424 1079 q 371 1076 385 1076 l 339 1076 q 310 1078 325 1076 q 282 1082 296 1079 l 446 1232 q 482 1236 461 1235 q 526 1238 503 1238 q 570 1236 550 1238 q 608 1232 590 1235 l 768 1082 z "},"ĉ":{"ha":664,"x_min":69,"x_max":624,"o":"m 586 124 q 606 75 597 104 q 615 15 614 46 q 428 -17 533 -17 q 160 84 250 -17 q 69 356 69 185 q 92 503 69 435 q 158 621 114 571 q 267 700 201 671 q 418 729 332 729 q 521 722 476 729 q 606 700 565 715 q 599 645 606 676 q 582 590 593 614 q 426 614 514 614 q 267 543 319 614 q 214 356 214 472 q 274 160 214 222 q 438 99 333 99 q 515 104 479 99 q 586 124 550 110 m 624 825 q 595 821 611 822 q 561 819 579 819 q 522 821 543 819 q 482 825 500 822 l 392 936 l 301 825 q 266 821 286 822 q 228 819 246 819 q 160 825 188 819 l 311 1001 q 352 1006 329 1004 q 396 1007 375 1007 q 433 1006 411 1007 q 474 1000 454 1004 l 624 825 z "},"Ċ":{"ha":858,"x_min":82,"x_max":799,"o":"m 760 146 q 799 31 790 86 q 679 -6 740 6 q 547 -17 618 -17 q 352 19 439 -17 q 206 120 265 54 q 114 281 146 186 q 82 493 82 375 q 114 709 82 613 q 206 874 146 806 q 351 978 265 942 q 544 1015 438 1015 q 681 1004 624 1015 q 782 978 738 993 q 770 919 779 946 q 749 861 761 892 q 708 874 728 868 q 667 883 689 879 q 617 890 644 888 q 556 892 590 892 q 320 789 404 892 q 236 493 236 686 q 260 322 236 394 q 326 203 283 250 q 430 132 369 156 q 565 108 490 108 q 671 118 624 108 q 760 146 718 128 m 468 1094 q 463 1165 463 1126 q 464 1201 463 1183 q 468 1238 465 1219 q 506 1243 488 1242 q 543 1244 525 1244 q 581 1243 561 1244 q 619 1238 600 1242 q 625 1167 625 1206 q 624 1131 625 1149 q 619 1094 622 1113 q 581 1089 600 1090 q 544 1088 563 1088 q 507 1089 526 1088 q 468 1094 488 1090 z "},"ċ":{"ha":664,"x_min":69,"x_max":615,"o":"m 586 124 q 606 75 597 104 q 615 15 614 46 q 428 -17 533 -17 q 160 84 250 -17 q 69 356 69 185 q 92 503 69 435 q 158 621 114 571 q 267 700 201 671 q 418 729 332 729 q 521 722 476 729 q 606 700 565 715 q 599 645 606 676 q 582 590 593 614 q 426 614 514 614 q 267 543 319 614 q 214 356 214 472 q 274 160 214 222 q 438 99 333 99 q 515 104 479 99 q 586 124 550 110 m 324 843 q 319 881 321 863 q 318 919 318 900 q 319 957 318 938 q 324 996 321 976 q 363 1001 343 999 q 403 1003 383 1003 q 443 1001 422 1003 q 483 996 464 999 q 488 958 486 976 q 489 919 489 939 q 488 882 489 901 q 483 843 486 863 q 444 839 464 840 q 404 838 424 838 q 364 839 385 838 q 324 843 343 840 z "},"Č":{"ha":858,"x_min":82,"x_max":799,"o":"m 760 146 q 799 31 790 86 q 679 -6 740 6 q 547 -17 618 -17 q 352 19 439 -17 q 206 120 265 54 q 114 281 146 186 q 82 493 82 375 q 114 709 82 613 q 206 874 146 806 q 351 978 265 942 q 544 1015 438 1015 q 681 1004 624 1015 q 782 978 738 993 q 770 919 779 946 q 749 861 761 892 q 708 874 728 868 q 667 883 689 879 q 617 890 644 888 q 556 892 590 892 q 320 789 404 892 q 236 493 236 686 q 260 322 236 394 q 326 203 283 250 q 430 132 369 156 q 565 108 490 108 q 671 118 624 108 q 760 146 718 128 m 294 1232 q 322 1235 307 1233 q 351 1238 338 1238 l 382 1238 q 416 1235 397 1238 q 446 1232 435 1233 q 492 1189 469 1210 q 536 1146 514 1168 l 626 1232 q 658 1235 639 1233 q 692 1238 678 1238 l 724 1238 q 752 1235 738 1238 q 781 1232 767 1233 l 617 1082 q 581 1078 601 1079 q 536 1076 560 1076 q 492 1078 513 1076 q 454 1082 472 1079 l 294 1232 z "},"č":{"ha":664,"x_min":69,"x_max":643,"o":"m 586 124 q 606 75 597 104 q 615 15 614 46 q 428 -17 533 -17 q 160 84 250 -17 q 69 356 69 185 q 92 503 69 435 q 158 621 114 571 q 267 700 201 671 q 418 729 332 729 q 521 722 476 729 q 606 700 565 715 q 599 645 606 676 q 582 590 593 614 q 426 614 514 614 q 267 543 319 614 q 214 356 214 472 q 274 160 214 222 q 438 99 333 99 q 515 104 479 99 q 586 124 550 110 m 179 1000 q 208 1005 193 1003 q 243 1007 224 1007 q 282 1005 260 1007 q 321 1000 304 1003 l 411 889 l 501 1000 q 538 1005 517 1003 q 576 1007 558 1007 q 643 1000 611 1007 l 492 824 q 451 820 474 821 q 408 819 428 819 q 371 821 393 819 q 329 825 349 822 l 179 1000 z "},"Ď":{"ha":971,"x_min":124,"x_max":890,"o":"m 124 999 q 238 1009 171 1004 q 368 1014 304 1014 q 760 881 631 1014 q 890 497 890 747 q 758 110 890 236 q 363 -17 625 -17 q 233 -12 297 -17 q 124 0 169 -7 l 124 999 m 265 117 q 313 112 285 114 q 374 110 342 110 q 523 128 456 110 q 639 192 590 147 q 714 312 688 236 q 740 501 740 388 q 714 679 740 606 q 640 799 688 753 q 525 867 592 846 q 378 888 458 888 q 320 887 351 888 q 265 882 289 886 l 265 117 m 171 1232 q 199 1235 183 1233 q 228 1238 214 1238 l 258 1238 q 292 1235 274 1238 q 322 1232 311 1233 q 368 1189 346 1210 q 413 1146 390 1168 l 503 1232 q 535 1235 515 1233 q 568 1238 554 1238 l 600 1238 q 628 1235 614 1238 q 657 1232 643 1233 l 493 1082 q 457 1078 478 1079 q 413 1076 436 1076 q 369 1078 389 1076 q 331 1082 349 1079 l 171 1232 z "},"ď":{"ha":926,"x_min":72,"x_max":950,"o":"m 568 1018 q 603 1022 583 1021 q 636 1024 622 1024 q 670 1022 651 1024 q 704 1018 689 1021 l 704 19 q 586 -6 651 4 q 440 -17 521 -17 q 298 2 365 -17 q 181 64 231 21 q 101 175 131 107 q 72 343 72 243 q 98 500 72 429 q 171 622 124 571 q 284 700 218 672 q 431 728 350 728 q 503 722 467 728 q 568 708 540 717 l 568 1018 m 568 592 q 508 608 540 603 q 439 614 476 614 q 340 593 382 614 q 272 536 299 572 q 231 451 244 500 q 218 343 218 401 q 281 154 219 211 q 447 97 342 97 q 514 101 483 97 q 568 111 544 104 l 568 592 m 819 1015 q 883 1021 842 1021 q 917 1019 900 1021 q 950 1015 935 1018 l 931 733 q 906 729 919 731 q 878 728 892 728 q 849 729 864 728 q 819 733 835 731 l 819 1015 z "},"Đ":{"ha":983,"x_min":17,"x_max":903,"o":"m 136 460 l 22 460 q 18 485 19 471 q 17 511 17 499 q 18 538 17 524 q 22 564 19 553 l 136 564 l 136 999 q 250 1009 183 1004 q 381 1014 317 1014 q 773 881 643 1014 q 903 497 903 747 q 770 110 903 236 q 375 -17 638 -17 q 246 -12 310 -17 q 136 0 182 -7 l 136 460 m 278 564 l 503 564 q 507 538 506 553 q 508 511 508 524 q 507 485 508 500 q 503 460 506 471 l 278 460 l 278 117 q 326 112 297 114 q 386 110 354 110 q 535 128 468 110 q 651 192 603 147 q 726 312 700 236 q 753 501 753 388 q 726 679 753 606 q 652 799 700 753 q 538 867 604 846 q 390 888 471 888 q 333 887 364 888 q 278 882 301 886 l 278 564 z "},"đ":{"ha":829,"x_min":74,"x_max":811,"o":"m 568 810 l 365 810 q 361 831 363 818 q 360 856 360 844 q 361 881 360 867 q 365 904 363 894 l 568 904 l 568 1018 q 603 1022 583 1021 q 636 1024 622 1024 q 670 1022 651 1024 q 704 1018 689 1021 l 704 904 l 806 904 q 810 881 808 894 q 811 857 811 868 q 810 832 811 846 q 806 810 808 818 l 704 810 l 704 19 q 586 -6 651 4 q 440 -17 521 -17 q 299 2 365 -17 q 182 64 232 21 q 103 175 132 107 q 74 343 74 243 q 99 500 74 429 q 172 622 125 571 q 284 700 218 672 q 431 728 350 728 q 503 722 467 728 q 568 708 540 717 l 568 810 m 568 594 q 508 611 540 606 q 439 617 476 617 q 340 596 382 617 q 269 539 297 575 q 228 453 242 503 q 215 346 215 404 q 278 157 217 214 q 444 100 339 100 q 513 103 481 100 q 568 114 544 107 l 568 594 z "},"Ē":{"ha":744,"x_min":122,"x_max":686,"o":"m 122 999 l 671 999 q 675 938 675 971 q 674 906 675 922 q 671 875 674 889 l 264 875 l 264 589 l 589 589 q 593 559 592 575 q 594 528 594 543 q 593 496 594 513 q 589 465 592 479 l 264 465 l 264 124 l 682 124 q 686 63 686 96 q 685 31 686 47 q 682 0 685 14 l 122 0 l 122 999 m 618 1207 q 622 1181 621 1196 q 622 1154 622 1167 q 622 1128 622 1142 q 618 1103 621 1114 l 175 1103 q 171 1128 172 1114 q 169 1154 169 1142 q 171 1181 169 1167 q 175 1207 172 1196 l 618 1207 z "},"ē":{"ha":772,"x_min":68,"x_max":703,"o":"m 214 322 q 274 151 217 206 q 444 97 332 97 q 632 132 543 97 q 650 81 643 111 q 658 22 657 51 q 558 -7 613 3 q 436 -17 503 -17 q 269 10 339 -17 q 155 87 200 38 q 89 203 110 136 q 68 351 68 271 q 88 499 68 431 q 150 619 108 568 q 255 699 192 669 q 404 729 318 729 q 533 704 478 729 q 626 635 589 679 q 683 531 664 592 q 703 400 703 471 q 701 359 703 381 q 699 322 700 338 l 214 322 m 567 425 q 556 499 567 464 q 526 561 546 535 q 474 603 506 588 q 400 619 443 619 q 270 568 315 619 q 215 425 225 517 l 567 425 m 586 964 q 590 939 589 953 q 592 913 592 925 q 590 886 592 900 q 586 861 589 872 l 211 861 q 207 886 208 872 q 206 913 206 900 q 207 938 206 924 q 211 964 208 953 l 586 964 z "},"Ĕ":{"ha":744,"x_min":122,"x_max":686,"o":"m 122 999 l 671 999 q 675 938 675 971 q 674 906 675 922 q 671 875 674 889 l 264 875 l 264 589 l 589 589 q 593 559 592 575 q 594 528 594 543 q 593 496 594 513 q 589 465 592 479 l 264 465 l 264 124 l 682 124 q 686 63 686 96 q 685 31 686 47 q 682 0 685 14 l 122 0 l 122 999 m 403 1074 q 333 1079 371 1074 q 260 1103 294 1085 q 201 1153 226 1121 q 171 1238 176 1185 q 201 1242 186 1240 q 231 1244 215 1244 q 263 1242 247 1244 q 293 1238 278 1240 q 321 1185 297 1207 q 403 1163 344 1163 q 485 1185 461 1163 q 513 1238 508 1207 q 576 1244 547 1244 q 606 1242 592 1244 q 636 1238 619 1240 q 605 1153 631 1185 q 545 1103 579 1121 q 473 1079 511 1085 q 403 1074 435 1074 z "},"ĕ":{"ha":772,"x_min":68,"x_max":703,"o":"m 214 322 q 274 151 217 206 q 444 97 332 97 q 632 132 543 97 q 650 81 643 111 q 658 22 657 51 q 558 -7 613 3 q 436 -17 503 -17 q 269 10 339 -17 q 155 87 200 38 q 89 203 110 136 q 68 351 68 271 q 88 499 68 431 q 150 619 108 568 q 255 699 192 669 q 404 729 318 729 q 533 704 478 729 q 626 635 589 679 q 683 531 664 592 q 703 400 703 471 q 701 359 703 381 q 699 322 700 338 l 214 322 m 567 425 q 556 499 567 464 q 526 561 546 535 q 474 603 506 588 q 400 619 443 619 q 270 568 315 619 q 215 425 225 517 l 567 425 m 397 814 q 328 822 365 814 q 258 850 292 829 q 200 907 225 871 q 168 1000 175 943 q 200 1006 183 1004 q 232 1007 217 1007 q 262 1005 247 1007 q 292 1000 276 1003 q 299 967 293 983 q 318 938 306 951 q 349 917 331 925 q 397 908 368 908 q 445 917 426 908 q 476 938 464 925 q 494 967 489 951 q 503 1000 500 983 q 535 1005 519 1003 q 565 1007 550 1007 q 597 1006 581 1007 q 626 1000 613 1004 q 594 907 619 943 q 536 850 569 871 q 466 822 503 829 q 397 814 429 814 z "},"Ė":{"ha":744,"x_min":122,"x_max":686,"o":"m 122 999 l 671 999 q 675 938 675 971 q 674 906 675 922 q 671 875 674 889 l 264 875 l 264 589 l 589 589 q 593 559 592 575 q 594 528 594 543 q 593 496 594 513 q 589 465 592 479 l 264 465 l 264 124 l 682 124 q 686 63 686 96 q 685 31 686 47 q 682 0 685 14 l 122 0 l 122 999 m 331 1094 q 325 1165 325 1126 q 326 1201 325 1183 q 331 1238 328 1219 q 369 1243 350 1242 q 406 1244 388 1244 q 443 1243 424 1244 q 482 1238 463 1242 q 488 1167 488 1206 q 486 1131 488 1149 q 482 1094 485 1113 q 444 1089 463 1090 q 407 1088 425 1088 q 369 1089 389 1088 q 331 1094 350 1090 z "},"ė":{"ha":772,"x_min":68,"x_max":703,"o":"m 214 322 q 274 151 217 206 q 444 97 332 97 q 632 132 543 97 q 650 81 643 111 q 658 22 657 51 q 558 -7 613 3 q 436 -17 503 -17 q 269 10 339 -17 q 155 87 200 38 q 89 203 110 136 q 68 351 68 271 q 88 499 68 431 q 150 619 108 568 q 255 699 192 669 q 404 729 318 729 q 533 704 478 729 q 626 635 589 679 q 683 531 664 592 q 703 400 703 471 q 701 359 703 381 q 699 322 700 338 l 214 322 m 567 425 q 556 499 567 464 q 526 561 546 535 q 474 603 506 588 q 400 619 443 619 q 270 568 315 619 q 215 425 225 517 l 567 425 m 326 843 q 322 881 324 863 q 321 919 321 900 q 322 957 321 938 q 326 996 324 976 q 366 1001 346 999 q 406 1003 386 1003 q 446 1001 425 1003 q 486 996 467 999 q 490 958 489 976 q 492 919 492 939 q 490 882 492 901 q 486 843 489 863 q 447 839 467 840 q 407 838 426 838 q 367 839 388 838 q 326 843 346 840 z "},"Ę":{"ha":744,"x_min":121,"x_max":688,"o":"m 121 999 l 669 999 q 674 968 672 983 q 675 938 675 953 q 674 905 675 922 q 669 874 672 888 l 263 874 l 263 589 l 589 589 q 593 526 593 560 q 592 495 593 511 q 589 464 592 479 l 263 464 l 263 124 l 681 124 q 685 94 683 110 q 686 63 686 78 q 685 49 686 57 q 685 38 685 42 q 622 -15 653 8 q 568 -62 592 -39 q 531 -111 544 -85 q 517 -171 517 -137 q 536 -222 517 -203 q 594 -240 556 -240 q 624 -238 606 -240 q 667 -229 643 -236 q 683 -272 678 -247 q 688 -319 688 -297 q 638 -331 667 -326 q 567 -336 608 -336 q 501 -328 533 -336 q 444 -304 469 -321 q 403 -260 419 -287 q 388 -194 388 -233 q 421 -92 388 -143 q 508 0 454 -40 l 121 0 l 121 999 z "},"ę":{"ha":772,"x_min":68,"x_max":703,"o":"m 214 322 q 274 151 217 206 q 444 97 332 97 q 632 132 543 97 q 651 81 643 111 q 660 22 658 51 q 598 -10 628 10 q 544 -53 568 -29 q 506 -107 521 -78 q 492 -168 492 -136 q 512 -223 492 -203 q 571 -243 532 -243 q 598 -241 582 -243 q 636 -232 614 -239 q 651 -275 646 -250 q 657 -319 656 -300 q 606 -331 638 -326 q 542 -336 575 -336 q 476 -328 508 -336 q 420 -304 444 -321 q 381 -260 396 -287 q 365 -196 365 -233 q 391 -105 365 -153 q 463 -17 417 -57 l 436 -17 q 269 10 339 -17 q 155 87 200 38 q 89 203 110 136 q 68 351 68 271 q 88 499 68 431 q 150 619 108 568 q 255 699 192 669 q 404 729 318 729 q 533 704 478 729 q 626 635 589 679 q 683 531 664 592 q 703 400 703 471 q 701 359 703 381 q 699 322 700 338 l 214 322 m 567 425 q 556 499 567 464 q 526 561 546 535 q 474 603 506 588 q 400 619 443 619 q 270 568 315 619 q 215 425 225 517 l 567 425 z "},"Ě":{"ha":744,"x_min":122,"x_max":686,"o":"m 122 999 l 671 999 q 675 938 675 971 q 674 906 675 922 q 671 875 674 889 l 264 875 l 264 589 l 589 589 q 593 559 592 575 q 594 528 594 543 q 593 496 594 513 q 589 465 592 479 l 264 465 l 264 124 l 682 124 q 686 63 686 96 q 685 31 686 47 q 682 0 685 14 l 122 0 l 122 999 m 164 1232 q 192 1235 176 1233 q 221 1238 207 1238 l 251 1238 q 285 1235 267 1238 q 315 1232 304 1233 q 361 1189 339 1210 q 406 1146 383 1168 l 496 1232 q 528 1235 508 1233 q 561 1238 547 1238 l 593 1238 q 622 1235 607 1238 q 650 1232 636 1233 l 486 1082 q 450 1078 471 1079 q 406 1076 429 1076 q 362 1078 382 1076 q 324 1082 342 1079 l 164 1232 z "},"ě":{"ha":772,"x_min":68,"x_max":703,"o":"m 214 322 q 274 151 217 206 q 444 97 332 97 q 632 132 543 97 q 650 81 643 111 q 658 22 657 51 q 558 -7 613 3 q 436 -17 503 -17 q 269 10 339 -17 q 155 87 200 38 q 89 203 110 136 q 68 351 68 271 q 88 499 68 431 q 150 619 108 568 q 255 699 192 669 q 404 729 318 729 q 533 704 478 729 q 626 635 589 679 q 683 531 664 592 q 703 400 703 471 q 701 359 703 381 q 699 322 700 338 l 214 322 m 567 425 q 556 499 567 464 q 526 561 546 535 q 474 603 506 588 q 400 619 443 619 q 270 568 315 619 q 215 425 225 517 l 567 425 m 165 1000 q 194 1005 179 1003 q 229 1007 210 1007 q 268 1005 246 1007 q 307 1000 290 1003 l 397 889 l 488 1000 q 524 1005 503 1003 q 563 1007 544 1007 q 629 1000 597 1007 l 478 824 q 437 820 460 821 q 394 819 414 819 q 357 821 379 819 q 315 825 335 822 l 165 1000 z "},"Ĝ":{"ha":946,"x_min":82,"x_max":840,"o":"m 700 517 q 735 521 717 519 q 771 522 753 522 q 807 521 789 522 q 840 517 825 519 l 840 29 q 776 8 811 17 q 704 -6 742 -1 q 629 -14 667 -11 q 558 -17 592 -17 q 358 18 447 -17 q 208 119 269 53 q 115 279 147 185 q 82 493 82 374 q 115 709 82 613 q 210 874 149 806 q 358 978 272 942 q 547 1015 443 1015 q 685 1005 626 1015 q 790 976 743 994 q 778 917 788 944 q 757 860 769 890 q 673 882 718 872 q 560 892 628 892 q 426 865 486 892 q 323 788 365 839 q 257 663 281 738 q 233 493 233 589 q 258 323 233 394 q 326 203 282 251 q 431 133 371 156 q 565 110 492 110 q 643 115 610 110 q 700 126 676 119 l 700 517 m 782 1082 q 754 1078 769 1079 q 725 1076 739 1076 l 694 1076 q 660 1078 679 1076 q 631 1082 642 1079 l 540 1167 l 450 1082 q 418 1078 438 1079 q 385 1076 399 1076 l 353 1076 q 324 1078 339 1076 q 296 1082 310 1079 l 460 1232 q 496 1236 475 1235 q 540 1238 517 1238 q 584 1236 564 1238 q 622 1232 604 1235 l 782 1082 z "},"ĝ":{"ha":768,"x_min":51,"x_max":754,"o":"m 493 92 q 672 39 617 89 q 728 -99 728 -11 q 699 -201 728 -156 q 618 -278 669 -246 q 497 -328 567 -311 q 344 -346 426 -346 q 126 -301 201 -346 q 51 -161 51 -257 q 82 -59 51 -104 q 161 13 113 -14 q 115 58 133 31 q 96 125 96 85 q 119 214 96 176 q 181 281 142 251 q 107 363 135 313 q 79 478 79 414 q 99 576 79 531 q 155 656 118 622 q 246 710 192 690 q 369 729 300 729 q 483 711 432 729 q 569 665 533 693 q 644 702 597 688 q 749 717 692 717 q 754 658 754 690 q 753 626 754 643 q 749 593 751 610 l 624 593 q 647 542 639 569 q 656 478 656 514 q 635 375 656 421 q 576 297 614 329 q 485 247 538 264 q 369 229 432 229 q 267 242 313 229 q 228 208 247 231 q 210 158 210 185 q 228 115 210 133 q 308 94 246 96 l 493 92 m 306 -18 q 212 -51 243 -17 q 181 -135 181 -86 q 193 -185 181 -165 q 228 -216 206 -204 q 283 -233 251 -228 q 351 -237 314 -237 q 525 -201 463 -237 q 588 -108 588 -164 q 561 -44 588 -67 q 464 -21 535 -22 l 306 -18 m 369 329 q 481 371 444 329 q 517 478 517 413 q 481 587 517 544 q 369 629 444 629 q 259 587 294 629 q 224 478 224 544 q 259 371 224 413 q 369 329 294 329 m 613 825 q 584 821 600 822 q 550 819 568 819 q 510 821 532 819 q 471 825 489 822 l 381 936 l 290 825 q 255 821 275 822 q 217 819 235 819 q 149 825 176 819 l 300 1001 q 341 1006 318 1004 q 385 1007 364 1007 q 422 1006 400 1007 q 463 1000 443 1004 l 613 825 z "},"Ğ":{"ha":946,"x_min":82,"x_max":840,"o":"m 700 517 q 735 521 717 519 q 771 522 753 522 q 807 521 789 522 q 840 517 825 519 l 840 29 q 776 8 811 17 q 704 -6 742 -1 q 629 -14 667 -11 q 558 -17 592 -17 q 358 18 447 -17 q 208 119 269 53 q 115 279 147 185 q 82 493 82 374 q 115 709 82 613 q 210 874 149 806 q 358 978 272 942 q 547 1015 443 1015 q 685 1005 626 1015 q 790 976 743 994 q 778 917 788 944 q 757 860 769 890 q 673 882 718 872 q 560 892 628 892 q 426 865 486 892 q 323 788 365 839 q 257 663 281 738 q 233 493 233 589 q 258 323 233 394 q 326 203 282 251 q 431 133 371 156 q 565 110 492 110 q 643 115 610 110 q 700 126 676 119 l 700 517 m 531 1074 q 460 1079 499 1074 q 388 1103 422 1085 q 329 1153 354 1121 q 299 1238 304 1185 q 328 1242 314 1240 q 358 1244 343 1244 q 390 1242 375 1244 q 421 1238 406 1240 q 449 1185 425 1207 q 531 1163 472 1163 q 613 1185 589 1163 q 640 1238 636 1207 q 704 1244 675 1244 q 733 1242 719 1244 q 764 1238 747 1240 q 733 1153 758 1185 q 673 1103 707 1121 q 601 1079 639 1085 q 531 1074 563 1074 z "},"ğ":{"ha":768,"x_min":51,"x_max":754,"o":"m 493 92 q 672 39 617 89 q 728 -99 728 -11 q 699 -201 728 -156 q 618 -278 669 -246 q 497 -328 567 -311 q 344 -346 426 -346 q 126 -301 201 -346 q 51 -161 51 -257 q 82 -59 51 -104 q 161 13 113 -14 q 115 58 133 31 q 96 125 96 85 q 119 214 96 176 q 181 281 142 251 q 107 363 135 313 q 79 478 79 414 q 99 576 79 531 q 155 656 118 622 q 246 710 192 690 q 369 729 300 729 q 483 711 432 729 q 569 665 533 693 q 644 702 597 688 q 749 717 692 717 q 754 658 754 690 q 753 626 754 643 q 749 593 751 610 l 624 593 q 647 542 639 569 q 656 478 656 514 q 635 375 656 421 q 576 297 614 329 q 485 247 538 264 q 369 229 432 229 q 267 242 313 229 q 228 208 247 231 q 210 158 210 185 q 228 115 210 133 q 308 94 246 96 l 493 92 m 306 -18 q 212 -51 243 -17 q 181 -135 181 -86 q 193 -185 181 -165 q 228 -216 206 -204 q 283 -233 251 -228 q 351 -237 314 -237 q 525 -201 463 -237 q 588 -108 588 -164 q 561 -44 588 -67 q 464 -21 535 -22 l 306 -18 m 369 329 q 481 371 444 329 q 517 478 517 413 q 481 587 517 544 q 369 629 444 629 q 259 587 294 629 q 224 478 224 544 q 259 371 224 413 q 369 329 294 329 m 379 814 q 310 822 347 814 q 240 850 274 829 q 182 907 207 871 q 150 1000 157 943 q 182 1006 165 1004 q 214 1007 199 1007 q 244 1005 229 1007 q 274 1000 258 1003 q 281 967 275 983 q 300 938 288 951 q 331 917 313 925 q 379 908 350 908 q 427 917 408 908 q 458 938 446 925 q 476 967 471 951 q 485 1000 482 983 q 517 1005 501 1003 q 547 1007 532 1007 q 578 1006 563 1007 q 608 1000 594 1004 q 576 907 601 943 q 518 850 551 871 q 448 822 485 829 q 379 814 411 814 z "},"Ġ":{"ha":946,"x_min":82,"x_max":840,"o":"m 700 517 q 735 521 717 519 q 771 522 753 522 q 807 521 789 522 q 840 517 825 519 l 840 29 q 776 8 811 17 q 704 -6 742 -1 q 629 -14 667 -11 q 558 -17 592 -17 q 358 18 447 -17 q 208 119 269 53 q 115 279 147 185 q 82 493 82 374 q 115 709 82 613 q 210 874 149 806 q 358 978 272 942 q 547 1015 443 1015 q 685 1005 626 1015 q 790 976 743 994 q 778 917 788 944 q 757 860 769 890 q 673 882 718 872 q 560 892 628 892 q 426 865 486 892 q 323 788 365 839 q 257 663 281 738 q 233 493 233 589 q 258 323 233 394 q 326 203 282 251 q 431 133 371 156 q 565 110 492 110 q 643 115 610 110 q 700 126 676 119 l 700 517 m 468 1094 q 463 1165 463 1126 q 464 1201 463 1183 q 468 1238 465 1219 q 506 1243 488 1242 q 543 1244 525 1244 q 581 1243 561 1244 q 619 1238 600 1242 q 625 1167 625 1206 q 624 1131 625 1149 q 619 1094 622 1113 q 581 1089 600 1090 q 544 1088 563 1088 q 507 1089 526 1088 q 468 1094 488 1090 z "},"ġ":{"ha":768,"x_min":51,"x_max":754,"o":"m 493 92 q 672 39 617 89 q 728 -99 728 -11 q 699 -201 728 -156 q 618 -278 669 -246 q 497 -328 567 -311 q 344 -346 426 -346 q 126 -301 201 -346 q 51 -161 51 -257 q 82 -59 51 -104 q 161 13 113 -14 q 115 58 133 31 q 96 125 96 85 q 119 214 96 176 q 181 281 142 251 q 107 363 135 313 q 79 478 79 414 q 99 576 79 531 q 155 656 118 622 q 246 710 192 690 q 369 729 300 729 q 483 711 432 729 q 569 665 533 693 q 644 702 597 688 q 749 717 692 717 q 754 658 754 690 q 753 626 754 643 q 749 593 751 610 l 624 593 q 647 542 639 569 q 656 478 656 514 q 635 375 656 421 q 576 297 614 329 q 485 247 538 264 q 369 229 432 229 q 267 242 313 229 q 228 208 247 231 q 210 158 210 185 q 228 115 210 133 q 308 94 246 96 l 493 92 m 306 -18 q 212 -51 243 -17 q 181 -135 181 -86 q 193 -185 181 -165 q 228 -216 206 -204 q 283 -233 251 -228 q 351 -237 314 -237 q 525 -201 463 -237 q 588 -108 588 -164 q 561 -44 588 -67 q 464 -21 535 -22 l 306 -18 m 369 329 q 481 371 444 329 q 517 478 517 413 q 481 587 517 544 q 369 629 444 629 q 259 587 294 629 q 224 478 224 544 q 259 371 224 413 q 369 329 294 329 m 290 843 q 286 881 288 863 q 285 919 285 900 q 286 957 285 938 q 290 996 288 976 q 330 1001 310 999 q 369 1003 350 1003 q 410 1001 389 1003 q 450 996 431 999 q 454 958 453 976 q 456 919 456 939 q 454 882 456 901 q 450 843 453 863 q 410 839 431 840 q 371 838 390 838 q 331 839 351 838 q 290 843 310 840 z "},"Ģ":{"ha":946,"x_min":82,"x_max":840,"o":"m 700 517 q 735 521 717 519 q 771 522 753 522 q 807 521 789 522 q 840 517 825 519 l 840 29 q 776 8 811 17 q 704 -6 742 -1 q 629 -14 667 -11 q 558 -17 592 -17 q 358 18 447 -17 q 208 119 269 53 q 115 279 147 185 q 82 493 82 374 q 115 709 82 613 q 210 874 149 806 q 358 978 272 942 q 547 1015 443 1015 q 685 1005 626 1015 q 790 976 743 994 q 778 917 788 944 q 757 860 769 890 q 673 882 718 872 q 560 892 628 892 q 426 865 486 892 q 323 788 365 839 q 257 663 281 738 q 233 493 233 589 q 258 323 233 394 q 326 203 282 251 q 431 133 371 156 q 565 110 492 110 q 643 115 610 110 q 700 126 676 119 l 700 517 m 560 -331 q 500 -337 528 -337 q 470 -335 485 -337 q 439 -331 456 -333 l 501 -90 q 535 -86 517 -87 q 569 -85 553 -85 l 583 -85 q 613 -86 599 -85 q 643 -90 628 -87 l 560 -331 z "},"ģ":{"ha":768,"x_min":51,"x_max":754,"o":"m 493 92 q 672 39 617 89 q 728 -99 728 -11 q 699 -201 728 -156 q 618 -278 669 -246 q 497 -328 567 -311 q 344 -346 426 -346 q 126 -301 201 -346 q 51 -161 51 -257 q 82 -59 51 -104 q 161 13 113 -14 q 115 58 133 31 q 96 125 96 85 q 119 214 96 176 q 181 281 142 251 q 107 363 135 313 q 79 478 79 414 q 99 576 79 531 q 155 656 118 622 q 246 710 192 690 q 369 729 300 729 q 483 711 432 729 q 569 665 533 693 q 644 702 597 688 q 749 717 692 717 q 754 658 754 690 q 753 626 754 643 q 749 593 751 610 l 624 593 q 647 542 639 569 q 656 478 656 514 q 635 375 656 421 q 576 297 614 329 q 485 247 538 264 q 369 229 432 229 q 267 242 313 229 q 228 208 247 231 q 210 158 210 185 q 228 115 210 133 q 308 94 246 96 l 493 92 m 306 -18 q 212 -51 243 -17 q 181 -135 181 -86 q 193 -185 181 -165 q 228 -216 206 -204 q 283 -233 251 -228 q 351 -237 314 -237 q 525 -201 463 -237 q 588 -108 588 -164 q 561 -44 588 -67 q 464 -21 535 -22 l 306 -18 m 369 329 q 481 371 444 329 q 517 478 517 413 q 481 587 517 544 q 369 629 444 629 q 259 587 294 629 q 224 478 224 544 q 259 371 224 413 q 369 329 294 329 m 439 804 q 404 799 421 800 q 371 797 388 797 q 333 799 351 797 q 293 804 314 800 l 408 1003 q 441 1007 425 1006 q 474 1008 457 1008 q 542 1003 510 1008 l 439 804 z "},"Ĥ":{"ha":953,"x_min":122,"x_max":831,"o":"m 122 999 q 157 1003 139 1001 q 193 1004 175 1004 q 229 1003 211 1004 q 264 999 247 1001 l 264 588 l 689 588 l 689 999 q 722 1003 704 1001 q 758 1004 740 1004 q 795 1003 776 1004 q 831 999 814 1001 l 831 0 q 797 -4 815 -3 q 760 -6 779 -6 q 723 -4 742 -6 q 689 0 704 -3 l 689 463 l 264 463 l 264 0 q 230 -4 247 -3 q 193 -6 213 -6 q 156 -4 175 -6 q 122 0 138 -3 l 122 999 m 717 1082 q 689 1078 704 1079 q 660 1076 674 1076 l 629 1076 q 595 1078 614 1076 q 565 1082 576 1079 l 475 1167 l 385 1082 q 353 1078 372 1079 q 319 1076 333 1076 l 288 1076 q 259 1078 274 1076 q 231 1082 244 1079 l 394 1232 q 431 1236 410 1235 q 475 1238 451 1238 q 519 1236 499 1238 q 557 1232 539 1235 l 717 1082 z "},"ĥ":{"ha":803,"x_min":108,"x_max":706,"o":"m 110 1018 q 144 1022 125 1021 q 178 1024 163 1024 q 213 1022 193 1024 q 247 1018 232 1021 l 247 604 q 278 646 260 624 q 324 687 297 668 q 387 717 351 706 q 465 729 422 729 q 647 659 588 729 q 706 451 706 589 l 706 0 q 672 -4 690 -3 q 638 -6 653 -6 q 603 -4 622 -6 q 569 0 585 -3 l 569 414 q 537 559 569 513 q 438 606 504 606 q 365 592 400 606 q 304 551 331 579 q 263 476 278 522 q 247 365 247 431 l 247 0 q 213 -4 232 -3 q 178 -6 193 -6 q 144 -4 164 -6 q 110 0 125 -3 l 110 1018 m 572 1089 q 544 1085 560 1086 q 510 1083 528 1083 q 470 1085 492 1083 q 431 1089 449 1086 l 340 1200 l 250 1089 q 215 1085 235 1086 q 176 1083 194 1083 q 108 1089 136 1083 l 260 1265 q 301 1269 278 1268 q 344 1271 324 1271 q 381 1269 360 1271 q 422 1264 403 1268 l 572 1089 z "},"Ħ":{"ha":1000,"x_min":29,"x_max":972,"o":"m 146 740 l 33 740 q 30 765 31 751 q 29 792 29 779 q 30 819 29 804 q 33 844 31 833 l 146 844 l 146 999 q 181 1003 163 1001 q 217 1004 200 1004 q 253 1003 235 1004 q 288 999 271 1001 l 288 844 l 713 844 l 713 999 q 747 1003 729 1001 q 783 1004 764 1004 q 819 1003 800 1004 q 854 999 838 1001 l 854 844 l 967 844 q 971 819 969 833 q 972 793 972 806 q 971 766 972 781 q 967 740 969 751 l 854 740 l 854 0 q 821 -4 839 -3 q 783 -6 803 -6 q 747 -4 765 -6 q 713 0 729 -3 l 713 463 l 288 463 l 288 0 q 253 -4 271 -3 q 218 -6 236 -6 q 180 -4 199 -6 q 146 0 161 -3 l 146 740 m 713 588 l 713 740 l 288 740 l 288 588 l 713 588 z "},"ħ":{"ha":818,"x_min":18,"x_max":721,"o":"m 125 810 l 24 810 q 19 831 21 818 q 18 856 18 844 q 19 881 18 867 q 24 904 21 894 l 125 904 l 125 1018 q 159 1022 140 1021 q 193 1024 178 1024 q 226 1022 207 1024 q 261 1018 246 1021 l 261 904 l 464 904 q 468 881 467 894 q 469 857 469 868 q 468 832 469 846 q 464 810 467 818 l 261 810 l 261 604 q 293 646 274 624 q 340 687 313 668 q 402 717 367 706 q 481 729 438 729 q 662 659 603 729 q 721 451 721 589 l 721 0 q 687 -4 706 -3 q 653 -6 668 -6 q 618 -4 638 -6 q 583 0 599 -3 l 583 414 q 551 559 583 513 q 453 606 519 606 q 379 592 414 606 q 318 551 344 579 q 276 476 292 522 q 261 365 261 431 l 261 0 q 227 -4 246 -3 q 193 -6 208 -6 q 160 -4 179 -6 q 125 0 140 -3 l 125 810 z "},"Ĩ":{"ha":386,"x_min":-58,"x_max":447,"o":"m 122 999 q 157 1003 139 1001 q 193 1004 175 1004 q 229 1003 211 1004 q 264 999 247 1001 l 264 0 q 230 -4 247 -3 q 193 -6 213 -6 q 156 -4 175 -6 q 122 0 138 -3 l 122 999 m -58 1193 q 0 1241 -36 1218 q 82 1264 36 1264 q 140 1253 111 1264 q 197 1229 169 1242 q 252 1206 225 1217 q 307 1194 279 1194 q 353 1205 333 1194 q 401 1242 374 1215 q 447 1160 433 1203 q 388 1115 424 1136 q 308 1093 353 1093 q 249 1103 278 1093 q 192 1127 219 1114 q 137 1151 164 1140 q 83 1161 110 1161 q 34 1149 54 1161 q -12 1114 14 1138 q -40 1152 -28 1133 q -58 1193 -53 1171 z "},"ĩ":{"ha":400,"x_min":-40,"x_max":439,"o":"m 153 604 l 63 604 q 58 630 60 615 q 57 658 57 644 q 58 687 57 672 q 63 713 60 701 l 288 713 l 288 0 q 253 -4 272 -3 q 219 -6 235 -6 q 187 -4 206 -6 q 153 0 168 -3 l 153 604 m -40 928 q 14 976 -19 956 q 93 996 47 996 q 149 986 122 996 q 199 965 175 976 q 249 944 224 954 q 301 935 274 935 q 345 943 325 935 q 394 978 365 951 q 439 893 425 940 q 383 847 417 867 q 304 828 349 828 q 249 838 275 828 q 197 858 222 847 q 148 879 172 869 q 97 889 124 889 q 50 879 69 889 q 3 846 31 869 q -24 885 -12 865 q -40 928 -35 906 z "},"Ī":{"ha":386,"x_min":-32,"x_max":421,"o":"m 122 999 q 157 1003 139 1001 q 193 1004 175 1004 q 229 1003 211 1004 q 264 999 247 1001 l 264 0 q 230 -4 247 -3 q 193 -6 213 -6 q 156 -4 175 -6 q 122 0 138 -3 l 122 999 m 417 1207 q 420 1181 419 1196 q 421 1154 421 1167 q 420 1128 421 1142 q 417 1103 419 1114 l -26 1103 q -31 1128 -29 1114 q -32 1154 -32 1142 q -31 1181 -32 1167 q -26 1207 -29 1196 l 417 1207 z "},"ī":{"ha":400,"x_min":-4,"x_max":382,"o":"m 153 604 l 63 604 q 58 630 60 615 q 57 658 57 644 q 58 687 57 672 q 63 713 60 701 l 288 713 l 288 0 q 253 -4 272 -3 q 219 -6 235 -6 q 187 -4 206 -6 q 153 0 168 -3 l 153 604 m 376 964 q 381 939 379 953 q 382 913 382 925 q 381 886 382 900 q 376 861 379 872 l 1 861 q -3 886 -1 872 q -4 913 -4 900 q -3 938 -4 924 q 1 964 -1 953 l 376 964 z "},"Ĭ":{"ha":386,"x_min":-37,"x_max":428,"o":"m 122 999 q 157 1003 139 1001 q 193 1004 175 1004 q 229 1003 211 1004 q 264 999 247 1001 l 264 0 q 230 -4 247 -3 q 193 -6 213 -6 q 156 -4 175 -6 q 122 0 138 -3 l 122 999 m 194 1074 q 124 1079 163 1074 q 52 1103 86 1085 q -7 1153 18 1121 q -37 1238 -32 1185 q -8 1242 -22 1240 q 22 1244 7 1244 q 54 1242 39 1244 q 85 1238 69 1240 q 113 1185 89 1207 q 194 1163 136 1163 q 276 1185 253 1163 q 304 1238 300 1207 q 368 1244 339 1244 q 397 1242 383 1244 q 428 1238 411 1240 q 397 1153 422 1185 q 337 1103 371 1121 q 265 1079 303 1085 q 194 1074 226 1074 z "},"ĭ":{"ha":400,"x_min":-32,"x_max":426,"o":"m 153 604 l 63 604 q 58 630 60 615 q 57 658 57 644 q 58 687 57 672 q 63 713 60 701 l 288 713 l 288 0 q 253 -4 272 -3 q 219 -6 235 -6 q 187 -4 206 -6 q 153 0 168 -3 l 153 604 m 197 814 q 128 822 165 814 q 58 850 92 829 q 0 907 25 871 q -32 1000 -25 943 q 0 1006 -17 1004 q 32 1007 17 1007 q 62 1005 47 1007 q 92 1000 76 1003 q 99 967 93 983 q 118 938 106 951 q 149 917 131 925 q 197 908 168 908 q 245 917 226 908 q 276 938 264 925 q 294 967 289 951 q 303 1000 300 983 q 335 1005 319 1003 q 365 1007 350 1007 q 397 1006 381 1007 q 426 1000 413 1004 q 394 907 419 943 q 336 850 369 871 q 266 822 303 829 q 197 814 229 814 z "},"Į":{"ha":386,"x_min":15,"x_max":315,"o":"m 122 999 q 157 1003 139 1001 q 193 1004 175 1004 q 229 1003 211 1004 q 264 999 247 1001 l 264 0 q 179 -80 214 -35 q 144 -172 144 -125 q 164 -223 144 -204 q 222 -242 183 -242 q 253 -239 235 -242 q 294 -229 271 -236 q 310 -273 306 -247 q 315 -319 315 -299 q 267 -331 296 -326 q 196 -336 238 -336 q 131 -328 163 -336 q 73 -304 99 -321 q 31 -261 47 -287 q 15 -196 15 -235 q 48 -93 15 -144 q 135 -1 81 -42 l 122 0 l 122 999 z "},"į":{"ha":400,"x_min":47,"x_max":339,"o":"m 153 604 l 63 604 q 58 630 60 615 q 57 658 57 644 q 58 687 57 672 q 63 713 60 701 l 288 713 l 288 0 q 206 -79 239 -32 q 174 -169 174 -126 q 192 -224 174 -203 q 250 -244 211 -244 q 279 -242 263 -244 q 318 -233 296 -240 q 333 -275 328 -250 q 339 -321 338 -300 q 288 -332 319 -328 q 224 -336 257 -336 q 158 -328 190 -336 q 102 -304 126 -321 q 63 -261 78 -287 q 47 -197 47 -235 q 78 -95 47 -149 q 163 -1 110 -42 l 153 0 l 153 604 m 122 869 q 119 906 119 886 q 118 940 118 925 q 119 975 118 956 q 122 1010 119 994 q 161 1014 140 1013 q 197 1015 182 1015 q 233 1014 213 1015 q 271 1010 254 1013 q 274 975 274 994 q 275 940 275 956 q 274 906 275 925 q 271 869 274 886 q 234 865 254 867 q 199 864 214 864 q 161 865 182 864 q 122 869 140 867 z "},"İ":{"ha":386,"x_min":114,"x_max":276,"o":"m 122 999 q 157 1003 139 1001 q 193 1004 175 1004 q 229 1003 211 1004 q 264 999 247 1001 l 264 0 q 230 -4 247 -3 q 193 -6 213 -6 q 156 -4 175 -6 q 122 0 138 -3 l 122 999 m 119 1094 q 114 1165 114 1126 q 115 1201 114 1183 q 119 1238 117 1219 q 158 1243 139 1242 q 194 1244 176 1244 q 232 1243 213 1244 q 271 1238 251 1242 q 276 1167 276 1206 q 275 1131 276 1149 q 271 1094 274 1113 q 233 1089 251 1090 q 196 1088 214 1088 q 158 1089 178 1088 q 119 1094 139 1090 z "},"ı":{"ha":400,"x_min":57,"x_max":288,"o":"m 153 604 l 63 604 q 58 630 60 615 q 57 658 57 644 q 58 687 57 672 q 63 713 60 701 l 288 713 l 288 0 q 253 -4 272 -3 q 219 -6 235 -6 q 187 -4 206 -6 q 153 0 168 -3 l 153 604 z "},"Ĳ":{"ha":931,"x_min":122,"x_max":814,"o":"m 122 999 q 157 1003 139 1001 q 193 1004 175 1004 q 229 1003 211 1004 q 264 999 247 1001 l 264 0 q 230 -4 247 -3 q 193 -6 213 -6 q 156 -4 175 -6 q 122 0 138 -3 l 122 999 m 672 875 l 497 875 q 493 906 494 889 q 492 938 492 922 q 493 969 492 953 q 497 999 494 985 l 814 999 l 814 278 q 796 138 814 194 q 743 47 778 81 q 658 -2 708 13 q 546 -17 608 -17 q 479 -12 513 -17 q 418 0 446 -7 q 424 58 418 28 q 440 121 429 89 q 478 112 457 117 q 524 107 500 107 q 574 111 549 107 q 622 129 600 115 q 658 171 644 143 q 672 246 672 199 l 672 875 z "},"ĳ":{"ha":803,"x_min":57,"x_max":690,"o":"m 153 604 l 63 604 q 58 630 60 615 q 57 658 57 644 q 58 687 57 672 q 63 713 60 701 l 288 713 l 288 0 q 253 -4 272 -3 q 219 -6 235 -6 q 187 -4 206 -6 q 153 0 168 -3 l 153 604 m 122 869 q 119 906 119 886 q 118 940 118 925 q 119 975 118 956 q 122 1010 119 994 q 161 1014 140 1013 q 197 1015 182 1015 q 233 1014 213 1015 q 271 1010 254 1013 q 274 975 274 994 q 275 940 275 956 q 274 906 275 925 q 271 869 274 886 q 234 865 254 867 q 199 864 214 864 q 161 865 182 864 q 122 869 140 867 m 556 604 l 465 604 q 461 630 463 615 q 460 658 460 644 q 461 687 460 672 q 465 713 463 701 l 690 713 l 690 -40 q 674 -144 690 -103 q 627 -212 657 -186 q 557 -249 597 -237 q 469 -260 517 -260 q 343 -242 394 -260 q 350 -187 344 -215 q 365 -137 356 -160 q 443 -149 399 -149 q 481 -146 461 -149 q 517 -131 500 -143 q 544 -96 533 -119 q 556 -31 556 -72 l 556 604 m 522 871 q 518 908 519 890 q 517 940 517 925 q 518 973 517 956 q 522 1008 519 990 q 561 1013 540 1011 q 597 1015 582 1015 q 633 1013 613 1015 q 669 1008 653 1011 q 674 973 672 990 q 675 940 675 956 q 674 908 675 925 q 669 871 672 890 q 633 866 653 868 q 597 864 613 864 q 561 866 582 864 q 522 871 540 868 z "},"Ĵ":{"ha":550,"x_min":39,"x_max":533,"o":"m 293 875 l 118 875 q 114 906 115 889 q 113 938 113 922 q 114 969 113 953 q 118 999 115 985 l 435 999 l 435 278 q 417 138 435 194 q 364 47 399 81 q 279 -2 329 13 q 167 -17 229 -17 q 100 -12 133 -17 q 39 0 67 -7 q 44 58 39 28 q 61 121 50 89 q 99 112 78 117 q 144 107 121 107 q 195 111 169 107 q 243 129 221 115 q 279 171 265 143 q 293 246 293 199 l 293 875 m 533 1082 q 506 1078 521 1079 q 476 1076 490 1076 l 446 1076 q 412 1078 431 1076 q 382 1082 393 1079 l 292 1167 l 201 1082 q 169 1078 189 1079 q 136 1076 150 1076 l 104 1076 q 76 1078 90 1076 q 47 1082 61 1079 l 211 1232 q 247 1236 226 1235 q 292 1238 268 1238 q 335 1236 315 1238 q 374 1232 356 1235 l 533 1082 z "},"ĵ":{"ha":403,"x_min":-54,"x_max":424,"o":"m 157 603 l 65 603 q 61 628 63 614 q 60 657 60 643 q 61 685 60 671 q 65 713 63 700 l 292 713 l 292 -40 q 275 -143 292 -101 q 228 -210 258 -185 q 158 -247 199 -236 q 71 -258 118 -258 q 0 -253 31 -258 q -54 -242 -31 -249 q -48 -187 -54 -217 q -32 -137 -42 -158 q 1 -146 -17 -143 q 43 -149 19 -149 q 81 -145 61 -149 q 118 -130 101 -142 q 146 -94 135 -118 q 157 -31 157 -71 l 157 603 m 424 825 q 395 821 411 822 q 361 819 379 819 q 322 821 343 819 q 282 825 300 822 l 192 936 l 101 825 q 66 821 86 822 q 28 819 46 819 q -40 825 -12 819 l 111 1001 q 152 1006 129 1004 q 196 1007 175 1007 q 233 1006 211 1007 q 274 1000 254 1004 l 424 825 z "},"Ķ":{"ha":835,"x_min":122,"x_max":821,"o":"m 306 507 l 626 999 q 665 1003 646 1001 q 699 1004 683 1004 q 738 1003 717 1004 q 781 999 758 1001 l 464 519 l 821 0 q 777 -4 799 -3 q 736 -6 756 -6 q 700 -4 719 -6 q 660 0 681 -3 l 306 507 m 122 999 q 157 1003 139 1001 q 193 1004 175 1004 q 229 1003 211 1004 q 264 999 247 1001 l 264 0 q 229 -4 247 -3 q 193 -6 211 -6 q 156 -4 174 -6 q 122 0 138 -3 l 122 999 m 460 -331 q 400 -337 428 -337 q 370 -335 385 -337 q 339 -331 356 -333 l 401 -90 q 435 -86 417 -87 q 469 -85 453 -85 l 483 -85 q 513 -86 499 -85 q 543 -90 528 -87 l 460 -331 z "},"ķ":{"ha":714,"x_min":106,"x_max":697,"o":"m 106 1018 q 140 1022 121 1021 q 174 1024 158 1024 q 208 1022 189 1024 q 243 1018 228 1021 l 243 0 q 208 -4 228 -3 q 174 -6 189 -6 q 140 -4 158 -6 q 106 0 121 -3 l 106 1018 m 281 369 l 507 713 q 543 717 525 715 q 581 718 561 718 q 620 717 601 718 q 658 713 639 715 l 432 379 l 697 0 q 660 -4 678 -3 q 622 -6 642 -6 q 583 -4 603 -6 q 544 0 564 -3 l 281 369 m 388 -331 q 359 -335 372 -333 q 331 -337 346 -337 q 300 -335 315 -337 q 269 -331 285 -333 l 331 -90 q 357 -87 343 -89 q 386 -85 371 -85 l 414 -85 q 440 -86 428 -85 q 468 -90 453 -87 l 388 -331 z "},"ĸ":{"ha":728,"x_min":106,"x_max":722,"o":"m 106 718 q 140 722 121 721 q 174 724 158 724 q 208 722 189 724 q 243 718 228 721 l 243 0 q 208 -4 228 -3 q 174 -6 189 -6 q 140 -4 158 -6 q 106 0 121 -3 l 106 718 m 282 368 l 528 713 q 565 717 547 715 q 603 718 583 718 q 643 717 622 718 q 683 713 664 715 l 438 376 l 722 0 q 683 -4 703 -3 q 644 -6 664 -6 q 606 -4 625 -6 q 565 0 586 -3 l 282 368 z "},"Ĺ":{"ha":688,"x_min":108,"x_max":658,"o":"m 122 999 q 155 1003 138 1001 q 192 1004 172 1004 q 228 1003 210 1004 q 263 999 246 1001 l 263 125 l 654 125 q 658 93 657 110 q 658 63 658 76 q 654 0 658 29 l 122 0 l 122 999 m 257 1082 q 219 1078 239 1079 q 181 1076 200 1076 q 144 1078 161 1076 q 108 1082 128 1079 l 256 1232 q 303 1237 278 1235 q 353 1239 328 1239 q 403 1237 379 1239 q 446 1232 426 1235 l 257 1082 z "},"ĺ":{"ha":414,"x_min":82,"x_max":419,"o":"m 108 1018 q 142 1022 124 1021 q 176 1024 161 1024 q 210 1022 192 1024 q 244 1018 229 1021 l 244 215 q 251 154 244 176 q 270 120 258 132 q 298 105 282 108 q 332 101 314 101 q 360 103 344 101 q 388 107 376 104 q 400 1 400 58 q 353 -8 381 -6 q 301 -10 325 -10 q 226 0 261 -10 q 165 32 192 10 q 124 92 139 54 q 108 185 108 129 l 108 1018 m 231 1082 q 193 1078 213 1079 q 154 1076 174 1076 q 118 1078 135 1076 q 82 1082 101 1079 l 229 1232 q 276 1237 251 1235 q 326 1239 301 1239 q 376 1237 353 1239 q 419 1232 400 1235 l 231 1082 z "},"Ļ":{"ha":688,"x_min":122,"x_max":658,"o":"m 122 999 q 155 1003 138 1001 q 192 1004 172 1004 q 228 1003 210 1004 q 263 999 246 1001 l 263 125 l 654 125 q 658 93 657 110 q 658 63 658 76 q 654 0 658 29 l 122 0 l 122 999 m 393 -331 q 333 -337 361 -337 q 303 -335 318 -337 q 272 -331 289 -333 l 335 -90 q 368 -86 350 -87 q 403 -85 386 -85 l 417 -85 q 447 -86 432 -85 q 476 -90 461 -87 l 393 -331 z "},"ļ":{"ha":414,"x_min":108,"x_max":400,"o":"m 108 1018 q 142 1022 124 1021 q 176 1024 161 1024 q 210 1022 192 1024 q 244 1018 229 1021 l 244 215 q 251 154 244 176 q 270 120 258 132 q 298 105 282 108 q 332 101 314 101 q 360 103 344 101 q 388 107 376 104 q 400 1 400 58 q 353 -8 381 -6 q 301 -10 325 -10 q 226 0 261 -10 q 165 32 192 10 q 124 92 139 54 q 108 185 108 129 l 108 1018 m 271 -331 q 242 -335 256 -333 q 214 -337 229 -337 q 183 -335 199 -337 q 153 -331 168 -333 l 214 -90 q 240 -87 226 -89 q 269 -85 254 -85 l 297 -85 q 324 -86 311 -85 q 351 -90 336 -87 l 271 -331 z "},"Ľ":{"ha":675,"x_min":122,"x_max":658,"o":"m 122 999 q 155 1003 138 1001 q 192 1004 172 1004 q 228 1003 210 1004 q 263 999 246 1001 l 263 125 l 654 125 q 658 93 657 110 q 658 63 658 76 q 654 0 658 29 l 122 0 l 122 999 m 388 1000 q 451 1006 410 1006 q 485 1004 468 1006 q 518 1000 503 1003 l 499 718 q 474 714 488 715 q 446 713 460 713 q 417 714 432 713 q 388 718 403 715 l 388 1000 z "},"ľ":{"ha":490,"x_min":108,"x_max":501,"o":"m 108 1018 q 142 1022 124 1021 q 176 1024 161 1024 q 210 1022 192 1024 q 244 1018 229 1021 l 244 215 q 251 154 244 176 q 270 120 258 132 q 298 105 282 108 q 332 101 314 101 q 360 103 344 101 q 388 107 376 104 q 400 1 400 58 q 353 -8 381 -6 q 301 -10 325 -10 q 226 0 261 -10 q 165 32 192 10 q 124 92 139 54 q 108 185 108 129 l 108 1018 m 371 1018 q 435 1024 393 1024 q 469 1022 451 1024 q 501 1018 486 1021 l 482 736 q 457 732 471 733 q 429 731 443 731 q 401 732 415 731 q 371 736 386 733 l 371 1018 z "},"Ŀ":{"ha":688,"x_min":122,"x_max":658,"o":"m 122 999 q 155 1003 138 1001 q 192 1004 172 1004 q 228 1003 210 1004 q 263 999 246 1001 l 263 125 l 654 125 q 658 93 657 110 q 658 63 658 76 q 654 0 658 29 l 122 0 l 122 999 m 460 476 q 456 514 457 496 q 454 551 454 532 q 456 590 454 571 q 460 628 457 608 q 497 632 479 631 q 535 633 515 633 q 573 632 554 633 q 611 628 592 631 q 615 590 614 608 q 617 553 617 572 q 615 515 617 533 q 611 476 614 496 q 574 472 592 474 q 536 471 556 471 q 498 472 517 471 q 460 476 479 474 z "},"ŀ":{"ha":514,"x_min":108,"x_max":517,"o":"m 108 1018 q 142 1022 124 1021 q 176 1024 161 1024 q 210 1022 192 1024 q 244 1018 229 1021 l 244 215 q 251 154 244 176 q 270 120 258 132 q 298 105 282 108 q 332 101 314 101 q 360 103 344 101 q 388 107 376 104 q 400 1 400 58 q 353 -8 381 -6 q 301 -10 325 -10 q 226 0 261 -10 q 165 32 192 10 q 124 92 139 54 q 108 185 108 129 l 108 1018 m 360 463 q 356 500 357 482 q 354 538 354 518 q 356 576 354 557 q 360 614 357 594 q 397 618 379 617 q 435 619 415 619 q 473 618 454 619 q 511 614 492 617 q 515 576 514 594 q 517 539 517 558 q 515 501 517 519 q 511 463 514 482 q 474 458 492 460 q 436 457 456 457 q 398 458 417 457 q 360 463 379 460 z "},"Ł":{"ha":688,"x_min":24,"x_max":658,"o":"m 121 364 q 76 333 99 349 q 32 301 54 317 q 26 335 28 321 q 24 365 24 349 q 26 396 24 379 q 32 426 28 413 l 121 488 l 121 999 q 192 1003 151 1003 q 261 999 229 1003 l 261 586 l 443 711 q 450 649 450 679 q 448 617 450 632 q 443 586 446 601 l 261 461 l 261 125 l 653 125 q 657 93 656 110 q 658 63 658 76 q 657 31 658 47 q 653 0 656 15 l 121 0 l 121 364 z "},"ł":{"ha":414,"x_min":19,"x_max":400,"o":"m 28 503 q 108 558 64 531 l 108 1018 q 142 1022 124 1021 q 176 1024 161 1024 q 210 1022 192 1024 q 244 1018 229 1021 l 244 654 l 346 725 q 351 694 350 710 q 353 663 353 679 q 351 632 353 646 q 346 603 349 618 l 244 532 l 244 275 q 249 180 244 214 q 265 128 254 146 q 292 106 275 110 q 332 101 308 101 q 360 103 344 101 q 388 107 376 104 q 397 50 394 79 q 400 1 400 21 q 353 -8 381 -6 q 301 -10 325 -10 q 219 1 256 -10 q 158 40 183 13 q 121 116 133 68 q 108 238 108 164 l 108 436 q 28 381 64 408 q 22 414 24 400 q 19 443 19 428 q 22 473 19 457 q 28 503 24 489 z "},"Ń":{"ha":944,"x_min":122,"x_max":822,"o":"m 122 999 q 155 1003 138 1001 q 188 1004 172 1004 q 220 1003 203 1004 q 253 999 238 1001 l 688 249 l 688 999 q 722 1003 704 1001 q 758 1004 740 1004 q 790 1003 774 1004 q 822 999 807 1001 l 822 0 q 790 -4 807 -3 q 757 -6 772 -6 q 724 -4 742 -6 q 692 0 707 -3 l 256 746 l 256 0 q 223 -4 240 -3 q 189 -6 206 -6 q 153 -4 171 -6 q 122 0 136 -3 l 122 999 m 533 1082 q 496 1078 515 1079 q 457 1076 476 1076 q 421 1078 438 1076 q 385 1082 404 1079 l 532 1232 q 579 1237 554 1235 q 629 1239 604 1239 q 679 1237 656 1239 q 722 1232 703 1235 l 533 1082 z "},"ń":{"ha":803,"x_min":111,"x_max":707,"o":"m 111 713 q 141 717 126 715 q 171 718 156 718 q 199 717 186 718 q 228 713 213 715 q 236 656 232 692 q 240 597 240 621 q 276 644 254 621 q 325 687 297 668 q 389 717 353 706 q 468 729 425 729 q 649 659 590 729 q 707 451 707 589 l 707 0 q 672 -4 692 -3 q 638 -6 653 -6 q 603 -4 622 -6 q 569 0 585 -3 l 569 414 q 539 559 569 513 q 442 606 508 606 q 368 592 403 606 q 307 549 333 578 q 265 473 281 519 q 249 361 249 426 l 249 0 q 215 -4 233 -3 q 181 -6 196 -6 q 146 -4 165 -6 q 111 0 126 -3 l 111 713 m 444 825 q 411 821 429 822 q 371 819 393 819 q 340 821 356 819 q 307 825 324 822 l 467 1001 q 510 1006 488 1004 q 556 1007 532 1007 q 601 1006 581 1007 q 642 1001 622 1004 l 444 825 z "},"Ņ":{"ha":944,"x_min":122,"x_max":822,"o":"m 122 999 q 155 1003 138 1001 q 188 1004 172 1004 q 220 1003 203 1004 q 253 999 238 1001 l 688 249 l 688 999 q 722 1003 704 1001 q 758 1004 740 1004 q 790 1003 774 1004 q 822 999 807 1001 l 822 0 q 790 -4 807 -3 q 757 -6 772 -6 q 724 -4 742 -6 q 692 0 707 -3 l 256 746 l 256 0 q 223 -4 240 -3 q 189 -6 206 -6 q 153 -4 171 -6 q 122 0 136 -3 l 122 999 m 492 -331 q 432 -337 460 -337 q 402 -335 417 -337 q 371 -331 388 -333 l 433 -90 q 467 -86 449 -87 q 501 -85 485 -85 l 515 -85 q 545 -86 531 -85 q 575 -90 560 -87 l 492 -331 z "},"ņ":{"ha":803,"x_min":111,"x_max":707,"o":"m 111 713 q 141 717 126 715 q 171 718 156 718 q 199 717 186 718 q 228 713 213 715 q 236 656 232 692 q 240 597 240 621 q 276 644 254 621 q 325 687 297 668 q 389 717 353 706 q 468 729 425 729 q 649 659 590 729 q 707 451 707 589 l 707 0 q 672 -4 692 -3 q 638 -6 653 -6 q 603 -4 622 -6 q 569 0 585 -3 l 569 414 q 539 559 569 513 q 442 606 508 606 q 368 592 403 606 q 307 549 333 578 q 265 473 281 519 q 249 361 249 426 l 249 0 q 215 -4 233 -3 q 181 -6 196 -6 q 146 -4 165 -6 q 111 0 126 -3 l 111 713 m 411 -331 q 383 -335 396 -333 q 354 -337 369 -337 q 324 -335 339 -337 q 293 -331 308 -333 l 354 -90 q 381 -87 367 -89 q 410 -85 394 -85 l 438 -85 q 464 -86 451 -85 q 492 -90 476 -87 l 411 -331 z "},"Ň":{"ha":944,"x_min":122,"x_max":822,"o":"m 122 999 q 155 1003 138 1001 q 188 1004 172 1004 q 220 1003 203 1004 q 253 999 238 1001 l 688 249 l 688 999 q 722 1003 704 1001 q 758 1004 740 1004 q 790 1003 774 1004 q 822 999 807 1001 l 822 0 q 790 -4 807 -3 q 757 -6 772 -6 q 724 -4 742 -6 q 692 0 707 -3 l 256 746 l 256 0 q 223 -4 240 -3 q 189 -6 206 -6 q 153 -4 171 -6 q 122 0 136 -3 l 122 999 m 233 1232 q 261 1235 246 1233 q 290 1238 276 1238 l 321 1238 q 355 1235 336 1238 q 385 1232 374 1233 q 431 1189 408 1210 q 475 1146 453 1168 l 565 1232 q 597 1235 578 1233 q 631 1238 617 1238 l 663 1238 q 691 1235 676 1238 q 719 1232 706 1233 l 556 1082 q 519 1078 540 1079 q 475 1076 499 1076 q 431 1078 451 1076 q 393 1082 411 1079 l 233 1232 z "},"ň":{"ha":803,"x_min":111,"x_max":707,"o":"m 111 713 q 141 717 126 715 q 171 718 156 718 q 199 717 186 718 q 228 713 213 715 q 236 656 232 692 q 240 597 240 621 q 276 644 254 621 q 325 687 297 668 q 389 717 353 706 q 468 729 425 729 q 649 659 590 729 q 707 451 707 589 l 707 0 q 672 -4 692 -3 q 638 -6 653 -6 q 603 -4 622 -6 q 569 0 585 -3 l 569 414 q 539 559 569 513 q 442 606 508 606 q 368 592 403 606 q 307 549 333 578 q 265 473 281 519 q 249 361 249 426 l 249 0 q 215 -4 233 -3 q 181 -6 196 -6 q 146 -4 165 -6 q 111 0 126 -3 l 111 713 m 181 1000 q 210 1005 194 1003 q 244 1007 225 1007 q 283 1005 261 1007 q 322 1000 306 1003 l 413 889 l 503 1000 q 539 1005 518 1003 q 578 1007 560 1007 q 644 1000 613 1007 l 493 824 q 452 820 475 821 q 410 819 429 819 q 372 821 394 819 q 331 825 350 822 l 181 1000 z "},"ŉ":{"ha":811,"x_min":-29,"x_max":714,"o":"m 118 713 q 148 717 133 715 q 178 718 163 718 q 206 717 193 718 q 235 713 219 715 q 243 656 239 692 q 247 597 247 621 q 283 644 261 621 q 332 687 304 668 q 396 717 360 706 q 475 729 432 729 q 656 659 597 729 q 714 451 714 589 l 714 0 q 679 -4 699 -3 q 644 -6 660 -6 q 610 -4 629 -6 q 576 0 592 -3 l 576 414 q 546 559 576 513 q 449 606 515 606 q 375 592 410 606 q 314 549 340 578 q 272 473 288 519 q 256 361 256 426 l 256 0 q 222 -4 240 -3 q 188 -6 203 -6 q 153 -4 172 -6 q 118 0 133 -3 l 118 713 m 28 1018 q 55 1022 38 1021 q 92 1024 72 1024 q 131 1022 111 1024 q 163 1018 151 1021 l 86 792 q 56 788 69 789 q 28 786 43 786 q -29 792 -3 786 l 28 1018 z "},"Ŋ":{"ha":944,"x_min":122,"x_max":822,"o":"m 122 999 q 155 1003 138 1001 q 188 1004 172 1004 q 220 1003 203 1004 q 253 999 238 1001 l 688 249 l 688 999 q 722 1003 704 1001 q 758 1004 740 1004 q 790 1003 774 1004 q 822 999 807 1001 l 822 64 q 821 6 822 33 q 817 -49 819 -21 q 785 -147 810 -108 q 724 -208 761 -186 q 640 -240 686 -231 q 547 -249 594 -249 q 490 -245 521 -249 q 426 -233 458 -242 q 431 -177 426 -206 q 449 -117 435 -149 q 488 -126 465 -122 q 533 -129 510 -129 q 583 -126 556 -129 q 635 -108 611 -122 q 676 -67 660 -94 q 692 7 692 -40 l 256 746 l 256 0 q 223 -4 240 -3 q 189 -6 206 -6 q 153 -4 171 -6 q 122 0 136 -3 l 122 999 z "},"ŋ":{"ha":803,"x_min":111,"x_max":707,"o":"m 111 713 q 141 717 126 715 q 171 718 156 718 q 199 717 186 718 q 228 713 213 715 q 236 656 232 692 q 240 597 240 621 q 276 644 254 621 q 325 687 297 668 q 389 717 353 706 q 468 729 425 729 q 649 659 590 729 q 707 451 707 589 l 707 -40 q 690 -144 707 -103 q 644 -212 674 -186 q 573 -249 614 -237 q 485 -260 532 -260 q 358 -242 410 -260 q 365 -187 360 -215 q 381 -137 371 -160 q 458 -149 414 -149 q 495 -146 475 -149 q 532 -132 515 -143 q 560 -99 549 -121 q 571 -39 571 -76 l 571 414 q 540 559 571 513 q 442 606 508 606 q 368 592 403 606 q 307 549 333 578 q 265 473 281 519 q 249 361 249 426 l 249 0 q 215 -4 233 -3 q 181 -6 196 -6 q 146 -4 165 -6 q 111 0 126 -3 l 111 713 z "},"Ō":{"ha":1013,"x_min":85,"x_max":928,"o":"m 507 -17 q 319 22 399 -17 q 188 128 240 60 q 110 292 136 197 q 85 499 85 386 q 110 706 85 611 q 188 869 136 800 q 319 976 240 938 q 507 1015 399 1015 q 694 976 615 1015 q 826 869 774 938 q 903 706 878 800 q 928 499 928 611 q 903 292 928 386 q 826 128 878 197 q 694 22 774 60 q 507 -17 615 -17 m 507 106 q 627 133 576 106 q 711 211 678 160 q 761 335 744 263 q 778 499 778 407 q 761 662 778 589 q 711 785 744 735 q 627 863 678 836 q 507 890 576 890 q 387 863 438 890 q 303 785 336 836 q 253 662 269 735 q 236 499 236 589 q 253 335 236 407 q 303 211 269 263 q 387 133 336 160 q 507 106 438 106 m 728 1207 q 731 1181 731 1196 q 732 1154 732 1167 q 731 1128 732 1142 q 728 1103 731 1114 l 285 1103 q 281 1128 282 1114 q 279 1154 279 1142 q 281 1181 279 1167 q 285 1207 282 1196 l 728 1207 z "},"ō":{"ha":801,"x_min":68,"x_max":732,"o":"m 400 -17 q 254 12 317 -17 q 150 90 192 40 q 88 208 108 140 q 68 356 68 276 q 88 503 68 435 q 150 621 108 571 q 254 700 192 671 q 400 729 317 729 q 546 700 483 729 q 650 621 608 671 q 712 503 692 571 q 732 356 732 435 q 712 208 732 276 q 650 90 692 140 q 546 12 608 40 q 400 -17 483 -17 m 400 93 q 542 163 496 93 q 588 356 588 232 q 542 548 588 479 q 400 617 496 617 q 259 548 304 617 q 214 356 214 479 q 259 163 214 232 q 400 93 304 93 m 586 964 q 590 939 589 953 q 592 913 592 925 q 590 886 592 900 q 586 861 589 872 l 211 861 q 207 886 208 872 q 206 913 206 900 q 207 938 206 924 q 211 964 208 953 l 586 964 z "},"Ŏ":{"ha":1013,"x_min":85,"x_max":928,"o":"m 507 -17 q 319 22 399 -17 q 188 128 240 60 q 110 292 136 197 q 85 499 85 386 q 110 706 85 611 q 188 869 136 800 q 319 976 240 938 q 507 1015 399 1015 q 694 976 615 1015 q 826 869 774 938 q 903 706 878 800 q 928 499 928 611 q 903 292 928 386 q 826 128 878 197 q 694 22 774 60 q 507 -17 615 -17 m 507 106 q 627 133 576 106 q 711 211 678 160 q 761 335 744 263 q 778 499 778 407 q 761 662 778 589 q 711 785 744 735 q 627 863 678 836 q 507 890 576 890 q 387 863 438 890 q 303 785 336 836 q 253 662 269 735 q 236 499 236 589 q 253 335 236 407 q 303 211 269 263 q 387 133 336 160 q 507 106 438 106 m 506 1074 q 435 1079 474 1074 q 363 1103 397 1085 q 304 1153 329 1121 q 274 1238 279 1185 q 303 1242 289 1240 q 333 1244 318 1244 q 365 1242 350 1244 q 396 1238 381 1240 q 424 1185 400 1207 q 506 1163 447 1163 q 588 1185 564 1163 q 615 1238 611 1207 q 679 1244 650 1244 q 708 1242 694 1244 q 739 1238 722 1240 q 708 1153 733 1185 q 648 1103 682 1121 q 576 1079 614 1085 q 506 1074 538 1074 z "},"ŏ":{"ha":801,"x_min":68,"x_max":732,"o":"m 400 -17 q 254 12 317 -17 q 150 90 192 40 q 88 208 108 140 q 68 356 68 276 q 88 503 68 435 q 150 621 108 571 q 254 700 192 671 q 400 729 317 729 q 546 700 483 729 q 650 621 608 671 q 712 503 692 571 q 732 356 732 435 q 712 208 732 276 q 650 90 692 140 q 546 12 608 40 q 400 -17 483 -17 m 400 93 q 542 163 496 93 q 588 356 588 232 q 542 548 588 479 q 400 617 496 617 q 259 548 304 617 q 214 356 214 479 q 259 163 214 232 q 400 93 304 93 m 399 814 q 330 822 367 814 q 260 850 293 829 q 201 907 226 871 q 169 1000 176 943 q 201 1006 185 1004 q 233 1007 218 1007 q 263 1005 249 1007 q 293 1000 278 1003 q 301 967 294 983 q 319 938 307 951 q 351 917 332 925 q 399 908 369 908 q 447 917 428 908 q 478 938 465 925 q 496 967 490 951 q 504 1000 501 983 q 536 1005 521 1003 q 567 1007 551 1007 q 598 1006 582 1007 q 628 1000 614 1004 q 596 907 621 943 q 538 850 571 871 q 467 822 504 829 q 399 814 431 814 z "},"Ő":{"ha":1013,"x_min":85,"x_max":928,"o":"m 507 -17 q 319 22 399 -17 q 188 128 240 60 q 110 292 136 197 q 85 499 85 386 q 110 706 85 611 q 188 869 136 800 q 319 976 240 938 q 507 1015 399 1015 q 694 976 615 1015 q 826 869 774 938 q 903 706 878 800 q 928 499 928 611 q 903 292 928 386 q 826 128 878 197 q 694 22 774 60 q 507 -17 615 -17 m 507 106 q 627 133 576 106 q 711 211 678 160 q 761 335 744 263 q 778 499 778 407 q 761 662 778 589 q 711 785 744 735 q 627 863 678 836 q 507 890 576 890 q 387 863 438 890 q 303 785 336 836 q 253 662 269 735 q 236 499 236 589 q 253 335 236 407 q 303 211 269 263 q 387 133 336 160 q 507 106 438 106 m 417 1081 q 381 1076 400 1078 q 340 1075 361 1075 q 308 1076 325 1075 q 272 1081 292 1078 l 411 1233 q 456 1238 433 1238 q 497 1239 478 1239 q 538 1238 517 1239 q 581 1233 558 1236 l 417 1081 m 701 1081 q 666 1076 686 1078 q 626 1075 646 1075 q 594 1076 611 1075 q 558 1081 578 1078 l 696 1233 q 741 1238 719 1238 q 782 1239 763 1239 q 823 1238 801 1239 q 867 1233 844 1236 l 701 1081 z "},"ő":{"ha":801,"x_min":68,"x_max":758,"o":"m 400 -17 q 254 12 317 -17 q 150 90 192 40 q 88 208 108 140 q 68 356 68 276 q 88 503 68 435 q 150 621 108 571 q 254 700 192 671 q 400 729 317 729 q 546 700 483 729 q 650 621 608 671 q 712 503 692 571 q 732 356 732 435 q 712 208 732 276 q 650 90 692 140 q 546 12 608 40 q 400 -17 483 -17 m 400 93 q 542 163 496 93 q 588 356 588 232 q 542 548 588 479 q 400 617 496 617 q 259 548 304 617 q 214 356 214 479 q 259 163 214 232 q 400 93 304 93 m 307 825 q 273 821 292 822 q 233 819 254 819 q 202 821 218 819 q 169 825 186 822 l 326 1001 q 369 1006 347 1004 q 410 1007 390 1007 q 450 1006 429 1007 q 492 1001 471 1004 l 307 825 m 574 825 q 540 821 558 822 q 500 819 521 819 q 469 821 485 819 q 436 825 453 822 l 594 1001 q 635 1006 614 1004 q 676 1007 657 1007 q 717 1006 697 1007 q 758 1001 738 1004 l 574 825 z "},"Œ":{"ha":1283,"x_min":76,"x_max":1225,"o":"m 1219 124 q 1224 94 1222 110 q 1225 63 1225 78 q 1224 31 1225 47 q 1219 0 1222 14 l 683 0 q 597 -12 646 -8 q 507 -17 547 -17 q 318 22 399 -17 q 184 128 238 60 q 103 292 131 197 q 76 499 76 386 q 104 706 76 611 q 186 869 132 800 q 322 976 240 938 q 511 1015 403 1015 q 596 1012 551 1015 q 676 999 640 1008 l 1208 999 q 1213 969 1211 985 q 1214 938 1214 953 q 1213 906 1214 922 q 1208 875 1211 889 l 801 875 l 801 589 l 1126 589 q 1131 559 1129 575 q 1132 528 1132 543 q 1131 496 1132 513 q 1126 465 1129 479 l 801 465 l 801 124 l 1219 124 m 660 874 q 592 886 628 882 q 513 890 557 890 q 390 863 443 890 q 301 785 338 836 q 247 662 265 735 q 228 499 228 589 q 245 335 228 407 q 298 211 263 263 q 385 133 333 160 q 507 106 438 106 q 590 110 553 106 q 660 125 628 114 l 660 874 z "},"œ":{"ha":1276,"x_min":72,"x_max":1207,"o":"m 728 322 q 787 151 731 206 q 956 97 843 97 q 1049 106 1006 97 q 1138 132 1093 115 q 1155 81 1147 111 q 1164 22 1163 51 q 1063 -7 1117 3 q 943 -17 1010 -17 q 767 22 839 -17 q 657 132 696 61 q 555 22 617 61 q 403 -17 493 -17 q 259 12 321 -17 q 156 90 197 40 q 93 208 114 140 q 72 356 72 276 q 93 503 72 435 q 156 621 114 571 q 259 700 197 671 q 403 729 321 729 q 556 691 492 729 q 660 586 619 653 q 760 691 696 653 q 913 729 824 729 q 1038 703 983 729 q 1131 633 1093 678 q 1188 528 1168 588 q 1207 400 1207 468 q 1206 359 1207 381 q 1201 322 1204 338 l 728 322 m 403 93 q 547 163 499 93 q 594 356 594 232 q 547 548 594 479 q 403 617 499 617 q 260 548 307 617 q 213 356 213 479 q 260 163 213 232 q 403 93 307 93 m 1074 425 q 1033 564 1072 510 q 911 618 994 618 q 785 567 831 618 q 729 425 739 517 l 1074 425 z "},"Ŕ":{"ha":829,"x_min":125,"x_max":803,"o":"m 125 1000 q 181 1006 156 1003 q 230 1010 206 1008 q 281 1014 254 1013 q 339 1015 307 1015 q 479 1001 410 1015 q 603 953 549 988 q 691 859 657 918 q 725 710 725 800 q 707 611 725 656 q 661 532 689 567 q 598 472 633 497 q 529 429 563 446 l 513 421 l 803 0 q 718 -4 765 -4 q 643 0 681 -4 l 324 463 l 324 468 l 335 471 q 414 497 372 481 q 491 541 456 514 q 550 606 526 568 q 574 699 574 644 q 515 847 574 799 q 356 896 456 896 q 312 894 332 896 q 267 890 292 893 l 267 0 q 233 -3 251 -1 q 197 -4 214 -4 q 161 -3 181 -4 q 125 0 142 -3 l 125 1000 m 432 1082 q 394 1078 414 1079 q 356 1076 375 1076 q 319 1078 336 1076 q 283 1082 303 1079 l 431 1232 q 478 1237 453 1235 q 528 1239 503 1239 q 578 1237 554 1239 q 621 1232 601 1235 l 432 1082 z "},"ŕ":{"ha":517,"x_min":111,"x_max":494,"o":"m 111 713 q 140 717 126 715 q 169 718 154 718 q 200 717 185 718 q 228 713 215 715 q 236 658 232 692 q 240 600 240 624 q 317 682 269 647 q 440 717 365 717 q 463 716 451 717 q 483 714 475 715 q 488 688 486 701 q 489 658 489 674 q 487 624 489 642 q 482 589 485 606 q 459 592 471 592 q 440 592 447 592 q 369 581 403 592 q 308 544 335 571 q 265 472 281 518 q 249 354 249 426 l 249 0 q 215 -4 233 -3 q 181 -6 196 -6 q 147 -4 165 -6 q 111 0 128 -3 l 111 713 m 297 825 q 264 821 282 822 q 224 819 246 819 q 192 821 208 819 q 160 825 176 822 l 319 1001 q 363 1006 340 1004 q 408 1007 385 1007 q 454 1006 433 1007 q 494 1001 475 1004 l 297 825 z "},"Ŗ":{"ha":829,"x_min":125,"x_max":803,"o":"m 125 1000 q 181 1006 156 1003 q 230 1010 206 1008 q 281 1014 254 1013 q 339 1015 307 1015 q 479 1001 410 1015 q 603 953 549 988 q 691 859 657 918 q 725 710 725 800 q 707 611 725 656 q 661 532 689 567 q 598 472 633 497 q 529 429 563 446 l 513 421 l 803 0 q 718 -4 765 -4 q 643 0 681 -4 l 324 463 l 324 468 l 335 471 q 414 497 372 481 q 491 541 456 514 q 550 606 526 568 q 574 699 574 644 q 515 847 574 799 q 356 896 456 896 q 312 894 332 896 q 267 890 292 893 l 267 0 q 233 -3 251 -1 q 197 -4 214 -4 q 161 -3 181 -4 q 125 0 142 -3 l 125 1000 m 450 -331 q 422 -335 435 -333 q 393 -337 408 -337 q 363 -335 378 -337 q 332 -331 347 -333 l 393 -90 q 419 -87 406 -89 q 449 -85 433 -85 l 476 -85 q 503 -86 490 -85 q 531 -90 515 -87 l 450 -331 z "},"ŗ":{"ha":517,"x_min":53,"x_max":489,"o":"m 111 713 q 140 717 126 715 q 169 718 154 718 q 200 717 185 718 q 228 713 215 715 q 236 658 232 692 q 240 600 240 624 q 317 682 269 647 q 440 717 365 717 q 463 716 451 717 q 483 714 475 715 q 488 688 486 701 q 489 658 489 674 q 487 624 489 642 q 482 589 485 606 q 459 592 471 592 q 440 592 447 592 q 369 581 403 592 q 308 544 335 571 q 265 472 281 518 q 249 354 249 426 l 249 0 q 215 -4 233 -3 q 181 -6 196 -6 q 147 -4 165 -6 q 111 0 128 -3 l 111 713 m 171 -331 q 142 -335 156 -333 q 114 -337 129 -337 q 83 -335 99 -337 q 53 -331 68 -333 l 114 -90 q 140 -87 126 -89 q 169 -85 154 -85 l 197 -85 q 224 -86 211 -85 q 251 -90 236 -87 l 171 -331 z "},"Ř":{"ha":829,"x_min":125,"x_max":803,"o":"m 125 1000 q 181 1006 156 1003 q 230 1010 206 1008 q 281 1014 254 1013 q 339 1015 307 1015 q 479 1001 410 1015 q 603 953 549 988 q 691 859 657 918 q 725 710 725 800 q 707 611 725 656 q 661 532 689 567 q 598 472 633 497 q 529 429 563 446 l 513 421 l 803 0 q 718 -4 765 -4 q 643 0 681 -4 l 324 463 l 324 468 l 335 471 q 414 497 372 481 q 491 541 456 514 q 550 606 526 568 q 574 699 574 644 q 515 847 574 799 q 356 896 456 896 q 312 894 332 896 q 267 890 292 893 l 267 0 q 233 -3 251 -1 q 197 -4 214 -4 q 161 -3 181 -4 q 125 0 142 -3 l 125 1000 m 150 1232 q 178 1235 163 1233 q 207 1238 193 1238 l 238 1238 q 272 1235 253 1238 q 301 1232 290 1233 q 347 1189 325 1210 q 392 1146 369 1168 l 482 1232 q 514 1235 494 1233 q 547 1238 533 1238 l 579 1238 q 608 1235 593 1238 q 636 1232 622 1233 l 472 1082 q 436 1078 457 1079 q 392 1076 415 1076 q 348 1078 368 1076 q 310 1082 328 1079 l 150 1232 z "},"ř":{"ha":517,"x_min":75,"x_max":539,"o":"m 111 713 q 140 717 126 715 q 169 718 154 718 q 200 717 185 718 q 228 713 215 715 q 236 658 232 692 q 240 600 240 624 q 317 682 269 647 q 440 717 365 717 q 463 716 451 717 q 483 714 475 715 q 488 688 486 701 q 489 658 489 674 q 487 624 489 642 q 482 589 485 606 q 459 592 471 592 q 440 592 447 592 q 369 581 403 592 q 308 544 335 571 q 265 472 281 518 q 249 354 249 426 l 249 0 q 215 -4 233 -3 q 181 -6 196 -6 q 147 -4 165 -6 q 111 0 128 -3 l 111 713 m 75 1000 q 104 1005 89 1003 q 139 1007 119 1007 q 178 1005 156 1007 q 217 1000 200 1003 l 307 889 l 397 1000 q 433 1005 413 1003 q 472 1007 454 1007 q 539 1000 507 1007 l 388 824 q 347 820 369 821 q 304 819 324 819 q 267 821 289 819 q 225 825 244 822 l 75 1000 z "},"Ś":{"ha":757,"x_min":64,"x_max":696,"o":"m 97 151 q 193 122 143 135 q 315 110 243 110 q 485 156 429 110 q 542 282 542 203 q 530 349 542 321 q 494 397 518 376 q 435 433 471 417 q 353 469 400 450 l 274 501 q 200 538 233 518 q 142 588 167 558 q 104 655 118 617 q 90 746 90 693 q 176 944 90 872 q 418 1015 263 1015 q 544 1004 485 1015 q 650 976 604 993 q 619 861 643 918 q 533 886 582 875 q 421 897 483 897 q 286 862 333 897 q 239 756 239 826 q 251 703 239 726 q 282 663 263 681 q 328 632 301 646 q 383 607 354 618 l 461 576 q 560 530 517 554 q 633 473 603 506 q 680 396 664 440 q 696 292 696 351 q 597 66 696 149 q 321 -17 499 -17 q 243 -14 278 -17 q 178 -6 208 -11 q 121 8 149 0 q 64 26 93 17 q 76 89 67 57 q 97 151 86 121 m 440 1082 q 403 1078 422 1079 q 364 1076 383 1076 q 328 1078 344 1076 q 292 1082 311 1079 l 439 1232 q 486 1237 461 1235 q 536 1239 511 1239 q 586 1237 563 1239 q 629 1232 610 1235 l 440 1082 z "},"ś":{"ha":632,"x_min":67,"x_max":568,"o":"m 99 129 q 181 105 136 114 q 271 96 226 96 q 332 103 303 96 q 383 124 361 110 q 417 158 404 138 q 431 203 431 178 q 420 249 431 231 q 392 279 410 267 q 352 301 375 292 q 303 318 329 310 l 254 336 q 125 411 165 369 q 85 524 85 453 q 152 674 85 618 q 350 729 219 729 q 456 719 404 729 q 547 694 508 708 q 537 639 544 667 q 518 588 529 611 q 445 609 488 599 q 354 619 403 619 q 263 601 303 619 q 224 538 224 583 q 233 497 224 514 q 260 469 243 481 q 298 449 276 457 q 344 432 319 440 l 406 411 q 469 385 439 400 q 520 347 499 369 q 555 291 542 324 q 568 213 568 258 q 547 119 568 161 q 488 47 526 76 q 396 0 450 17 q 276 -17 342 -17 q 160 -8 210 -17 q 67 17 110 1 q 78 73 69 44 q 99 129 88 101 m 353 825 q 319 821 338 822 q 279 819 301 819 q 248 821 264 819 q 215 825 232 822 l 375 1001 q 418 1006 396 1004 q 464 1007 440 1007 q 510 1006 489 1007 q 550 1001 531 1004 l 353 825 z "},"Ŝ":{"ha":757,"x_min":64,"x_max":696,"o":"m 97 151 q 193 122 143 135 q 315 110 243 110 q 485 156 429 110 q 542 282 542 203 q 530 349 542 321 q 494 397 518 376 q 435 433 471 417 q 353 469 400 450 l 274 501 q 200 538 233 518 q 142 588 167 558 q 104 655 118 617 q 90 746 90 693 q 176 944 90 872 q 418 1015 263 1015 q 544 1004 485 1015 q 650 976 604 993 q 619 861 643 918 q 533 886 582 875 q 421 897 483 897 q 286 862 333 897 q 239 756 239 826 q 251 703 239 726 q 282 663 263 681 q 328 632 301 646 q 383 607 354 618 l 461 576 q 560 530 517 554 q 633 473 603 506 q 680 396 664 440 q 696 292 696 351 q 597 66 696 149 q 321 -17 499 -17 q 243 -14 278 -17 q 178 -6 208 -11 q 121 8 149 0 q 64 26 93 17 q 76 89 67 57 q 97 151 86 121 m 636 1082 q 608 1078 624 1079 q 579 1076 593 1076 l 549 1076 q 515 1078 533 1076 q 485 1082 496 1079 l 394 1167 l 304 1082 q 272 1078 292 1079 q 239 1076 253 1076 l 207 1076 q 178 1078 193 1076 q 150 1082 164 1079 l 314 1232 q 350 1236 329 1235 q 394 1238 371 1238 q 438 1236 418 1238 q 476 1232 458 1235 l 636 1082 z "},"ŝ":{"ha":632,"x_min":67,"x_max":568,"o":"m 99 129 q 181 105 136 114 q 271 96 226 96 q 332 103 303 96 q 383 124 361 110 q 417 158 404 138 q 431 203 431 178 q 420 249 431 231 q 392 279 410 267 q 352 301 375 292 q 303 318 329 310 l 254 336 q 125 411 165 369 q 85 524 85 453 q 152 674 85 618 q 350 729 219 729 q 456 719 404 729 q 547 694 508 708 q 537 639 544 667 q 518 588 529 611 q 445 609 488 599 q 354 619 403 619 q 263 601 303 619 q 224 538 224 583 q 233 497 224 514 q 260 469 243 481 q 298 449 276 457 q 344 432 319 440 l 406 411 q 469 385 439 400 q 520 347 499 369 q 555 291 542 324 q 568 213 568 258 q 547 119 568 161 q 488 47 526 76 q 396 0 450 17 q 276 -17 342 -17 q 160 -8 210 -17 q 67 17 110 1 q 78 73 69 44 q 99 129 88 101 m 565 825 q 537 821 553 822 q 503 819 521 819 q 463 821 485 819 q 424 825 442 822 l 333 936 l 243 825 q 208 821 228 822 q 169 819 188 819 q 101 825 129 819 l 253 1001 q 294 1006 271 1004 q 338 1007 317 1007 q 374 1006 353 1007 q 415 1000 396 1004 l 565 825 z "},"Ş":{"ha":757,"x_min":64,"x_max":696,"o":"m 97 151 q 193 122 143 135 q 315 110 243 110 q 485 156 429 110 q 542 282 542 203 q 530 347 542 321 q 495 394 518 374 q 436 432 472 415 q 353 468 400 449 l 286 494 q 207 532 243 511 q 145 582 171 553 q 105 651 119 611 q 90 746 90 692 q 176 944 90 872 q 418 1015 263 1015 q 544 1004 485 1015 q 650 976 604 993 q 619 861 643 918 q 533 886 582 875 q 421 897 483 897 q 286 862 333 897 q 239 756 239 826 q 254 699 239 725 q 294 653 269 674 q 353 617 319 632 q 422 592 386 601 l 476 568 q 565 524 525 547 q 635 469 606 500 q 680 395 664 438 q 696 292 696 353 q 622 89 696 168 q 414 -10 549 10 l 388 -75 q 401 -74 394 -74 q 414 -74 407 -74 q 526 -109 490 -74 q 561 -196 561 -144 q 507 -299 561 -264 q 358 -335 453 -335 q 307 -332 338 -335 q 247 -318 276 -329 q 251 -276 247 -297 q 268 -235 256 -254 q 356 -251 314 -251 q 429 -235 406 -251 q 453 -196 453 -219 q 429 -159 453 -169 q 364 -149 406 -149 q 325 -151 344 -149 q 285 -160 306 -153 l 274 -147 l 322 -17 q 178 -5 236 -17 q 64 26 119 7 q 76 89 67 57 q 97 151 86 121 z "},"ş":{"ha":633,"x_min":67,"x_max":568,"o":"m 99 129 q 181 105 136 114 q 271 96 226 96 q 332 103 303 96 q 383 124 361 110 q 417 158 404 138 q 431 203 431 178 q 420 249 431 231 q 392 279 410 267 q 352 301 375 292 q 303 318 329 310 l 254 336 q 125 411 165 369 q 85 524 85 453 q 152 674 85 618 q 350 729 219 729 q 456 719 404 729 q 547 694 508 708 q 537 639 544 667 q 518 588 529 611 q 445 609 488 599 q 354 619 403 619 q 263 601 303 619 q 224 538 224 583 q 233 497 224 514 q 260 469 243 481 q 298 449 276 457 q 344 432 319 440 l 406 411 q 469 385 439 400 q 520 347 499 369 q 555 291 542 324 q 568 213 568 258 q 508 64 568 124 q 344 -11 447 4 l 319 -79 q 331 -78 325 -78 q 343 -78 336 -78 q 453 -111 415 -78 q 490 -196 490 -144 q 435 -300 490 -265 q 289 -335 381 -335 q 240 -332 269 -335 q 183 -318 211 -329 q 188 -277 185 -299 q 203 -237 192 -256 q 289 -253 249 -253 q 357 -239 329 -253 q 385 -197 385 -225 q 360 -158 385 -169 q 293 -147 335 -147 q 254 -150 274 -147 q 215 -157 235 -153 q 207 -150 213 -156 l 257 -17 q 152 -7 197 -15 q 67 17 107 1 q 78 73 69 44 q 99 129 88 101 z "},"Š":{"ha":757,"x_min":64,"x_max":696,"o":"m 97 151 q 193 122 143 135 q 315 110 243 110 q 485 156 429 110 q 542 282 542 203 q 530 349 542 321 q 494 397 518 376 q 435 433 471 417 q 353 469 400 450 l 274 501 q 200 538 233 518 q 142 588 167 558 q 104 655 118 617 q 90 746 90 693 q 176 944 90 872 q 418 1015 263 1015 q 544 1004 485 1015 q 650 976 604 993 q 619 861 643 918 q 533 886 582 875 q 421 897 483 897 q 286 862 333 897 q 239 756 239 826 q 251 703 239 726 q 282 663 263 681 q 328 632 301 646 q 383 607 354 618 l 461 576 q 560 530 517 554 q 633 473 603 506 q 680 396 664 440 q 696 292 696 351 q 597 66 696 149 q 321 -17 499 -17 q 243 -14 278 -17 q 178 -6 208 -11 q 121 8 149 0 q 64 26 93 17 q 76 89 67 57 q 97 151 86 121 m 157 1232 q 185 1235 169 1233 q 214 1238 200 1238 l 244 1238 q 278 1235 260 1238 q 308 1232 297 1233 q 354 1189 332 1210 q 399 1146 376 1168 l 489 1232 q 521 1235 501 1233 q 554 1238 540 1238 l 586 1238 q 615 1235 600 1238 q 643 1232 629 1233 l 479 1082 q 443 1078 464 1079 q 399 1076 422 1076 q 355 1078 375 1076 q 317 1082 335 1079 l 157 1232 z "},"š":{"ha":632,"x_min":67,"x_max":568,"o":"m 99 129 q 181 105 136 114 q 271 96 226 96 q 332 103 303 96 q 383 124 361 110 q 417 158 404 138 q 431 203 431 178 q 420 249 431 231 q 392 279 410 267 q 352 301 375 292 q 303 318 329 310 l 254 336 q 125 411 165 369 q 85 524 85 453 q 152 674 85 618 q 350 729 219 729 q 456 719 404 729 q 547 694 508 708 q 537 639 544 667 q 518 588 529 611 q 445 609 488 599 q 354 619 403 619 q 263 601 303 619 q 224 538 224 583 q 233 497 224 514 q 260 469 243 481 q 298 449 276 457 q 344 432 319 440 l 406 411 q 469 385 439 400 q 520 347 499 369 q 555 291 542 324 q 568 213 568 258 q 547 119 568 161 q 488 47 526 76 q 396 0 450 17 q 276 -17 342 -17 q 160 -8 210 -17 q 67 17 110 1 q 78 73 69 44 q 99 129 88 101 m 103 1000 q 132 1005 117 1003 q 167 1007 147 1007 q 206 1005 183 1007 q 244 1000 228 1003 l 335 889 l 425 1000 q 461 1005 440 1003 q 500 1007 482 1007 q 567 1000 535 1007 l 415 824 q 374 820 397 821 q 332 819 351 819 q 294 821 317 819 q 253 825 272 822 l 103 1000 z "},"Ţ":{"ha":731,"x_min":29,"x_max":701,"o":"m 294 875 l 35 875 q 31 906 32 889 q 29 938 29 922 q 31 969 29 953 q 35 999 32 985 l 696 999 q 700 969 699 985 q 701 939 701 954 q 700 906 701 924 q 696 875 699 889 l 436 875 l 436 0 q 367 -4 404 -4 q 294 0 328 -4 l 294 875 m 358 -331 q 299 -337 326 -337 q 269 -335 283 -337 q 238 -331 254 -333 l 300 -90 q 333 -86 315 -87 q 368 -85 351 -85 l 382 -85 q 412 -86 397 -85 q 442 -90 426 -87 l 358 -331 z "},"ţ":{"ha":497,"x_min":24,"x_max":474,"o":"m 138 603 l 29 603 l 24 622 l 263 889 l 274 889 l 274 713 l 454 713 q 460 660 460 689 q 458 631 460 644 q 454 603 457 617 l 274 603 l 274 278 q 278 185 274 219 q 295 131 283 150 q 327 106 307 113 q 378 100 347 100 q 422 103 401 100 q 460 111 443 107 q 472 54 469 83 q 474 3 474 25 q 415 -8 446 -4 q 350 -11 385 -11 q 194 38 250 -11 q 138 199 138 86 l 138 603 m 315 -331 q 287 -335 300 -333 q 258 -337 274 -337 q 228 -335 243 -337 q 197 -331 213 -333 l 258 -90 q 285 -87 271 -89 q 314 -85 299 -85 l 342 -85 q 368 -86 356 -85 q 396 -90 381 -87 l 315 -331 z "},"Ť":{"ha":731,"x_min":29,"x_max":701,"o":"m 294 875 l 35 875 q 31 906 32 889 q 29 938 29 922 q 31 969 29 953 q 35 999 32 985 l 696 999 q 700 969 699 985 q 701 939 701 954 q 700 906 701 924 q 696 875 699 889 l 436 875 l 436 0 q 367 -4 404 -4 q 294 0 328 -4 l 294 875 m 125 1232 q 153 1235 138 1233 q 182 1238 168 1238 l 213 1238 q 247 1235 228 1238 q 276 1232 265 1233 q 322 1189 300 1210 q 367 1146 344 1168 l 457 1232 q 489 1235 469 1233 q 522 1238 508 1238 l 554 1238 q 583 1235 568 1238 q 611 1232 597 1233 l 447 1082 q 411 1078 432 1079 q 367 1076 390 1076 q 323 1078 343 1076 q 285 1082 303 1079 l 125 1232 z "},"ť":{"ha":496,"x_min":24,"x_max":528,"o":"m 394 1018 q 425 1022 410 1021 q 461 1024 440 1024 q 494 1022 478 1024 q 528 1018 511 1021 l 507 794 q 478 790 490 792 q 453 789 465 789 q 425 790 439 789 q 394 794 411 792 l 394 1018 m 138 603 l 29 603 l 24 622 l 263 889 l 274 889 l 274 713 l 454 713 q 460 660 460 689 q 458 631 460 644 q 454 603 457 617 l 274 603 l 274 278 q 278 185 274 219 q 295 131 283 150 q 327 106 307 113 q 378 100 347 100 q 422 103 401 100 q 460 111 443 107 q 472 54 469 83 q 474 3 474 25 q 415 -8 446 -4 q 350 -11 385 -11 q 194 38 250 -11 q 138 199 138 86 l 138 603 z "},"Ŧ":{"ha":731,"x_min":29,"x_max":701,"o":"m 294 444 l 101 444 q 97 469 99 456 q 96 496 96 483 q 97 523 96 508 q 101 549 99 538 l 294 549 l 294 875 l 35 875 q 31 906 32 889 q 29 938 29 922 q 31 969 29 953 q 35 999 32 985 l 696 999 q 700 969 699 985 q 701 939 701 954 q 700 906 701 924 q 696 875 699 889 l 436 875 l 436 549 l 628 549 q 632 523 631 538 q 633 496 633 508 q 632 469 633 483 q 628 444 631 456 l 436 444 l 436 0 q 367 -4 404 -4 q 294 0 328 -4 l 294 444 z "},"ŧ":{"ha":497,"x_min":24,"x_max":474,"o":"m 138 329 l 28 329 q 24 383 24 354 q 28 436 24 411 l 138 436 l 138 603 l 29 603 l 24 622 l 263 889 l 274 889 l 274 713 l 454 713 q 460 660 460 689 q 458 631 460 644 q 454 603 457 617 l 274 603 l 274 436 l 454 436 q 458 410 457 424 q 460 385 460 397 q 454 329 460 353 l 274 329 l 274 278 q 278 185 274 219 q 295 131 283 150 q 327 106 307 113 q 378 100 347 100 q 422 103 401 100 q 460 111 443 107 q 472 54 469 83 q 474 3 474 25 q 415 -8 446 -4 q 350 -11 385 -11 q 194 38 250 -11 q 138 199 138 86 l 138 329 z "},"Ũ":{"ha":936,"x_min":113,"x_max":824,"o":"m 113 999 q 185 1003 146 1003 q 254 999 222 1003 l 254 432 q 265 285 254 346 q 301 185 276 224 q 367 129 326 147 q 468 111 408 111 q 568 129 528 111 q 633 185 608 147 q 669 285 658 224 q 681 432 681 346 l 681 999 q 751 1003 715 1003 q 824 999 790 1003 l 824 407 q 805 228 824 307 q 744 94 786 149 q 633 12 701 40 q 468 -17 565 -17 q 303 12 371 -17 q 192 94 235 40 q 131 228 150 149 q 113 407 113 307 l 113 999 m 221 1193 q 279 1241 243 1218 q 361 1264 315 1264 q 419 1253 390 1264 q 476 1229 449 1242 q 531 1206 504 1217 q 586 1194 558 1194 q 633 1205 613 1194 q 681 1242 653 1215 q 726 1160 713 1203 q 667 1115 703 1136 q 588 1093 632 1093 q 528 1103 557 1093 q 471 1127 499 1114 q 416 1151 443 1140 q 363 1161 389 1161 q 313 1149 333 1161 q 267 1114 293 1138 q 239 1152 251 1133 q 221 1193 226 1171 z "},"ũ":{"ha":797,"x_min":103,"x_max":692,"o":"m 103 713 q 138 717 118 715 q 171 718 157 718 q 206 717 186 718 q 240 713 225 715 l 240 322 q 253 212 240 256 q 290 143 265 168 q 351 108 315 118 q 435 99 388 99 q 556 114 506 99 l 556 713 q 590 717 571 715 q 624 718 608 718 q 658 717 639 718 q 692 713 676 715 l 692 22 q 576 -4 643 8 q 436 -17 508 -17 q 308 -5 368 -17 q 201 43 247 7 q 129 144 156 79 q 103 317 103 210 l 103 713 m 164 928 q 218 976 185 956 q 297 996 251 996 q 353 986 326 996 q 403 965 379 976 q 453 944 428 954 q 506 935 478 935 q 549 943 529 935 q 599 978 569 951 q 643 893 629 940 q 587 847 621 867 q 508 828 553 828 q 453 838 479 828 q 401 858 426 847 q 352 879 376 869 q 301 889 328 889 q 254 879 274 889 q 207 846 235 869 q 181 885 192 865 q 164 928 169 906 z "},"Ū":{"ha":936,"x_min":113,"x_max":824,"o":"m 113 999 q 185 1003 146 1003 q 254 999 222 1003 l 254 432 q 265 285 254 346 q 301 185 276 224 q 367 129 326 147 q 468 111 408 111 q 568 129 528 111 q 633 185 608 147 q 669 285 658 224 q 681 432 681 346 l 681 999 q 751 1003 715 1003 q 824 999 790 1003 l 824 407 q 805 228 824 307 q 744 94 786 149 q 633 12 701 40 q 468 -17 565 -17 q 303 12 371 -17 q 192 94 235 40 q 131 228 150 149 q 113 407 113 307 l 113 999 m 690 1207 q 694 1181 693 1196 q 694 1154 694 1167 q 694 1128 694 1142 q 690 1103 693 1114 l 247 1103 q 243 1128 244 1114 q 242 1154 242 1142 q 243 1181 242 1167 q 247 1207 244 1196 l 690 1207 z "},"ū":{"ha":797,"x_min":103,"x_max":692,"o":"m 103 713 q 138 717 118 715 q 171 718 157 718 q 206 717 186 718 q 240 713 225 715 l 240 322 q 253 212 240 256 q 290 143 265 168 q 351 108 315 118 q 435 99 388 99 q 556 114 506 99 l 556 713 q 590 717 571 715 q 624 718 608 718 q 658 717 639 718 q 692 713 676 715 l 692 22 q 576 -4 643 8 q 436 -17 508 -17 q 308 -5 368 -17 q 201 43 247 7 q 129 144 156 79 q 103 317 103 210 l 103 713 m 585 964 q 589 939 588 953 q 590 913 590 925 q 589 886 590 900 q 585 861 588 872 l 210 861 q 206 886 207 872 q 204 913 204 900 q 206 938 204 924 q 210 964 207 953 l 585 964 z "},"Ŭ":{"ha":936,"x_min":113,"x_max":824,"o":"m 113 999 q 185 1003 146 1003 q 254 999 222 1003 l 254 432 q 265 285 254 346 q 301 185 276 224 q 367 129 326 147 q 468 111 408 111 q 568 129 528 111 q 633 185 608 147 q 669 285 658 224 q 681 432 681 346 l 681 999 q 751 1003 715 1003 q 824 999 790 1003 l 824 407 q 805 228 824 307 q 744 94 786 149 q 633 12 701 40 q 468 -17 565 -17 q 303 12 371 -17 q 192 94 235 40 q 131 228 150 149 q 113 407 113 307 l 113 999 m 472 1074 q 402 1079 440 1074 q 330 1103 364 1085 q 271 1153 296 1121 q 240 1238 246 1185 q 270 1242 256 1240 q 300 1244 285 1244 q 332 1242 317 1244 q 363 1238 347 1240 q 390 1185 367 1207 q 472 1163 414 1163 q 554 1185 531 1163 q 582 1238 578 1207 q 646 1244 617 1244 q 675 1242 661 1244 q 706 1238 689 1240 q 674 1153 700 1185 q 615 1103 649 1121 q 542 1079 581 1085 q 472 1074 504 1074 z "},"ŭ":{"ha":797,"x_min":103,"x_max":692,"o":"m 103 713 q 138 717 118 715 q 171 718 157 718 q 206 717 186 718 q 240 713 225 715 l 240 322 q 253 212 240 256 q 290 143 265 168 q 351 108 315 118 q 435 99 388 99 q 556 114 506 99 l 556 713 q 590 717 571 715 q 624 718 608 718 q 658 717 639 718 q 692 713 676 715 l 692 22 q 576 -4 643 8 q 436 -17 508 -17 q 308 -5 368 -17 q 201 43 247 7 q 129 144 156 79 q 103 317 103 210 l 103 713 m 399 814 q 330 822 367 814 q 260 850 293 829 q 201 907 226 871 q 169 1000 176 943 q 201 1006 185 1004 q 233 1007 218 1007 q 263 1005 249 1007 q 293 1000 278 1003 q 301 967 294 983 q 319 938 307 951 q 351 917 332 925 q 399 908 369 908 q 447 917 428 908 q 478 938 465 925 q 496 967 490 951 q 504 1000 501 983 q 536 1005 521 1003 q 567 1007 551 1007 q 598 1006 582 1007 q 628 1000 614 1004 q 596 907 621 943 q 538 850 571 871 q 467 822 504 829 q 399 814 431 814 z "},"Ů":{"ha":936,"x_min":113,"x_max":824,"o":"m 113 999 q 185 1003 146 1003 q 254 999 222 1003 l 254 432 q 265 285 254 346 q 301 185 276 224 q 367 129 326 147 q 468 111 408 111 q 568 129 528 111 q 633 185 608 147 q 669 285 658 224 q 681 432 681 346 l 681 999 q 751 1003 715 1003 q 824 999 790 1003 l 824 407 q 805 228 824 307 q 744 94 786 149 q 633 12 701 40 q 468 -17 565 -17 q 303 12 371 -17 q 192 94 235 40 q 131 228 150 149 q 113 407 113 307 l 113 999 m 307 1179 q 319 1243 307 1214 q 353 1293 331 1272 q 404 1326 375 1314 q 469 1338 433 1338 q 534 1326 504 1338 q 586 1293 564 1314 q 620 1243 608 1272 q 632 1179 632 1214 q 620 1115 632 1144 q 586 1065 608 1086 q 534 1031 564 1043 q 469 1019 504 1019 q 404 1031 433 1019 q 353 1065 375 1043 q 319 1115 331 1086 q 307 1179 307 1144 m 469 1092 q 525 1115 506 1092 q 544 1179 544 1139 q 525 1242 544 1218 q 469 1265 506 1265 q 414 1242 433 1265 q 394 1179 394 1218 q 414 1115 394 1139 q 469 1092 433 1092 z "},"ů":{"ha":797,"x_min":103,"x_max":692,"o":"m 103 713 q 138 717 118 715 q 171 718 157 718 q 206 717 186 718 q 240 713 225 715 l 240 322 q 253 212 240 256 q 290 143 265 168 q 351 108 315 118 q 435 99 388 99 q 556 114 506 99 l 556 713 q 590 717 571 715 q 624 718 608 718 q 658 717 639 718 q 692 713 676 715 l 692 22 q 576 -4 643 8 q 436 -17 508 -17 q 308 -5 368 -17 q 201 43 247 7 q 129 144 156 79 q 103 317 103 210 l 103 713 m 254 963 q 296 1070 254 1029 q 404 1111 338 1111 q 513 1070 471 1111 q 554 963 554 1029 q 513 855 554 896 q 404 814 471 814 q 296 855 338 814 q 254 963 254 896 m 404 885 q 456 906 438 885 q 474 963 474 926 q 456 1019 474 999 q 404 1040 438 1040 q 353 1019 371 1040 q 336 963 336 999 q 353 906 336 926 q 404 885 371 885 z "},"Ű":{"ha":936,"x_min":113,"x_max":829,"o":"m 113 999 q 185 1003 146 1003 q 254 999 222 1003 l 254 432 q 265 285 254 346 q 301 185 276 224 q 367 129 326 147 q 468 111 408 111 q 568 129 528 111 q 633 185 608 147 q 669 285 658 224 q 681 432 681 346 l 681 999 q 751 1003 715 1003 q 824 999 790 1003 l 824 407 q 805 228 824 307 q 744 94 786 149 q 633 12 701 40 q 468 -17 565 -17 q 303 12 371 -17 q 192 94 235 40 q 131 228 150 149 q 113 407 113 307 l 113 999 m 379 1081 q 343 1076 363 1078 q 303 1075 324 1075 q 271 1076 288 1075 q 235 1081 254 1078 l 374 1233 q 418 1238 396 1238 q 460 1239 440 1239 q 500 1238 479 1239 q 543 1233 521 1236 l 379 1081 m 664 1081 q 628 1076 649 1078 q 589 1075 608 1075 q 557 1076 574 1075 q 521 1081 540 1078 l 658 1233 q 703 1238 682 1238 q 744 1239 725 1239 q 785 1238 764 1239 q 829 1233 807 1236 l 664 1081 z "},"ű":{"ha":797,"x_min":103,"x_max":775,"o":"m 103 713 q 138 717 118 715 q 171 718 157 718 q 206 717 186 718 q 240 713 225 715 l 240 322 q 253 212 240 256 q 290 143 265 168 q 351 108 315 118 q 435 99 388 99 q 556 114 506 99 l 556 713 q 590 717 571 715 q 624 718 608 718 q 658 717 639 718 q 692 713 676 715 l 692 22 q 576 -4 643 8 q 436 -17 508 -17 q 308 -5 368 -17 q 201 43 247 7 q 129 144 156 79 q 103 317 103 210 l 103 713 m 324 825 q 290 821 308 822 q 250 819 271 819 q 219 821 235 819 q 186 825 203 822 l 343 1001 q 385 1006 364 1004 q 426 1007 407 1007 q 467 1006 446 1007 q 508 1001 488 1004 l 324 825 m 590 825 q 556 821 575 822 q 517 819 538 819 q 485 821 501 819 q 453 825 469 822 l 611 1001 q 652 1006 631 1004 q 693 1007 674 1007 q 734 1006 714 1007 q 775 1001 754 1004 l 590 825 z "},"Ų":{"ha":935,"x_min":113,"x_max":822,"o":"m 113 999 q 185 1003 146 1003 q 254 999 221 1003 l 254 432 q 265 285 254 346 q 301 185 276 224 q 367 129 326 147 q 468 111 408 111 q 568 129 528 111 q 633 185 608 147 q 669 285 658 224 q 681 432 681 346 l 681 999 q 751 1003 714 1003 q 788 1002 768 1003 q 822 999 807 1001 l 822 407 q 766 131 822 236 q 576 -4 710 25 q 499 -83 531 -40 q 467 -172 467 -126 q 486 -223 467 -204 q 544 -242 506 -242 q 574 -239 556 -242 q 617 -229 593 -236 q 633 -273 628 -247 q 638 -319 638 -299 q 588 -331 617 -326 q 518 -336 558 -336 q 453 -328 485 -336 q 395 -304 421 -321 q 353 -261 369 -287 q 338 -196 338 -235 q 365 -102 338 -149 q 438 -17 392 -56 q 287 18 349 -12 q 186 103 225 49 q 130 233 147 157 q 113 407 113 310 l 113 999 z "},"ų":{"ha":797,"x_min":103,"x_max":692,"o":"m 103 713 q 137 716 118 715 q 171 717 156 717 q 205 716 186 717 q 239 713 224 715 l 239 321 q 252 211 239 254 q 290 143 265 168 q 351 108 315 118 q 435 99 388 99 q 501 102 471 99 q 554 113 531 106 l 554 713 q 588 716 569 715 q 622 717 607 717 q 657 716 638 717 q 692 713 676 715 l 692 22 q 669 10 679 15 q 647 -1 658 4 q 594 -36 617 -15 q 556 -80 571 -57 q 533 -126 540 -103 q 525 -168 525 -149 q 544 -223 525 -203 q 603 -243 564 -243 q 631 -241 614 -243 q 671 -232 649 -239 q 685 -275 681 -250 q 690 -319 690 -300 q 640 -331 671 -326 q 575 -336 610 -336 q 510 -328 542 -336 q 454 -304 479 -321 q 414 -260 429 -287 q 399 -196 399 -233 q 426 -102 399 -151 q 501 -12 454 -53 q 436 -17 469 -17 q 308 -5 368 -17 q 201 42 247 7 q 129 143 156 78 q 103 315 103 208 l 103 713 z "},"Ŵ":{"ha":1279,"x_min":38,"x_max":1242,"o":"m 38 999 q 76 1003 53 1001 q 118 1004 99 1004 q 158 1003 138 1004 q 194 999 178 1001 l 365 167 l 571 999 q 608 1003 588 1001 q 646 1004 628 1004 q 683 1003 663 1004 q 719 999 704 1001 l 926 158 l 1100 999 q 1133 1003 1115 1001 q 1167 1004 1150 1004 q 1206 1003 1186 1004 q 1242 999 1226 1001 l 1001 0 q 963 -4 985 -3 q 922 -6 940 -6 q 879 -4 903 -6 q 836 0 856 -3 l 639 782 l 439 0 q 397 -4 419 -3 q 354 -6 374 -6 q 316 -4 338 -6 q 278 0 294 -3 l 38 999 m 881 1082 q 853 1078 868 1079 q 824 1076 838 1076 l 793 1076 q 759 1078 778 1076 q 729 1082 740 1079 l 639 1167 l 549 1082 q 517 1078 536 1079 q 483 1076 497 1076 l 451 1076 q 423 1078 438 1076 q 394 1082 408 1079 l 558 1232 q 594 1236 574 1235 q 639 1238 615 1238 q 683 1236 663 1238 q 721 1232 703 1235 l 881 1082 z "}}}
